<?xml version="1.0" encoding="UTF-8" standalone="no"?>
<svg
   xmlns:dc="http://purl.org/dc/elements/1.1/"
   xmlns:cc="http://creativecommons.org/ns#"
   xmlns:rdf="http://www.w3.org/1999/02/22-rdf-syntax-ns#"
   xmlns:svg="http://www.w3.org/2000/svg"
   xmlns="http://www.w3.org/2000/svg"
   xmlns:xlink="http://www.w3.org/1999/xlink"
   xmlns:sodipodi="http://sodipodi.sourceforge.net/DTD/sodipodi-0.dtd"
   xmlns:inkscape="http://www.inkscape.org/namespaces/inkscape"
   width="456.39059pt"
   height="392.84415pt"
   viewBox="0 0 456.39059 392.84415"
   version="1.1"
   id="svg2"
   inkscape:version="0.91 r13725"
   sodipodi:docname="similarity_math.svg">
  <metadata
     id="metadata314">
    <rdf:RDF>
      <cc:Work
         rdf:about="">
        <dc:format>image/svg+xml</dc:format>
        <dc:type
           rdf:resource="http://purl.org/dc/dcmitype/StillImage" />
        <dc:title></dc:title>
      </cc:Work>
    </rdf:RDF>
  </metadata>
  <sodipodi:namedview
     pagecolor="#ffffff"
     bordercolor="#666666"
     borderopacity="1"
     objecttolerance="10"
     gridtolerance="10"
     guidetolerance="10"
     inkscape:pageopacity="0"
     inkscape:pageshadow="2"
     inkscape:window-width="1280"
     inkscape:window-height="738"
     id="namedview312"
     showgrid="false"
     fit-margin-top="0"
     fit-margin-left="0"
     fit-margin-right="0"
     fit-margin-bottom="0"
     inkscape:zoom="0.87755279"
     inkscape:cx="302.33758"
     inkscape:cy="219.84641"
     inkscape:window-x="-8"
     inkscape:window-y="-8"
     inkscape:window-maximized="1"
     inkscape:current-layer="svg2" />
  <defs
     id="defs4">
    <clipPath
       id="clip1">
      <path
         d="m 41.292969,0.375 414.722651,0 0,371.51953 -414.722651,0 z"
         id="path7"
         inkscape:connector-curvature="0" />
    </clipPath>
    <clipPath
       id="clip3">
      <path
         d="m 0.292969,0.375 414.722651,0 0,371.51953 -414.722651,0 z"
         id="path10"
         inkscape:connector-curvature="0" />
    </clipPath>
    <clipPath
       id="clip4">
      <path
         d="m 0.199219,0 415.000001,0 0,372 -415.000001,0 z"
         id="path13"
         inkscape:connector-curvature="0" />
    </clipPath>
    <clipPath
       id="clip6">
      <path
         d="m 0.292969,0.375 414.722651,0 0,371.51953 -414.722651,0 z"
         id="path16"
         inkscape:connector-curvature="0" />
    </clipPath>
    <clipPath
       id="clip7">
      <path
         d="m 0.199219,0 415.000001,0 0,372 -415.000001,0 z"
         id="path19"
         inkscape:connector-curvature="0" />
    </clipPath>
    <clipPath
       id="clip8">
      <path
         d="m 0.292969,0.375 414.722651,0 0,371.51953 -414.722651,0 z"
         id="path22"
         inkscape:connector-curvature="0" />
    </clipPath>
    <clipPath
       id="clip10">
      <path
         d="m 0.292969,0.375 414.722651,0 0,371.51953 -414.722651,0 z"
         id="path25"
         inkscape:connector-curvature="0" />
    </clipPath>
    <clipPath
       id="clip11">
      <path
         d="m 0.199219,0 415.000001,0 0,372 -415.000001,0 z"
         id="path28"
         inkscape:connector-curvature="0" />
    </clipPath>
    <clipPath
       id="clip12">
      <path
         d="m 0.292969,0.375 414.722651,0 0,371.51953 -414.722651,0 z"
         id="path31"
         inkscape:connector-curvature="0" />
    </clipPath>
    <clipPath
       id="clip9">
      <rect
         width="416"
         height="372"
         id="rect34"
         x="0"
         y="0" />
    </clipPath>
    <g
       id="surface52"
       clip-path="url(#clip9)">
      <g
         clip-path="url(#clip10)"
         id="g37"
         style="clip-rule:nonzero">
        <g
           clip-path="url(#clip11)"
           id="g39"
           style="clip-rule:nonzero">
          <g
             clip-path="url(#clip12)"
             id="g41"
             style="clip-rule:nonzero">
            <path
               style="fill:#ffffff;fill-opacity:1;fill-rule:nonzero;stroke:none"
               d="m 28.453125,232.6875 102.402345,0 0,100.21875 -102.402345,0 z"
               id="path43"
               inkscape:connector-curvature="0" />
            <path
               style="fill:none;stroke:#000000;stroke-width:2.25;stroke-linecap:butt;stroke-linejoin:round;stroke-miterlimit:10;stroke-opacity:1"
               d="m 28.453125,-311.65625 102.402345,0"
               transform="scale(1,-1)"
               id="path45"
               inkscape:connector-curvature="0" />
            <path
               style="fill:none;stroke:#000000;stroke-width:0.75;stroke-linecap:round;stroke-linejoin:round;stroke-miterlimit:10;stroke-dasharray:2.25, 3.75;stroke-opacity:1"
               d="m 79.652344,-358.13672 0,25.23047"
               transform="scale(1,-1)"
               id="path47"
               inkscape:connector-curvature="0" />
            <path
               style="fill:none;stroke:#000000;stroke-width:0.75;stroke-linecap:round;stroke-linejoin:round;stroke-miterlimit:10;stroke-dasharray:2.25, 3.75;stroke-opacity:1"
               d="m 79.652344,-107.55469 0,-125.13281"
               transform="scale(1,-1)"
               id="path49"
               inkscape:connector-curvature="0" />
            <path
               style="fill:none;stroke:#000000;stroke-width:0.75;stroke-linecap:round;stroke-linejoin:round;stroke-miterlimit:10;stroke-opacity:1"
               d="m 54.054687,-358.13672 51.199223,0"
               transform="scale(1,-1)"
               id="path51"
               inkscape:connector-curvature="0" />
            <path
               style="fill:none;stroke:#000000;stroke-width:0.75;stroke-linecap:round;stroke-linejoin:round;stroke-miterlimit:10;stroke-opacity:1"
               d="m 54.054687,-107.55469 51.199223,0"
               transform="scale(1,-1)"
               id="path53"
               inkscape:connector-curvature="0" />
            <path
               style="fill:none;stroke:#000000;stroke-width:0.75;stroke-linecap:round;stroke-linejoin:round;stroke-miterlimit:10;stroke-opacity:1"
               d="m 28.453125,-232.6875 102.402345,0 0,-100.21875 -102.402345,0 z"
               transform="scale(1,-1)"
               id="path55"
               inkscape:connector-curvature="0" />
            <path
               style="fill:none;stroke:#000000;stroke-width:0.75;stroke-linecap:round;stroke-linejoin:round;stroke-miterlimit:10;stroke-opacity:1"
               d="m 80.429688,-30.320313 -0.640625,0 0,1.84375 c -0.199219,-0.179687 -0.398438,-0.308593 -0.59375,-0.390625 -0.199219,-0.08203 -0.414063,-0.125 -0.640625,-0.125 -0.460938,0 -0.824219,0.171875 -1.09375,0.515625 -0.261719,0.351563 -0.390625,0.835938 -0.390625,1.453125 0,0.332032 0.04687,0.625 0.140625,0.875 0.08984,0.246094 0.21875,0.460938 0.375,0.640625 0.144531,0.164063 0.316406,0.289063 0.515625,0.375 0.207031,0.08984 0.425781,0.140625 0.65625,0.140625 0.195312,0 0.375,-0.02734 0.53125,-0.07813 0.164062,-0.04297 0.332031,-0.105468 0.5,-0.1875 l 0.03125,0.15625 0.609375,0 z m -0.640625,2.375 0,2.15625 c -0.1875,0.08203 -0.351563,0.140625 -0.484375,0.171875 -0.136719,0.02734 -0.285157,0.04687 -0.4375,0.04687 -0.375,0 -0.664063,-0.128906 -0.859375,-0.375 -0.1875,-0.25 -0.28125,-0.601562 -0.28125,-1.046875 0,-0.4375 0.07813,-0.785156 0.234375,-1.03125 0.152343,-0.242187 0.398437,-0.359375 0.734375,-0.359375 0.183593,0 0.375,0.03906 0.5625,0.125 0.183593,0.08203 0.363281,0.1875 0.53125,0.3125 z"
               transform="scale(1,-1)"
               id="path57"
               inkscape:connector-curvature="0" />
            <path
               style="fill:#ffffff;fill-opacity:1;fill-rule:nonzero;stroke:none"
               d="m 156.45312,214.28516 102.40235,0 0,117.26171 -102.40235,0 z"
               id="path59"
               inkscape:connector-curvature="0" />
            <path
               style="fill:none;stroke:#000000;stroke-width:2.25;stroke-linecap:butt;stroke-linejoin:round;stroke-miterlimit:10;stroke-opacity:1"
               d="m 156.45312,-301.83594 102.40235,0"
               transform="scale(1,-1)"
               id="path61"
               inkscape:connector-curvature="0" />
            <path
               style="fill:none;stroke:#000000;stroke-width:0.75;stroke-linecap:round;stroke-linejoin:round;stroke-miterlimit:10;stroke-dasharray:2.25, 3.75;stroke-opacity:1"
               d="m 207.65234,-354.49609 0,22.94922"
               transform="scale(1,-1)"
               id="path63"
               inkscape:connector-curvature="0" />
            <path
               style="fill:none;stroke:#000000;stroke-width:0.75;stroke-linecap:round;stroke-linejoin:round;stroke-miterlimit:10;stroke-dasharray:2.25, 3.75;stroke-opacity:1"
               d="m 207.65234,-52.027344 0,-162.257816"
               transform="scale(1,-1)"
               id="path65"
               inkscape:connector-curvature="0" />
            <path
               style="fill:none;stroke:#000000;stroke-width:0.75;stroke-linecap:round;stroke-linejoin:round;stroke-miterlimit:10;stroke-opacity:1"
               d="m 182.05469,-354.49609 51.19922,0"
               transform="scale(1,-1)"
               id="path67"
               inkscape:connector-curvature="0" />
            <path
               style="fill:none;stroke:#000000;stroke-width:0.75;stroke-linecap:round;stroke-linejoin:round;stroke-miterlimit:10;stroke-opacity:1"
               d="m 182.05469,-52.027344 51.19922,0"
               transform="scale(1,-1)"
               id="path69"
               inkscape:connector-curvature="0" />
            <path
               style="fill:none;stroke:#000000;stroke-width:0.75;stroke-linecap:round;stroke-linejoin:round;stroke-miterlimit:10;stroke-opacity:1"
               d="m 156.45312,-214.28516 102.40235,0 0,-117.26171 -102.40235,0 z"
               transform="scale(1,-1)"
               id="path71"
               inkscape:connector-curvature="0" />
            <path
               style="fill:none;stroke:#000000;stroke-width:0.75;stroke-linecap:round;stroke-linejoin:round;stroke-miterlimit:10;stroke-opacity:1"
               d="m 208.42969,-18.140625 -0.64063,0 0,1.84375 c -0.19922,-0.179688 -0.39844,-0.308594 -0.59375,-0.390625 -0.19922,-0.08203 -0.41406,-0.125 -0.64062,-0.125 -0.46094,0 -0.82422,0.171875 -1.09375,0.515625 -0.26172,0.351562 -0.39063,0.835937 -0.39063,1.453125 0,0.332031 0.0469,0.625 0.14063,0.875 0.0898,0.246094 0.21875,0.460937 0.375,0.640625 0.14453,0.164062 0.3164,0.289062 0.51562,0.375 0.20703,0.08984 0.42578,0.140625 0.65625,0.140625 0.19531,0 0.375,-0.02734 0.53125,-0.07813 0.16406,-0.04297 0.33203,-0.105469 0.5,-0.1875 l 0.0312,0.15625 0.60938,0 z m -0.64063,2.375 0,2.15625 c -0.1875,0.08203 -0.35156,0.140625 -0.48437,0.171875 -0.13672,0.02734 -0.28516,0.04687 -0.4375,0.04687 -0.375,0 -0.66407,-0.128906 -0.85938,-0.375 -0.1875,-0.25 -0.28125,-0.601563 -0.28125,-1.046875 0,-0.4375 0.0781,-0.785156 0.23438,-1.03125 0.15234,-0.242188 0.39843,-0.359375 0.73437,-0.359375 0.1836,0 0.375,0.03906 0.5625,0.125 0.1836,0.08203 0.36328,0.1875 0.53125,0.3125 z"
               transform="scale(1,-1)"
               id="path73"
               inkscape:connector-curvature="0" />
            <path
               style="fill:#ffffff;fill-opacity:1;fill-rule:nonzero;stroke:none"
               d="m 284.45312,211.23437 102.40235,0 0,120.3125 -102.40235,0 z"
               id="path75"
               inkscape:connector-curvature="0" />
            <path
               style="fill:none;stroke:#000000;stroke-width:2.25;stroke-linecap:butt;stroke-linejoin:round;stroke-miterlimit:10;stroke-opacity:1"
               d="m 284.45312,-301.83594 102.40235,0"
               transform="scale(1,-1)"
               id="path77"
               inkscape:connector-curvature="0" />
            <path
               style="fill:none;stroke:#000000;stroke-width:0.75;stroke-linecap:round;stroke-linejoin:round;stroke-miterlimit:10;stroke-dasharray:2.25, 3.75;stroke-opacity:1"
               d="m 335.65234,-357.45703 0,25.91016"
               transform="scale(1,-1)"
               id="path79"
               inkscape:connector-curvature="0" />
            <path
               style="fill:none;stroke:#000000;stroke-width:0.75;stroke-linecap:round;stroke-linejoin:round;stroke-miterlimit:10;stroke-dasharray:2.25, 3.75;stroke-opacity:1"
               d="m 335.65234,-52.027344 0,-159.207026"
               transform="scale(1,-1)"
               id="path81"
               inkscape:connector-curvature="0" />
            <path
               style="fill:none;stroke:#000000;stroke-width:0.75;stroke-linecap:round;stroke-linejoin:round;stroke-miterlimit:10;stroke-opacity:1"
               d="m 310.05469,-357.45703 51.19922,0"
               transform="scale(1,-1)"
               id="path83"
               inkscape:connector-curvature="0" />
            <path
               style="fill:none;stroke:#000000;stroke-width:0.75;stroke-linecap:round;stroke-linejoin:round;stroke-miterlimit:10;stroke-opacity:1"
               d="m 310.05469,-52.027344 51.19922,0"
               transform="scale(1,-1)"
               id="path85"
               inkscape:connector-curvature="0" />
            <path
               style="fill:none;stroke:#000000;stroke-width:0.75;stroke-linecap:round;stroke-linejoin:round;stroke-miterlimit:10;stroke-opacity:1"
               d="m 284.45312,-211.23437 102.40235,0 0,-120.3125 -102.40235,0 z"
               transform="scale(1,-1)"
               id="path87"
               inkscape:connector-curvature="0" />
            <path
               style="fill:none;stroke:#000000;stroke-width:0.75;stroke-linecap:round;stroke-linejoin:round;stroke-miterlimit:10;stroke-opacity:1"
               d="m 336.42969,-25.753906 -0.64063,0 0,1.84375 c -0.19922,-0.179688 -0.39844,-0.308594 -0.59375,-0.390625 -0.19922,-0.08203 -0.41406,-0.125 -0.64062,-0.125 -0.46094,0 -0.82422,0.171875 -1.09375,0.515625 -0.26172,0.351562 -0.39063,0.835937 -0.39063,1.453125 0,0.332031 0.0469,0.625 0.14063,0.875 0.0898,0.246093 0.21875,0.460937 0.375,0.640625 0.14453,0.164062 0.3164,0.289062 0.51562,0.375 0.20703,0.08984 0.42578,0.140625 0.65625,0.140625 0.19531,0 0.375,-0.02734 0.53125,-0.07813 0.16406,-0.04297 0.33203,-0.105469 0.5,-0.1875 l 0.0312,0.15625 0.60938,0 z m -0.64063,2.375 0,2.15625 c -0.1875,0.08203 -0.35156,0.140625 -0.48437,0.171875 -0.13672,0.02734 -0.28516,0.04687 -0.4375,0.04687 -0.375,0 -0.66407,-0.128907 -0.85938,-0.375 -0.1875,-0.25 -0.28125,-0.601563 -0.28125,-1.046875 0,-0.4375 0.0781,-0.785157 0.23438,-1.03125 0.15234,-0.242188 0.39843,-0.359375 0.73437,-0.359375 0.1836,0 0.375,0.03906 0.5625,0.125 0.1836,0.08203 0.36328,0.1875 0.53125,0.3125 z"
               transform="scale(1,-1)"
               id="path89"
               inkscape:connector-curvature="0" />
          </g>
        </g>
      </g>
    </g>
    <clipPath
       id="clip5">
      <rect
         width="416"
         height="372"
         id="rect92"
         x="0"
         y="0" />
    </clipPath>
    <g
       id="surface51"
       clip-path="url(#clip5)">
      <g
         clip-path="url(#clip6)"
         id="g95"
         style="clip-rule:nonzero">
        <g
           clip-path="url(#clip7)"
           id="g97"
           style="clip-rule:nonzero">
          <g
             clip-path="url(#clip8)"
             id="g99"
             style="clip-rule:nonzero">
            <use
               xlink:href="#surface52"
               id="use101"
               x="0"
               y="0"
               width="100%"
               height="100%" />
          </g>
        </g>
      </g>
    </g>
    <clipPath
       id="clip2">
      <rect
         width="416"
         height="372"
         id="rect104"
         x="0"
         y="0" />
    </clipPath>
    <g
       id="surface50"
       clip-path="url(#clip2)">
      <g
         clip-path="url(#clip3)"
         id="g107"
         style="clip-rule:nonzero">
        <g
           clip-path="url(#clip4)"
           id="g109"
           style="clip-rule:nonzero">
          <use
             xlink:href="#surface51"
             id="use111"
             x="0"
             y="0"
             width="100%"
             height="100%" />
        </g>
      </g>
    </g>
  </defs>
  <g
     style="clip-rule:nonzero"
     id="g114"
     clip-path="url(#clip1)"
     transform="translate(-2.4414064e-5,0)">
    <use
       height="100%"
       width="100%"
       y="0"
       x="0"
       id="use116"
       transform="translate(41,0)"
       xlink:href="#surface50" />
  </g>
  <path
     inkscape:connector-curvature="0"
     id="path118"
     d="m 120.65232,371.89453 256,0"
     style="fill:none;stroke:#000000;stroke-width:0.75;stroke-linecap:round;stroke-linejoin:round;stroke-miterlimit:10;stroke-opacity:1" />
  <path
     inkscape:connector-curvature="0"
     id="path120"
     d="m 120.65232,371.89453 0,7.20313"
     style="fill:none;stroke:#000000;stroke-width:0.75;stroke-linecap:round;stroke-linejoin:round;stroke-miterlimit:10;stroke-opacity:1" />
  <path
     inkscape:connector-curvature="0"
     id="path122"
     d="m 248.65232,371.89453 0,7.20313"
     style="fill:none;stroke:#000000;stroke-width:0.75;stroke-linecap:round;stroke-linejoin:round;stroke-miterlimit:10;stroke-opacity:1" />
  <path
     inkscape:connector-curvature="0"
     id="path124"
     d="m 376.65232,371.89453 0,7.20313"
     style="fill:none;stroke:#000000;stroke-width:0.75;stroke-linecap:round;stroke-linejoin:round;stroke-miterlimit:10;stroke-opacity:1" />
  <g
     id="g4541"
     transform="matrix(0,0.99999995,-1.0000001,0,525.83985,265.7856)">
    <path
       style="fill:#000000;fill-opacity:1;fill-rule:nonzero;stroke:none"
       d="m 124.60547,426.95703 -6.9375,0 0,2.59375 -0.9375,0 0,-6.23437 0.9375,0 0,2.60937 6.9375,0 z"
       id="path126"
       inkscape:connector-curvature="0" />
    <path
       style="fill:#000000;fill-opacity:1;fill-rule:nonzero;stroke:none"
       d="m 124.60547,423.69922 -5.70313,0 0,-0.85938 0.85938,0 c -0.40234,-0.22656 -0.67188,-0.4375 -0.79688,-0.625 -0.12109,-0.18359 -0.1875,-0.39062 -0.1875,-0.60937 0,-0.33203 0.10547,-0.66406 0.3125,-1 l 0.89063,0.32812 c -0.13281,0.24219 -0.20313,0.48047 -0.20313,0.71875 0,0.21094 0.0664,0.39844 0.1875,0.5625 0.125,0.16797 0.30469,0.28907 0.53125,0.35938 0.34375,0.10547 0.72266,0.15625 1.125,0.15625 l 2.98438,0 z"
       id="path128"
       inkscape:connector-curvature="0" />
    <path
       style="fill:#000000;fill-opacity:1;fill-rule:nonzero;stroke:none"
       d="m 123.90234,416.41016 c 0.30469,0.36718 0.51954,0.71484 0.64063,1.04687 0.12109,0.32422 0.1875,0.67969 0.1875,1.0625 0,0.625 -0.14844,1.11328 -0.45313,1.45313 -0.30859,0.33593 -0.70312,0.5 -1.17187,0.5 -0.27734,0 -0.53516,-0.0625 -0.76563,-0.1875 -0.22656,-0.13282 -0.41015,-0.30079 -0.54687,-0.5 -0.14453,-0.20704 -0.25391,-0.44141 -0.32813,-0.70313 -0.0508,-0.18359 -0.0977,-0.47266 -0.14062,-0.85937 -0.0898,-0.77735 -0.20703,-1.35157 -0.34375,-1.71875 -0.12109,-0.008 -0.20703,-0.0156 -0.25,-0.0156 -0.39453,0 -0.67188,0.0977 -0.82813,0.28125 -0.21484,0.24219 -0.32812,0.60547 -0.32812,1.09375 0,0.46094 0.082,0.80078 0.23437,1.01563 0.15625,0.21093 0.44141,0.36718 0.84375,0.46875 l -0.125,0.95312 c -0.40234,-0.082 -0.73437,-0.22266 -0.98437,-0.42187 -0.24609,-0.19532 -0.4375,-0.48438 -0.5625,-0.85938 -0.13281,-0.37109 -0.20313,-0.80469 -0.20313,-1.29687 0,-0.48829 0.0586,-0.88282 0.17188,-1.1875 0.11719,-0.30079 0.26172,-0.51954 0.4375,-0.65625 0.16797,-0.14454 0.38281,-0.25 0.64062,-0.3125 0.16797,-0.0274 0.47266,-0.0469 0.90625,-0.0469 l 1.28125,0 c 0.89844,0 1.46485,-0.0195 1.70313,-0.0625 0.24219,-0.0391 0.47266,-0.125 0.6875,-0.25 l 0,1.01563 c -0.19531,0.10546 -0.42969,0.16796 -0.70313,0.1875 z m -2.15625,0.0937 c 0.14844,0.34375 0.26954,0.87109 0.35938,1.57812 0.0625,0.39844 0.13281,0.67969 0.20312,0.84375 0.0625,0.15625 0.16797,0.28516 0.3125,0.375 0.13672,0.0937 0.28907,0.14063 0.45313,0.14063 0.26172,0 0.48047,-0.0977 0.65625,-0.29688 0.16797,-0.19531 0.25,-0.48437 0.25,-0.85937 0,-0.3711 -0.082,-0.70313 -0.25,-0.98438 -0.16406,-0.28906 -0.39063,-0.50781 -0.67188,-0.65625 -0.21484,-0.0898 -0.53906,-0.14062 -0.96875,-0.14062 z"
       id="path130"
       inkscape:connector-curvature="0" />
    <path
       style="fill:#000000;fill-opacity:1;fill-rule:nonzero;stroke:none"
       d="m 124.60547,410.32422 -0.71875,0 c 0.5625,0.35547 0.84375,0.88672 0.84375,1.59375 0,0.44922 -0.125,0.86719 -0.375,1.25 -0.24609,0.38672 -0.59766,0.68359 -1.04688,0.89062 -0.44531,0.21094 -0.96093,0.3125 -1.54687,0.3125 -0.57031,0 -1.08594,-0.0937 -1.54688,-0.28125 -0.46484,-0.19531 -0.82031,-0.48437 -1.0625,-0.85937 -0.24609,-0.3711 -0.375,-0.79688 -0.375,-1.26563 0,-0.33984 0.0742,-0.64843 0.21875,-0.92187 0.14844,-0.26953 0.33594,-0.48828 0.5625,-0.65625 l -2.82812,0 0,-0.96875 7.875,0 z m -2.84375,3.04687 c 0.73047,0 1.27734,-0.14843 1.64062,-0.45312 0.35547,-0.3086 0.53125,-0.67578 0.53125,-1.09375 0,-0.42578 -0.17187,-0.78516 -0.51562,-1.07813 -0.33984,-0.28906 -0.86719,-0.4375 -1.57813,-0.4375 -0.77734,0 -1.35156,0.15235 -1.71875,0.45313 -0.36328,0.29297 -0.54687,0.66406 -0.54687,1.10937 0,0.42969 0.17969,0.78907 0.53125,1.07813 0.34375,0.28125 0.89844,0.42187 1.65625,0.42187 z"
       id="path132"
       inkscape:connector-curvature="0" />
    <path
       style="fill:#000000;fill-opacity:1;fill-rule:nonzero;stroke:none"
       d="m 117.83984,407.89844 -1.10937,0 0,-0.96875 1.10937,0 z m 6.76563,0 -5.70313,0 0,-0.96875 5.70313,0 z"
       id="path134"
       inkscape:connector-curvature="0" />
    <path
       style="fill:#000000;fill-opacity:1;fill-rule:nonzero;stroke:none"
       d="m 123.74609,403.34766 0.84375,-0.125 c 0.0586,0.27343 0.0937,0.51171 0.0937,0.71875 0,0.35546 -0.0586,0.63281 -0.17187,0.82812 -0.11328,0.1875 -0.25781,0.32422 -0.4375,0.40625 -0.17578,0.0742 -0.55469,0.10938 -1.14063,0.10938 l -3.28125,0 0,0.71875 -0.75,0 0,-0.71875 -1.40625,0 -0.59375,-0.95313 2,0 0,-0.98437 0.75,0 0,0.98437 3.34375,0 c 0.27344,0 0.44922,-0.0156 0.53125,-0.0469 0.0742,-0.0391 0.13672,-0.0977 0.1875,-0.17188 0.043,-0.082 0.0625,-0.19141 0.0625,-0.32812 0,-0.11329 -0.008,-0.25782 -0.0312,-0.4375 z"
       id="path136"
       inkscape:connector-curvature="0" />
    <path
       style="fill:#000000;fill-opacity:1;fill-rule:nonzero;stroke:none"
       d="m 117.83984,402.39844 -1.10937,0 0,-0.96875 1.10937,0 z m 6.76563,0 -5.70313,0 0,-0.96875 5.70313,0 z"
       id="path138"
       inkscape:connector-curvature="0" />
    <path
       style="fill:#000000;fill-opacity:1;fill-rule:nonzero;stroke:none"
       d="m 121.74609,400.33203 c -1.05078,0 -1.83203,-0.29687 -2.34375,-0.89062 -0.41406,-0.48829 -0.625,-1.08594 -0.625,-1.79688 0,-0.77734 0.25782,-1.41406 0.76563,-1.90625 0.51172,-0.49609 1.22266,-0.75 2.125,-0.75 0.74219,0 1.32422,0.11328 1.75,0.32813 0.41797,0.21875 0.74219,0.54296 0.96875,0.96875 0.22656,0.41796 0.34375,0.87109 0.34375,1.35937 0,0.80469 -0.25391,1.45703 -0.76563,1.95313 -0.50781,0.49218 -1.25,0.73437 -2.21875,0.73437 z m 0,-1 c 0.74219,0 1.29297,-0.15625 1.65625,-0.46875 0.35547,-0.32031 0.53125,-0.72656 0.53125,-1.21875 0,-0.47656 -0.17968,-0.875 -0.54687,-1.1875 -0.36328,-0.32031 -0.92188,-0.48437 -1.67188,-0.48437 -0.69531,0 -1.22656,0.16406 -1.59375,0.48437 -0.36328,0.32422 -0.54687,0.72266 -0.54687,1.1875 0,0.49219 0.18359,0.89844 0.54687,1.21875 0.35547,0.3125 0.89844,0.46875 1.625,0.46875 z"
       id="path140"
       inkscape:connector-curvature="0" />
    <path
       style="fill:#000000;fill-opacity:1;fill-rule:nonzero;stroke:none"
       d="m 124.60547,393.85547 -5.70313,0 0,-0.875 0.8125,0 c -0.62109,-0.41406 -0.9375,-1.01953 -0.9375,-1.8125 0,-0.33985 0.0664,-0.66016 0.1875,-0.95313 0.11719,-0.28906 0.27735,-0.5039 0.48438,-0.64062 0.19922,-0.14453 0.43359,-0.25 0.70312,-0.3125 0.1875,-0.0274 0.50782,-0.0469 0.95313,-0.0469 l 3.5,0 0,0.96875 -3.46875,0 c -0.39453,0 -0.6875,0.0391 -0.875,0.10938 -0.19531,0.0742 -0.35156,0.21094 -0.46875,0.40625 -0.12109,0.1875 -0.1875,0.41406 -0.1875,0.67187 0,0.40625 0.13281,0.76172 0.39062,1.0625 0.26172,0.30469 0.76172,0.45313 1.5,0.45313 l 3.10938,0 z"
       id="path142"
       inkscape:connector-curvature="0" />
    <path
       style="fill:#000000;fill-opacity:1;fill-rule:nonzero;stroke:none"
       d="m 123.90234,384.00391 c 0.30469,0.36718 0.51954,0.71484 0.64063,1.04687 0.12109,0.32422 0.1875,0.67969 0.1875,1.0625 0,0.625 -0.14844,1.11328 -0.45313,1.45313 -0.30859,0.33593 -0.70312,0.5 -1.17187,0.5 -0.27734,0 -0.53516,-0.0625 -0.76563,-0.1875 -0.22656,-0.13282 -0.41015,-0.30079 -0.54687,-0.5 -0.14453,-0.20704 -0.25391,-0.44141 -0.32813,-0.70313 -0.0508,-0.18359 -0.0977,-0.47266 -0.14062,-0.85937 -0.0898,-0.77735 -0.20703,-1.35157 -0.34375,-1.71875 -0.12109,-0.008 -0.20703,-0.0156 -0.25,-0.0156 -0.39453,0 -0.67188,0.0977 -0.82813,0.28125 -0.21484,0.24219 -0.32812,0.60547 -0.32812,1.09375 0,0.46094 0.082,0.80078 0.23437,1.01563 0.15625,0.21093 0.44141,0.36718 0.84375,0.46875 l -0.125,0.95312 c -0.40234,-0.082 -0.73437,-0.22266 -0.98437,-0.42187 -0.24609,-0.19532 -0.4375,-0.48438 -0.5625,-0.85938 -0.13281,-0.37109 -0.20313,-0.80469 -0.20313,-1.29687 0,-0.48829 0.0586,-0.88282 0.17188,-1.1875 0.11719,-0.30079 0.26172,-0.51954 0.4375,-0.65625 0.16797,-0.14454 0.38281,-0.25 0.64062,-0.3125 0.16797,-0.0274 0.47266,-0.0469 0.90625,-0.0469 l 1.28125,0 c 0.89844,0 1.46485,-0.0195 1.70313,-0.0625 0.24219,-0.0391 0.47266,-0.125 0.6875,-0.25 l 0,1.01563 c -0.19531,0.10546 -0.42969,0.16796 -0.70313,0.1875 z m -2.15625,0.0937 c 0.14844,0.34375 0.26954,0.87109 0.35938,1.57812 0.0625,0.39844 0.13281,0.67969 0.20312,0.84375 0.0625,0.15625 0.16797,0.28516 0.3125,0.375 0.13672,0.0937 0.28907,0.14063 0.45313,0.14063 0.26172,0 0.48047,-0.0977 0.65625,-0.29688 0.16797,-0.19531 0.25,-0.48437 0.25,-0.85937 0,-0.3711 -0.082,-0.70313 -0.25,-0.98438 -0.16406,-0.28906 -0.39063,-0.50781 -0.67188,-0.65625 -0.21484,-0.0898 -0.53906,-0.14062 -0.96875,-0.14062 z"
       id="path144"
       inkscape:connector-curvature="0" />
    <path
       style="fill:#000000;fill-opacity:1;fill-rule:nonzero;stroke:none"
       d="m 116.73047,380.66797 7.875,0 0,0.96875 -7.875,0 z"
       id="path146"
       inkscape:connector-curvature="0" />
  </g>
  <g
     id="g4554"
     transform="matrix(0,0.99999995,-1.0000001,0,651.83401,137.92621)">
    <path
       style="fill:#000000;fill-opacity:1;fill-rule:nonzero;stroke:none"
       d="m 250.07422,424.16797 -0.0781,-0.98438 c 0.38672,-0.0391 0.71094,-0.14453 0.96875,-0.3125 0.25,-0.17578 0.45703,-0.4414 0.60938,-0.79687 0.15625,-0.35156 0.23437,-0.75391 0.23437,-1.20313 0,-0.40234 -0.0547,-0.75781 -0.17187,-1.0625 -0.1211,-0.30078 -0.28516,-0.52343 -0.48438,-0.67187 -0.20703,-0.15235 -0.4375,-0.23438 -0.6875,-0.23438 -0.24609,0 -0.46093,0.0742 -0.64062,0.21875 -0.1836,0.14844 -0.34375,0.38672 -0.46875,0.71875 -0.082,0.21094 -0.20703,0.67969 -0.375,1.40625 -0.17578,0.71875 -0.34375,1.22657 -0.5,1.51563 -0.19531,0.375 -0.44141,0.66015 -0.73438,0.84375 -0.28906,0.17969 -0.61718,0.26562 -0.98437,0.26562 -0.39453,0 -0.76563,-0.10937 -1.10938,-0.32812 -0.33984,-0.22656 -0.60156,-0.55469 -0.78125,-0.98438 -0.18359,-0.43359 -0.28125,-0.92187 -0.28125,-1.45312 0,-0.58203 0.10157,-1.09766 0.29688,-1.54688 0.1875,-0.44531 0.46484,-0.78906 0.82812,-1.03125 0.36719,-0.23828 0.77735,-0.36718 1.23438,-0.39062 l 0.0781,1 c -0.49609,0.0547 -0.875,0.23828 -1.125,0.54687 -0.25781,0.3125 -0.39062,0.77344 -0.39062,1.375 0,0.625 0.12109,1.08594 0.35937,1.375 0.23047,0.29297 0.50782,0.4375 0.82813,0.4375 0.28125,0 0.51953,-0.10156 0.70312,-0.3125 0.17969,-0.19531 0.36719,-0.71875 0.5625,-1.5625 0.1875,-0.85156 0.35547,-1.4375 0.5,-1.75 0.21094,-0.45703 0.47657,-0.79687 0.79688,-1.01562 0.32422,-0.21485 0.69922,-0.32813 1.125,-0.32813 0.41797,0 0.8164,0.1211 1.1875,0.35938 0.36719,0.24219 0.65234,0.58984 0.85937,1.04687 0.20703,0.44922 0.3125,0.95703 0.3125,1.51563 0,0.71094 -0.10547,1.30469 -0.3125,1.78125 -0.20703,0.48047 -0.51953,0.86328 -0.9375,1.14062 -0.41406,0.27344 -0.89062,0.41407 -1.42187,0.42188 z"
       id="path148"
       inkscape:connector-curvature="0" />
    <path
       style="fill:#000000;fill-opacity:1;fill-rule:nonzero;stroke:none"
       d="m 245.83984,416.59766 -1.10937,0 0,-0.96875 1.10937,0 z m 6.76563,0 -5.70313,0 0,-0.96875 5.70313,0 z"
       id="path150"
       inkscape:connector-curvature="0" />
    <path
       style="fill:#000000;fill-opacity:1;fill-rule:nonzero;stroke:none"
       d="m 252.60547,414.16797 -5.70313,0 0,-0.875 0.79688,0 c -0.27735,-0.17578 -0.50391,-0.41016 -0.67188,-0.70313 -0.16406,-0.30078 -0.25,-0.64062 -0.25,-1.01562 0,-0.42578 0.0898,-0.77344 0.26563,-1.04688 0.16797,-0.26953 0.41406,-0.46093 0.73437,-0.57812 -0.66406,-0.44531 -1,-1.03125 -1,-1.75 0,-0.57031 0.16016,-1.00781 0.46875,-1.3125 0.3125,-0.30078 0.79297,-0.45313 1.4375,-0.45313 l 3.92188,0 0,0.95313 -3.59375,0 c -0.38281,0 -0.66016,0.0351 -0.82813,0.0937 -0.17578,0.0625 -0.3164,0.17969 -0.42187,0.34375 -0.10156,0.16797 -0.15625,0.36328 -0.15625,0.57812 0,0.40625 0.13672,0.7461 0.40625,1.01563 0.27344,0.26172 0.69922,0.39062 1.28125,0.39062 l 3.3125,0 0,0.96875 -3.70313,0 c -0.42578,0 -0.75,0.082 -0.96875,0.23438 -0.21484,0.15625 -0.32812,0.41406 -0.32812,0.76562 0,0.27344 0.0742,0.52735 0.21875,0.76563 0.14844,0.23047 0.36328,0.39844 0.64062,0.5 0.27344,0.10547 0.66797,0.15625 1.1875,0.15625 l 2.95313,0 z"
       id="path152"
       inkscape:connector-curvature="0" />
    <path
       style="fill:#000000;fill-opacity:1;fill-rule:nonzero;stroke:none"
       d="m 245.83984,404.99219 -1.10937,0 0,-0.96875 1.10937,0 z m 6.76563,0 -5.70313,0 0,-0.96875 5.70313,0 z"
       id="path154"
       inkscape:connector-curvature="0" />
    <path
       style="fill:#000000;fill-opacity:1;fill-rule:nonzero;stroke:none"
       d="m 244.73047,401.61328 7.875,0 0,0.96875 -7.875,0 z"
       id="path156"
       inkscape:connector-curvature="0" />
    <path
       style="fill:#000000;fill-opacity:1;fill-rule:nonzero;stroke:none"
       d="m 251.90234,396.38672 c 0.30469,0.36719 0.51953,0.71484 0.64063,1.04687 0.12109,0.32422 0.1875,0.67969 0.1875,1.0625 0,0.625 -0.14844,1.11328 -0.45313,1.45313 -0.30859,0.33594 -0.70312,0.5 -1.17187,0.5 -0.27735,0 -0.53516,-0.0625 -0.76563,-0.1875 -0.22656,-0.13281 -0.41015,-0.30078 -0.54687,-0.5 -0.14453,-0.20703 -0.25391,-0.44141 -0.32813,-0.70313 -0.0508,-0.18359 -0.0977,-0.47265 -0.14062,-0.85937 -0.0898,-0.77735 -0.20703,-1.35156 -0.34375,-1.71875 -0.1211,-0.008 -0.20703,-0.0156 -0.25,-0.0156 -0.39453,0 -0.67188,0.0977 -0.82813,0.28125 -0.21484,0.24219 -0.32812,0.60547 -0.32812,1.09375 0,0.46094 0.082,0.80078 0.23437,1.01563 0.15625,0.21094 0.44141,0.36719 0.84375,0.46875 l -0.125,0.95312 c -0.40234,-0.082 -0.73437,-0.22265 -0.98437,-0.42187 -0.2461,-0.19531 -0.4375,-0.48438 -0.5625,-0.85938 -0.13281,-0.37109 -0.20313,-0.80468 -0.20313,-1.29687 0,-0.48828 0.0586,-0.88281 0.17188,-1.1875 0.11719,-0.30078 0.26172,-0.51953 0.4375,-0.65625 0.16797,-0.14453 0.38281,-0.25 0.64062,-0.3125 0.16797,-0.0274 0.47266,-0.0469 0.90625,-0.0469 l 1.28125,0 c 0.89844,0 1.46485,-0.0195 1.70313,-0.0625 0.24219,-0.0391 0.47265,-0.125 0.6875,-0.25 l 0,1.01563 c -0.19531,0.10547 -0.42969,0.16797 -0.70313,0.1875 z m -2.15625,0.0937 c 0.14844,0.34375 0.26953,0.87109 0.35938,1.57812 0.0625,0.39844 0.13281,0.67969 0.20312,0.84375 0.0625,0.15625 0.16797,0.28516 0.3125,0.375 0.13672,0.0937 0.28907,0.14063 0.45313,0.14063 0.26172,0 0.48047,-0.0977 0.65625,-0.29688 0.16797,-0.19531 0.25,-0.48437 0.25,-0.85937 0,-0.3711 -0.082,-0.70313 -0.25,-0.98438 -0.16406,-0.28906 -0.39063,-0.50781 -0.67188,-0.65625 -0.21484,-0.0898 -0.53906,-0.14062 -0.96875,-0.14062 z"
       id="path158"
       inkscape:connector-curvature="0" />
    <path
       style="fill:#000000;fill-opacity:1;fill-rule:nonzero;stroke:none"
       d="m 252.60547,394.00781 -5.70313,0 0,-0.85937 0.85938,0 c -0.40235,-0.22657 -0.67188,-0.4375 -0.79688,-0.625 -0.12109,-0.1836 -0.1875,-0.39063 -0.1875,-0.60938 0,-0.33203 0.10547,-0.66406 0.3125,-1 l 0.89063,0.32813 c -0.13281,0.24218 -0.20313,0.48047 -0.20313,0.71875 0,0.21093 0.0664,0.39843 0.1875,0.5625 0.125,0.16797 0.30469,0.28906 0.53125,0.35937 0.34375,0.10547 0.72266,0.15625 1.125,0.15625 l 2.98438,0 z"
       id="path160"
       inkscape:connector-curvature="0" />
    <path
       style="fill:#000000;fill-opacity:1;fill-rule:nonzero;stroke:none"
       d="m 245.83984,390.16406 -1.10937,0 0,-0.96875 1.10937,0 z m 6.76563,0 -5.70313,0 0,-0.96875 5.70313,0 z"
       id="path162"
       inkscape:connector-curvature="0" />
    <path
       style="fill:#000000;fill-opacity:1;fill-rule:nonzero;stroke:none"
       d="m 251.74609,385.61328 0.84375,-0.125 c 0.0586,0.27344 0.0937,0.51172 0.0937,0.71875 0,0.35547 -0.0586,0.63281 -0.17187,0.82813 -0.11328,0.1875 -0.25781,0.32421 -0.4375,0.40625 -0.17578,0.0742 -0.55469,0.10937 -1.14063,0.10937 l -3.28125,0 0,0.71875 -0.75,0 0,-0.71875 -1.40625,0 -0.59375,-0.95312 2,0 0,-0.98438 0.75,0 0,0.98438 3.34375,0 c 0.27344,0 0.44922,-0.0156 0.53125,-0.0469 0.0742,-0.0391 0.13672,-0.0977 0.1875,-0.17187 0.043,-0.082 0.0625,-0.19141 0.0625,-0.32813 0,-0.11328 -0.008,-0.25781 -0.0312,-0.4375 z"
       id="path164"
       inkscape:connector-curvature="0" />
    <path
       style="fill:#000000;fill-opacity:1;fill-rule:nonzero;stroke:none"
       d="m 254.80859,384.71094 -0.90625,0.10937 c 0.0508,-0.20703 0.0781,-0.39062 0.0781,-0.54687 0,-0.21485 -0.0391,-0.39063 -0.10938,-0.51563 -0.0742,-0.13281 -0.17578,-0.23828 -0.29687,-0.3125 -0.0937,-0.0586 -0.33594,-0.16015 -0.71875,-0.29687 -0.0547,-0.0195 -0.13281,-0.0508 -0.23438,-0.0937 l -5.71875,2.17187 0,-1.04687 3.29688,-1.1875 c 0.42969,-0.15235 0.87109,-0.28907 1.32812,-0.40625 -0.44531,-0.11328 -0.8789,-0.25 -1.29687,-0.40625 l -3.32813,-1.21875 0,-0.96875 5.79688,2.17187 c 0.62109,0.23047 1.05469,0.41406 1.29687,0.54688 0.32032,0.16797 0.55469,0.36718 0.70313,0.59375 0.14453,0.21875 0.21875,0.48047 0.21875,0.78125 0,0.1875 -0.0391,0.39843 -0.10938,0.625 z"
       id="path166"
       inkscape:connector-curvature="0" />
  </g>
  <g
     id="g4566"
     transform="matrix(0,0.99999995,-1.0000001,0,783.14062,9.9262164)">
    <path
       style="fill:#000000;fill-opacity:1;fill-rule:nonzero;stroke:none"
       d="m 378.07422,430.28906 -0.0781,-0.98437 c 0.38672,-0.0391 0.71094,-0.14453 0.96875,-0.3125 0.25,-0.17578 0.45703,-0.44141 0.60938,-0.79688 0.15625,-0.35156 0.23437,-0.7539 0.23437,-1.20312 0,-0.40235 -0.0547,-0.75782 -0.17187,-1.0625 -0.1211,-0.30078 -0.28516,-0.52344 -0.48438,-0.67188 -0.20703,-0.15234 -0.4375,-0.23437 -0.6875,-0.23437 -0.24609,0 -0.46093,0.0742 -0.64062,0.21875 -0.1836,0.14843 -0.34375,0.38672 -0.46875,0.71875 -0.082,0.21093 -0.20703,0.67968 -0.375,1.40625 -0.17578,0.71875 -0.34375,1.22656 -0.5,1.51562 -0.19531,0.375 -0.44141,0.66016 -0.73438,0.84375 -0.28906,0.17969 -0.61718,0.26563 -0.98437,0.26563 -0.39453,0 -0.76563,-0.10938 -1.10938,-0.32813 -0.33984,-0.22656 -0.60156,-0.55469 -0.78125,-0.98437 -0.18359,-0.4336 -0.28125,-0.92188 -0.28125,-1.45313 0,-0.58203 0.10157,-1.09765 0.29688,-1.54687 0.1875,-0.44532 0.46484,-0.78907 0.82812,-1.03125 0.36719,-0.23828 0.77735,-0.36719 1.23438,-0.39063 l 0.0781,1 c -0.49609,0.0547 -0.875,0.23828 -1.125,0.54688 -0.25781,0.3125 -0.39062,0.77343 -0.39062,1.375 0,0.625 0.12109,1.08593 0.35937,1.375 0.23047,0.29297 0.50782,0.4375 0.82813,0.4375 0.28125,0 0.51953,-0.10157 0.70312,-0.3125 0.17969,-0.19532 0.36719,-0.71875 0.5625,-1.5625 0.1875,-0.85157 0.35547,-1.4375 0.5,-1.75 0.21094,-0.45703 0.47657,-0.79688 0.79688,-1.01563 0.32422,-0.21484 0.69922,-0.32812 1.125,-0.32812 0.41797,0 0.8164,0.12109 1.1875,0.35937 0.36719,0.24219 0.65234,0.58985 0.85937,1.04688 0.20703,0.44922 0.3125,0.95703 0.3125,1.51562 0,0.71094 -0.10547,1.30469 -0.3125,1.78125 -0.20703,0.48047 -0.51953,0.86328 -0.9375,1.14063 -0.41406,0.27343 -0.89062,0.41406 -1.42187,0.42187 z"
       id="path168"
       inkscape:connector-curvature="0" />
    <path
       style="fill:#000000;fill-opacity:1;fill-rule:nonzero;stroke:none"
       d="m 373.83984,422.71484 -1.10937,0 0,-0.96875 1.10937,0 z m 6.76563,0 -5.70313,0 0,-0.96875 5.70313,0 z"
       id="path170"
       inkscape:connector-curvature="0" />
    <path
       style="fill:#000000;fill-opacity:1;fill-rule:nonzero;stroke:none"
       d="m 380.60547,420.28906 -5.70313,0 0,-0.875 0.79688,0 c -0.27735,-0.17578 -0.50391,-0.41015 -0.67188,-0.70312 -0.16406,-0.30078 -0.25,-0.64063 -0.25,-1.01563 0,-0.42578 0.0899,-0.77344 0.26563,-1.04687 0.16797,-0.26953 0.41406,-0.46094 0.73437,-0.57813 -0.66406,-0.44531 -1,-1.03125 -1,-1.75 0,-0.57031 0.16016,-1.00781 0.46875,-1.3125 0.3125,-0.30078 0.79297,-0.45312 1.4375,-0.45312 l 3.92188,0 0,0.95312 -3.59375,0 c -0.38281,0 -0.66016,0.0352 -0.82813,0.0937 -0.17578,0.0625 -0.3164,0.17969 -0.42187,0.34375 -0.10156,0.16797 -0.15625,0.36328 -0.15625,0.57813 0,0.40625 0.13672,0.74609 0.40625,1.01562 0.27344,0.26172 0.69922,0.39063 1.28125,0.39063 l 3.3125,0 0,0.96875 -3.70313,0 c -0.42578,0 -0.75,0.082 -0.96875,0.23437 -0.21484,0.15625 -0.32812,0.41406 -0.32812,0.76563 0,0.27343 0.0742,0.52734 0.21875,0.76562 0.14844,0.23047 0.36328,0.39844 0.64062,0.5 0.27344,0.10547 0.66797,0.15625 1.1875,0.15625 l 2.95313,0 z"
       id="path172"
       inkscape:connector-curvature="0" />
    <path
       style="fill:#000000;fill-opacity:1;fill-rule:nonzero;stroke:none"
       d="m 373.83984,411.10937 -1.10937,0 0,-0.96875 1.10937,0 z m 6.76563,0 -5.70313,0 0,-0.96875 5.70313,0 z"
       id="path174"
       inkscape:connector-curvature="0" />
    <path
       style="fill:#000000;fill-opacity:1;fill-rule:nonzero;stroke:none"
       d="m 372.73047,407.73047 7.875,0 0,0.96875 -7.875,0 z"
       id="path176"
       inkscape:connector-curvature="0" />
    <path
       style="fill:#000000;fill-opacity:1;fill-rule:nonzero;stroke:none"
       d="m 379.90234,402.50781 c 0.30469,0.36719 0.51953,0.71485 0.64063,1.04688 0.12109,0.32422 0.1875,0.67968 0.1875,1.0625 0,0.625 -0.14844,1.11328 -0.45313,1.45312 -0.30859,0.33594 -0.70312,0.5 -1.17187,0.5 -0.27735,0 -0.53516,-0.0625 -0.76563,-0.1875 -0.22656,-0.13281 -0.41015,-0.30078 -0.54687,-0.5 -0.14453,-0.20703 -0.25391,-0.4414 -0.32813,-0.70312 -0.0508,-0.1836 -0.0976,-0.47266 -0.14062,-0.85938 -0.0899,-0.77734 -0.20703,-1.35156 -0.34375,-1.71875 -0.1211,-0.008 -0.20703,-0.0156 -0.25,-0.0156 -0.39453,0 -0.67188,0.0976 -0.82813,0.28125 -0.21484,0.24218 -0.32812,0.60547 -0.32812,1.09375 0,0.46093 0.082,0.80078 0.23437,1.01562 0.15625,0.21094 0.44141,0.36719 0.84375,0.46875 l -0.125,0.95313 c -0.40234,-0.082 -0.73437,-0.22266 -0.98437,-0.42188 -0.2461,-0.19531 -0.4375,-0.48437 -0.5625,-0.85937 -0.13281,-0.3711 -0.20313,-0.80469 -0.20313,-1.29688 0,-0.48828 0.0586,-0.88281 0.17188,-1.1875 0.11719,-0.30078 0.26172,-0.51953 0.4375,-0.65625 0.16797,-0.14453 0.38281,-0.25 0.64062,-0.3125 0.16797,-0.0273 0.47266,-0.0469 0.90625,-0.0469 l 1.28125,0 c 0.89844,0 1.46485,-0.0195 1.70313,-0.0625 0.24219,-0.0391 0.47265,-0.125 0.6875,-0.25 l 0,1.01562 c -0.19531,0.10547 -0.42969,0.16797 -0.70313,0.1875 z m -2.15625,0.0937 c 0.14844,0.34375 0.26953,0.8711 0.35938,1.57813 0.0625,0.39843 0.13281,0.67968 0.20312,0.84375 0.0625,0.15625 0.16797,0.28515 0.3125,0.375 0.13672,0.0937 0.28907,0.14062 0.45313,0.14062 0.26172,0 0.48047,-0.0976 0.65625,-0.29687 0.16797,-0.19532 0.25,-0.48438 0.25,-0.85938 0,-0.37109 -0.082,-0.70312 -0.25,-0.98437 -0.16406,-0.28907 -0.39063,-0.50782 -0.67188,-0.65625 -0.21484,-0.0899 -0.53906,-0.14063 -0.96875,-0.14063 z"
       id="path178"
       inkscape:connector-curvature="0" />
    <path
       style="fill:#000000;fill-opacity:1;fill-rule:nonzero;stroke:none"
       d="m 380.60547,400.125 -5.70313,0 0,-0.85938 0.85938,0 c -0.40235,-0.22656 -0.67188,-0.4375 -0.79688,-0.625 -0.12109,-0.18359 -0.1875,-0.39062 -0.1875,-0.60937 0,-0.33203 0.10547,-0.66406 0.3125,-1 l 0.89063,0.32812 c -0.13281,0.24219 -0.20313,0.48047 -0.20313,0.71875 0,0.21094 0.0664,0.39844 0.1875,0.5625 0.125,0.16797 0.30469,0.28907 0.53125,0.35938 0.34375,0.10547 0.72266,0.15625 1.125,0.15625 l 2.98438,0 z"
       id="path180"
       inkscape:connector-curvature="0" />
    <path
       style="fill:#000000;fill-opacity:1;fill-rule:nonzero;stroke:none"
       d="m 373.83984,396.28125 -1.10937,0 0,-0.96875 1.10937,0 z m 6.76563,0 -5.70313,0 0,-0.96875 5.70313,0 z"
       id="path182"
       inkscape:connector-curvature="0" />
    <path
       style="fill:#000000;fill-opacity:1;fill-rule:nonzero;stroke:none"
       d="m 379.74609,391.73047 0.84375,-0.125 c 0.0586,0.27344 0.0937,0.51172 0.0937,0.71875 0,0.35547 -0.0586,0.63281 -0.17187,0.82812 -0.11328,0.1875 -0.25781,0.32422 -0.4375,0.40625 -0.17578,0.0742 -0.55469,0.10938 -1.14063,0.10938 l -3.28125,0 0,0.71875 -0.75,0 0,-0.71875 -1.40625,0 -0.59375,-0.95313 2,0 0,-0.98437 0.75,0 0,0.98437 3.34375,0 c 0.27344,0 0.44922,-0.0156 0.53125,-0.0469 0.0742,-0.0391 0.13672,-0.0977 0.1875,-0.17188 0.043,-0.082 0.0625,-0.1914 0.0625,-0.32812 0,-0.11328 -0.008,-0.25781 -0.0312,-0.4375 z"
       id="path184"
       inkscape:connector-curvature="0" />
    <path
       style="fill:#000000;fill-opacity:1;fill-rule:nonzero;stroke:none"
       d="m 382.80859,390.82812 -0.90625,0.10938 c 0.0508,-0.20703 0.0781,-0.39063 0.0781,-0.54688 0,-0.21484 -0.0391,-0.39062 -0.10938,-0.51562 -0.0742,-0.13281 -0.17578,-0.23828 -0.29687,-0.3125 -0.0937,-0.0586 -0.33594,-0.16016 -0.71875,-0.29688 -0.0547,-0.0195 -0.13281,-0.0508 -0.23438,-0.0937 l -5.71875,2.17188 0,-1.04688 3.29688,-1.1875 c 0.42969,-0.15234 0.87109,-0.28906 1.32812,-0.40625 -0.44531,-0.11328 -0.8789,-0.25 -1.29687,-0.40625 l -3.32813,-1.21875 0,-0.96875 5.79688,2.17188 c 0.62109,0.23047 1.05469,0.41406 1.29687,0.54687 0.32032,0.16797 0.55469,0.36719 0.70313,0.59375 0.14453,0.21875 0.21875,0.48047 0.21875,0.78125 0,0.1875 -0.0391,0.39844 -0.10938,0.625 z"
       id="path186"
       inkscape:connector-curvature="0" />
    <path
       style="fill:#000000;fill-opacity:1;fill-rule:nonzero;stroke:none"
       d="m 379.68359,380.48437 0.92188,0 0,5.20313 c -0.22656,0 -0.45313,-0.0391 -0.67188,-0.125 -0.35156,-0.12109 -0.70312,-0.33203 -1.04687,-0.625 -0.33985,-0.28906 -0.73828,-0.71094 -1.1875,-1.26563 -0.70703,-0.85156 -1.26563,-1.42968 -1.67188,-1.73437 -0.40234,-0.30078 -0.78906,-0.45313 -1.15625,-0.45313 -0.38281,0 -0.70703,0.13672 -0.96875,0.40625 -0.26953,0.27344 -0.40625,0.63282 -0.40625,1.07813 0,0.46094 0.14453,0.83203 0.42188,1.10937 0.28125,0.28125 0.66797,0.42188 1.15625,0.42188 l -0.0937,1 c -0.73828,-0.0703 -1.30078,-0.32813 -1.6875,-0.76563 -0.39453,-0.44531 -0.59375,-1.04687 -0.59375,-1.79687 0,-0.74609 0.21094,-1.34375 0.625,-1.78125 0.41797,-0.44531 0.9414,-0.67188 1.5625,-0.67188 0.3125,0 0.6289,0.0703 0.9375,0.20313 0.30469,0.125 0.62109,0.33984 0.95312,0.64062 0.33594,0.29297 0.80078,0.78907 1.39063,1.48438 0.48047,0.58594 0.80859,0.96094 0.98437,1.125 0.17969,0.15625 0.35547,0.29297 0.53125,0.40625 z"
       id="path188"
       inkscape:connector-curvature="0" />
  </g>
  <path
     inkscape:connector-curvature="0"
     id="path190"
     d="m 41.292945,361.41406 0,-304.628904"
     style="fill:none;stroke:#000000;stroke-width:0.75;stroke-linecap:round;stroke-linejoin:round;stroke-miterlimit:10;stroke-opacity:1" />
  <path
     inkscape:connector-curvature="0"
     id="path192"
     d="m 41.292945,361.41406 -7.199219,0"
     style="fill:none;stroke:#000000;stroke-width:0.75;stroke-linecap:round;stroke-linejoin:round;stroke-miterlimit:10;stroke-opacity:1" />
  <path
     inkscape:connector-curvature="0"
     id="path194"
     d="m 41.292945,285.25781 -7.199219,0"
     style="fill:none;stroke:#000000;stroke-width:0.75;stroke-linecap:round;stroke-linejoin:round;stroke-miterlimit:10;stroke-opacity:1" />
  <path
     inkscape:connector-curvature="0"
     id="path196"
     d="m 41.292945,209.10547 -7.199219,0"
     style="fill:none;stroke:#000000;stroke-width:0.75;stroke-linecap:round;stroke-linejoin:round;stroke-miterlimit:10;stroke-opacity:1" />
  <path
     inkscape:connector-curvature="0"
     id="path198"
     d="m 41.292945,132.94531 -7.199219,0"
     style="fill:none;stroke:#000000;stroke-width:0.75;stroke-linecap:round;stroke-linejoin:round;stroke-miterlimit:10;stroke-opacity:1" />
  <path
     inkscape:connector-curvature="0"
     id="path200"
     d="m 41.292945,56.785156 -7.199219,0"
     style="fill:none;stroke:#000000;stroke-width:0.75;stroke-linecap:round;stroke-linejoin:round;stroke-miterlimit:10;stroke-opacity:1" />
  <path
     inkscape:connector-curvature="0"
     id="path202"
     d="m 12.05857,361.47656 c 0,-0.92578 0.09375,-1.67187 0.28125,-2.23437 0.195312,-0.57032 0.484375,-1.00782 0.859375,-1.3125 0.382812,-0.3086 0.863281,-0.46875 1.4375,-0.46875 0.414062,0 0.78125,0.0898 1.09375,0.26562 0.320312,0.16797 0.585937,0.41406 0.796875,0.73438 0.207031,0.3125 0.367187,0.70703 0.484375,1.17187 0.121094,0.46094 0.1875,1.07422 0.1875,1.84375 0,0.92969 -0.101563,1.67969 -0.296875,2.25 -0.1875,0.5625 -0.472656,1.00391 -0.84375,1.3125 -0.375,0.3125 -0.851563,0.46875 -1.421875,0.46875 -0.761719,0 -1.363281,-0.27344 -1.796875,-0.82812 -0.523438,-0.65235 -0.78125,-1.72266 -0.78125,-3.20313 z m 1,0 c 0,1.30469 0.148437,2.16797 0.453125,2.59375 0.300781,0.42969 0.675781,0.64063 1.125,0.64063 0.433594,0 0.804687,-0.21094 1.109375,-0.64063 0.300781,-0.43359 0.453125,-1.30078 0.453125,-2.59375 0,-1.28906 -0.152344,-2.14844 -0.453125,-2.57812 -0.304688,-0.42578 -0.679688,-0.64063 -1.125,-0.64063 -0.449219,0 -0.804688,0.19141 -1.0625,0.5625 -0.335938,0.48047 -0.5,1.36719 -0.5,2.65625 z"
     style="fill:#000000;fill-opacity:1;fill-rule:nonzero;stroke:none" />
  <path
     inkscape:connector-curvature="0"
     id="path204"
     d="m 18.722632,365.36719 0,-1.09375 1.09375,0 0,1.09375 z"
     style="fill:#000000;fill-opacity:1;fill-rule:nonzero;stroke:none" />
  <path
     inkscape:connector-curvature="0"
     id="path206"
     d="m 21.230445,361.47656 c 0,-0.92578 0.09375,-1.67187 0.28125,-2.23437 0.195312,-0.57032 0.484375,-1.00782 0.859375,-1.3125 0.382812,-0.3086 0.863281,-0.46875 1.4375,-0.46875 0.414062,0 0.78125,0.0898 1.09375,0.26562 0.320312,0.16797 0.585937,0.41406 0.796875,0.73438 0.207031,0.3125 0.367187,0.70703 0.484375,1.17187 0.121094,0.46094 0.1875,1.07422 0.1875,1.84375 0,0.92969 -0.101563,1.67969 -0.296875,2.25 -0.1875,0.5625 -0.472656,1.00391 -0.84375,1.3125 -0.375,0.3125 -0.851563,0.46875 -1.421875,0.46875 -0.761719,0 -1.363281,-0.27344 -1.796875,-0.82812 -0.523438,-0.65235 -0.78125,-1.72266 -0.78125,-3.20313 z m 1,0 c 0,1.30469 0.148437,2.16797 0.453125,2.59375 0.300781,0.42969 0.675781,0.64063 1.125,0.64063 0.433594,0 0.804687,-0.21094 1.109375,-0.64063 0.300781,-0.43359 0.453125,-1.30078 0.453125,-2.59375 0,-1.28906 -0.152344,-2.14844 -0.453125,-2.57812 -0.304688,-0.42578 -0.679688,-0.64063 -1.125,-0.64063 -0.449219,0 -0.804688,0.19141 -1.0625,0.5625 -0.335938,0.48047 -0.5,1.36719 -0.5,2.65625 z"
     style="fill:#000000;fill-opacity:1;fill-rule:nonzero;stroke:none" />
  <path
     inkscape:connector-curvature="0"
     id="path208"
     d="m 12.05857,285.31641 c 0,-0.92579 0.09375,-1.67188 0.28125,-2.23438 0.195312,-0.57031 0.484375,-1.00781 0.859375,-1.3125 0.382812,-0.30859 0.863281,-0.46875 1.4375,-0.46875 0.414062,0 0.78125,0.0898 1.09375,0.26563 0.320312,0.16796 0.585937,0.41406 0.796875,0.73437 0.207031,0.3125 0.367187,0.70703 0.484375,1.17188 0.121094,0.46093 0.1875,1.07421 0.1875,1.84375 0,0.92968 -0.101563,1.67968 -0.296875,2.25 -0.1875,0.5625 -0.472656,1.0039 -0.84375,1.3125 -0.375,0.3125 -0.851563,0.46875 -1.421875,0.46875 -0.761719,0 -1.363281,-0.27344 -1.796875,-0.82813 -0.523438,-0.65234 -0.78125,-1.72266 -0.78125,-3.20312 z m 1,0 c 0,1.30468 0.148437,2.16796 0.453125,2.59375 0.300781,0.42968 0.675781,0.64062 1.125,0.64062 0.433594,0 0.804687,-0.21094 1.109375,-0.64062 0.300781,-0.4336 0.453125,-1.30079 0.453125,-2.59375 0,-1.28907 -0.152344,-2.14844 -0.453125,-2.57813 -0.304688,-0.42578 -0.679688,-0.64062 -1.125,-0.64062 -0.449219,0 -0.804688,0.1914 -1.0625,0.5625 -0.335938,0.48046 -0.5,1.36718 -0.5,2.65625 z"
     style="fill:#000000;fill-opacity:1;fill-rule:nonzero;stroke:none" />
  <path
     inkscape:connector-curvature="0"
     id="path210"
     d="m 18.722632,289.20703 0,-1.09375 1.09375,0 0,1.09375 z"
     style="fill:#000000;fill-opacity:1;fill-rule:nonzero;stroke:none" />
  <path
     inkscape:connector-curvature="0"
     id="path212"
     d="m 26.30857,288.28516 0,0.92187 -5.203125,0 c 0,-0.22656 0.03906,-0.45312 0.125,-0.67187 0.121094,-0.35157 0.332031,-0.70313 0.625,-1.04688 0.289062,-0.33984 0.710937,-0.73828 1.265625,-1.1875 0.851562,-0.70703 1.429687,-1.26562 1.734375,-1.67187 0.300781,-0.40235 0.453125,-0.78907 0.453125,-1.15625 0,-0.38282 -0.136719,-0.70704 -0.40625,-0.96875 -0.273438,-0.26954 -0.632813,-0.40625 -1.078125,-0.40625 -0.460938,0 -0.832031,0.14453 -1.109375,0.42187 -0.28125,0.28125 -0.421875,0.66797 -0.421875,1.15625 l -1,-0.0937 c 0.07031,-0.73828 0.328125,-1.30078 0.765625,-1.6875 0.445312,-0.39453 1.046875,-0.59375 1.796875,-0.59375 0.746094,0 1.34375,0.21094 1.78125,0.625 0.445312,0.41797 0.671875,0.94141 0.671875,1.5625 0,0.3125 -0.07031,0.62891 -0.203125,0.9375 -0.125,0.30469 -0.339844,0.62109 -0.640625,0.95313 -0.292969,0.33593 -0.789063,0.80078 -1.484375,1.39062 -0.585938,0.48047 -0.960938,0.80859 -1.125,0.98438 -0.15625,0.17968 -0.292969,0.35546 -0.40625,0.53125 z"
     style="fill:#000000;fill-opacity:1;fill-rule:nonzero;stroke:none" />
  <path
     inkscape:connector-curvature="0"
     id="path214"
     d="m 12.05857,209.15625 c 0,-0.92578 0.09375,-1.67188 0.28125,-2.23438 0.195312,-0.57031 0.484375,-1.00781 0.859375,-1.3125 0.382812,-0.30859 0.863281,-0.46875 1.4375,-0.46875 0.414062,0 0.78125,0.0898 1.09375,0.26563 0.320312,0.16797 0.585937,0.41406 0.796875,0.73437 0.207031,0.3125 0.367187,0.70704 0.484375,1.17188 0.121094,0.46094 0.1875,1.07422 0.1875,1.84375 0,0.92969 -0.101563,1.67969 -0.296875,2.25 -0.1875,0.5625 -0.472656,1.00391 -0.84375,1.3125 -0.375,0.3125 -0.851563,0.46875 -1.421875,0.46875 -0.761719,0 -1.363281,-0.27344 -1.796875,-0.82813 -0.523438,-0.65234 -0.78125,-1.72265 -0.78125,-3.20312 z m 1,0 c 0,1.30469 0.148437,2.16797 0.453125,2.59375 0.300781,0.42969 0.675781,0.64062 1.125,0.64062 0.433594,0 0.804687,-0.21093 1.109375,-0.64062 0.300781,-0.43359 0.453125,-1.30078 0.453125,-2.59375 0,-1.28906 -0.152344,-2.14844 -0.453125,-2.57813 -0.304688,-0.42578 -0.679688,-0.64062 -1.125,-0.64062 -0.449219,0 -0.804688,0.19141 -1.0625,0.5625 -0.335938,0.48047 -0.5,1.36719 -0.5,2.65625 z"
     style="fill:#000000;fill-opacity:1;fill-rule:nonzero;stroke:none" />
  <path
     inkscape:connector-curvature="0"
     id="path216"
     d="m 18.722632,213.04687 0,-1.09375 1.09375,0 0,1.09375 z"
     style="fill:#000000;fill-opacity:1;fill-rule:nonzero;stroke:none" />
  <path
     inkscape:connector-curvature="0"
     id="path218"
     d="m 24.33982,213.04687 0,-1.89062 -3.421875,0 0,-0.875 3.59375,-5.10938 0.78125,0 0,5.10938 1.078125,0 0,0.875 -1.078125,0 0,1.89062 z m 0,-2.76562 0,-3.5625 -2.46875,3.5625 z"
     style="fill:#000000;fill-opacity:1;fill-rule:nonzero;stroke:none" />
  <path
     inkscape:connector-curvature="0"
     id="path220"
     d="m 12.05857,133.00391 c 0,-0.92579 0.09375,-1.67188 0.28125,-2.23438 0.195312,-0.57031 0.484375,-1.00781 0.859375,-1.3125 0.382812,-0.30859 0.863281,-0.46875 1.4375,-0.46875 0.414062,0 0.78125,0.0898 1.09375,0.26563 0.320312,0.16796 0.585937,0.41406 0.796875,0.73437 0.207031,0.3125 0.367187,0.70703 0.484375,1.17188 0.121094,0.46093 0.1875,1.07421 0.1875,1.84375 0,0.92968 -0.101563,1.67968 -0.296875,2.25 -0.1875,0.5625 -0.472656,1.0039 -0.84375,1.3125 -0.375,0.3125 -0.851563,0.46875 -1.421875,0.46875 -0.761719,0 -1.363281,-0.27344 -1.796875,-0.82813 -0.523438,-0.65234 -0.78125,-1.72266 -0.78125,-3.20312 z m 1,0 c 0,1.30468 0.148437,2.16796 0.453125,2.59375 0.300781,0.42968 0.675781,0.64062 1.125,0.64062 0.433594,0 0.804687,-0.21094 1.109375,-0.64062 0.300781,-0.4336 0.453125,-1.30079 0.453125,-2.59375 0,-1.28907 -0.152344,-2.14844 -0.453125,-2.57813 -0.304688,-0.42578 -0.679688,-0.64062 -1.125,-0.64062 -0.449219,0 -0.804688,0.1914 -1.0625,0.5625 -0.335938,0.48046 -0.5,1.36718 -0.5,2.65625 z"
     style="fill:#000000;fill-opacity:1;fill-rule:nonzero;stroke:none" />
  <path
     inkscape:connector-curvature="0"
     id="path222"
     d="m 18.722632,136.89453 0,-1.09375 1.09375,0 0,1.09375 z"
     style="fill:#000000;fill-opacity:1;fill-rule:nonzero;stroke:none" />
  <path
     inkscape:connector-curvature="0"
     id="path224"
     d="m 26.24607,130.94141 -0.953125,0.0781 c -0.08594,-0.37109 -0.210938,-0.64844 -0.375,-0.82812 -0.261719,-0.26954 -0.582031,-0.40625 -0.953125,-0.40625 -0.3125,0 -0.585938,0.0859 -0.8125,0.25 -0.3125,0.23046 -0.558594,0.55859 -0.734375,0.98437 -0.167969,0.41797 -0.257813,1.02344 -0.265625,1.8125 0.226562,-0.35156 0.507812,-0.61328 0.84375,-0.78125 0.339844,-0.17578 0.695312,-0.26562 1.0625,-0.26562 0.644531,0 1.191406,0.24218 1.640625,0.71875 0.457031,0.46875 0.6875,1.08203 0.6875,1.82812 0,0.5 -0.113281,0.96484 -0.328125,1.39063 -0.210938,0.41796 -0.503906,0.74218 -0.875,0.96875 -0.367188,0.22656 -0.789063,0.34375 -1.265625,0.34375 -0.804688,0 -1.460938,-0.29688 -1.96875,-0.89063 -0.511719,-0.58984 -0.765625,-1.57031 -0.765625,-2.9375 0,-1.51953 0.28125,-2.625 0.84375,-3.3125 0.496094,-0.60156 1.160156,-0.90625 1.984375,-0.90625 0.621094,0 1.132812,0.17969 1.53125,0.53125 0.394531,0.34375 0.628906,0.82031 0.703125,1.42188 z m -3.9375,3.40625 c 0,0.33593 0.06641,0.65234 0.203125,0.95312 0.144531,0.30469 0.34375,0.53906 0.59375,0.70313 0.257812,0.15625 0.523437,0.23437 0.796875,0.23437 0.414062,0 0.769531,-0.16406 1.0625,-0.5 0.289062,-0.33203 0.4375,-0.78125 0.4375,-1.34375 0,-0.53906 -0.148438,-0.96875 -0.4375,-1.28125 -0.292969,-0.30859 -0.660156,-0.46875 -1.09375,-0.46875 -0.4375,0 -0.808594,0.16016 -1.109375,0.46875 -0.304688,0.3125 -0.453125,0.72656 -0.453125,1.23438 z"
     style="fill:#000000;fill-opacity:1;fill-rule:nonzero;stroke:none" />
  <path
     inkscape:connector-curvature="0"
     id="path226"
     d="m 12.05857,56.84375 c 0,-0.925781 0.09375,-1.671875 0.28125,-2.234375 0.195312,-0.570312 0.484375,-1.007812 0.859375,-1.3125 0.382812,-0.308594 0.863281,-0.46875 1.4375,-0.46875 0.414062,0 0.78125,0.08984 1.09375,0.265625 0.320312,0.167969 0.585937,0.414063 0.796875,0.734375 0.207031,0.3125 0.367187,0.707031 0.484375,1.171875 0.121094,0.460938 0.1875,1.074219 0.1875,1.84375 0,0.929688 -0.101563,1.679688 -0.296875,2.25 -0.1875,0.5625 -0.472656,1.003906 -0.84375,1.3125 -0.375,0.3125 -0.851563,0.46875 -1.421875,0.46875 -0.761719,0 -1.363281,-0.273437 -1.796875,-0.828125 -0.523438,-0.652344 -0.78125,-1.722656 -0.78125,-3.203125 z m 1,0 c 0,1.304688 0.148437,2.167969 0.453125,2.59375 0.300781,0.429688 0.675781,0.640625 1.125,0.640625 0.433594,0 0.804687,-0.210937 1.109375,-0.640625 0.300781,-0.433594 0.453125,-1.300781 0.453125,-2.59375 0,-1.289062 -0.152344,-2.148437 -0.453125,-2.578125 -0.304688,-0.425781 -0.679688,-0.640625 -1.125,-0.640625 -0.449219,0 -0.804688,0.191406 -1.0625,0.5625 -0.335938,0.480469 -0.5,1.367188 -0.5,2.65625 z"
     style="fill:#000000;fill-opacity:1;fill-rule:nonzero;stroke:none" />
  <path
     inkscape:connector-curvature="0"
     id="path228"
     d="m 18.722632,60.734375 0,-1.09375 1.09375,0 0,1.09375 z"
     style="fill:#000000;fill-opacity:1;fill-rule:nonzero;stroke:none" />
  <path
     inkscape:connector-curvature="0"
     id="path230"
     d="m 22.71482,56.46875 c -0.398438,-0.144531 -0.695313,-0.351562 -0.890625,-0.625 -0.1875,-0.277344 -0.28125,-0.609375 -0.28125,-0.984375 0,-0.570312 0.203125,-1.050781 0.609375,-1.4375 0.414062,-0.394531 0.96875,-0.59375 1.65625,-0.59375 0.683594,0 1.238281,0.207031 1.65625,0.609375 0.414062,0.398438 0.625,0.882813 0.625,1.453125 0,0.367188 -0.101563,0.683594 -0.296875,0.953125 -0.1875,0.273438 -0.476563,0.480469 -0.859375,0.625 0.476562,0.15625 0.84375,0.414063 1.09375,0.765625 0.257812,0.34375 0.390625,0.761719 0.390625,1.25 0,0.679688 -0.242188,1.246094 -0.71875,1.703125 -0.480469,0.460938 -1.105469,0.6875 -1.875,0.6875 -0.78125,0 -1.414063,-0.226562 -1.890625,-0.6875 -0.46875,-0.464844 -0.703125,-1.046875 -0.703125,-1.734375 0,-0.507812 0.125,-0.9375 0.375,-1.28125 0.257812,-0.339844 0.628906,-0.578125 1.109375,-0.703125 z m -0.1875,-1.640625 c 0,0.375 0.117187,0.683594 0.359375,0.921875 0.238281,0.230469 0.550781,0.34375 0.9375,0.34375 0.371094,0 0.675781,-0.113281 0.90625,-0.34375 0.238281,-0.238281 0.359375,-0.53125 0.359375,-0.875 0,-0.351562 -0.128906,-0.648437 -0.375,-0.890625 C 24.472632,53.746094 24.171851,53.625 23.80857,53.625 c -0.367188,0 -0.675781,0.121094 -0.921875,0.359375 -0.242188,0.230469 -0.359375,0.511719 -0.359375,0.84375 z m -0.3125,3.640625 c 0,0.273438 0.0625,0.539063 0.1875,0.796875 0.132812,0.261719 0.332031,0.464844 0.59375,0.609375 0.257812,0.136719 0.535156,0.203125 0.828125,0.203125 0.464844,0 0.847656,-0.144531 1.140625,-0.4375 0.300781,-0.300781 0.453125,-0.679687 0.453125,-1.140625 0,-0.464844 -0.160156,-0.851562 -0.46875,-1.15625 -0.304688,-0.300781 -0.691406,-0.453125 -1.15625,-0.453125 -0.449219,0 -0.824219,0.152344 -1.125,0.453125 -0.304688,0.292969 -0.453125,0.667969 -0.453125,1.125 z"
     style="fill:#000000;fill-opacity:1;fill-rule:nonzero;stroke:none" />
  <path
     inkscape:connector-curvature="0"
     id="path232"
     d="m 2.0312256,299.93359 c -0.558594,0 -1.03906201,-0.14062 -1.43750001,-0.42187 -0.394531,-0.27735 -0.593750004064,-0.69141 -0.593750004064,-1.23438 0,-0.48828 0.179688004064,-0.89453 0.531250004064,-1.21875 0.355469,-0.32031 0.87890601,-0.48437 1.56250001,-0.48437 0.667969,0 1.183594,0.16406 1.546875,0.48437 0.355469,0.32422 0.53125,0.73047 0.53125,1.21875 0,0.46875 -0.175781,0.86719 -0.53125,1.1875 -0.351562,0.3125 -0.890625,0.46875 -1.609375,0.46875 z m -1.35937501,-1.6875 c 0,0.25 0.105469,0.45703 0.3125,0.60938 0.21093801,0.15625 0.58984401,0.23437 1.14062501,0.23437 0.511719,0 0.871094,-0.0781 1.078125,-0.23437 0.199219,-0.16406 0.296875,-0.36719 0.296875,-0.60938 0,-0.23828 -0.101562,-0.4375 -0.3125,-0.59375 -0.207031,-0.15234 -0.585937,-0.23437 -1.140625,-0.23437 -0.496094,0 -0.851562,0.082 -1.06250001,0.23437 -0.207031,0.15625 -0.3125,0.35547 -0.3125,0.59375 z m 7.64062501,0 -8.312500014064,-4.3125 0,-0.78125 L 8.3124756,297.44922 Z m -2.140625,-3.40625 c -0.570312,0 -1.050781,-0.14062 -1.4375,-0.42187 -0.394531,-0.27735 -0.59375,-0.69141 -0.59375,-1.23438 0,-0.48828 0.179688,-0.89453 0.53125,-1.21875 0.355469,-0.33203 0.878906,-0.5 1.5625,-0.5 0.65625,0 1.167969,0.16797 1.53125,0.5 0.363281,0.32422 0.546875,0.73047 0.546875,1.21875 0,0.46875 -0.179687,0.86719 -0.53125,1.1875 -0.363281,0.3125 -0.898437,0.46875 -1.609375,0.46875 z m -1.359375,-1.6875 c 0,0.25 0.105469,0.45703 0.3125,0.60938 0.210938,0.15625 0.589844,0.23437 1.140625,0.23437 0.5,0 0.855469,-0.0781 1.0625,-0.23437 0.210938,-0.16406 0.3125,-0.36328 0.3125,-0.59375 0,-0.2461 -0.101562,-0.45313 -0.3125,-0.60938 -0.207031,-0.16406 -0.585937,-0.25 -1.140625,-0.25 -0.507812,0 -0.863281,0.0859 -1.0625,0.25 -0.207031,0.15625 -0.3125,0.35547 -0.3125,0.59375 z"
     style="fill:#000000;fill-opacity:1;fill-rule:nonzero;stroke:none" />
  <path
     inkscape:connector-curvature="0"
     id="path234"
     d="m 8.0156006,284.87891 -6.9375,0 0,2.59375 -0.93750001,0 0,-6.23438 0.93750001,0 0,2.60938 6.9375,0 z"
     style="fill:#000000;fill-opacity:1;fill-rule:nonzero;stroke:none" />
  <path
     inkscape:connector-curvature="0"
     id="path236"
     d="m 5.2499756,274.55078 0.265625,-1.04687 c 0.855469,0.21875 1.511719,0.61718 1.96875,1.1875 0.449219,0.5625 0.671875,1.25781 0.671875,2.07812 0,0.85547 -0.171875,1.55078 -0.515625,2.07813 -0.351562,0.53125 -0.859375,0.9414 -1.515625,1.21875 -0.652344,0.27343 -1.359375,0.40625 -2.109375,0.40625 -0.808594,0 -1.523437,-0.15625 -2.140625,-0.46875 -0.613281,-0.3086 -1.07812501,-0.75391 -1.39062501,-1.32813 -0.320312,-0.58203 -0.484375004064,-1.22266 -0.484375004064,-1.92187 0,-0.78907 0.207031004064,-1.45313 0.609375004064,-1.98438 0.39843801,-0.53906 0.96093801,-0.91406 1.68750001,-1.125 l 0.25,1.03125 c -0.570312,0.17969 -0.988281,0.44531 -1.25,0.79688 -0.257812,0.34375 -0.39062501,0.77734 -0.39062501,1.29687 0,0.61719 0.14843801,1.12891 0.43750001,1.53125 0.28125,0.40625 0.667969,0.69531 1.15625,0.85938 0.492188,0.15625 0.996094,0.23437 1.515625,0.23437 0.667969,0 1.253906,-0.0937 1.75,-0.28125 0.5,-0.19531 0.878906,-0.5 1.125,-0.90625 0.25,-0.41406 0.375,-0.86328 0.375,-1.34375 0,-0.58203 -0.164062,-1.07812 -0.5,-1.48437 -0.339844,-0.40235 -0.847656,-0.67969 -1.515625,-0.82813 z"
     style="fill:#000000;fill-opacity:1;fill-rule:nonzero;stroke:none" />
  <path
     inkscape:connector-curvature="0"
     id="path238"
     d="m 6.3124756,272.73047 -0.15625,-0.95313 c 0.386719,-0.0508 0.683594,-0.19531 0.890625,-0.4375 0.199219,-0.24609 0.296875,-0.59375 0.296875,-1.03125 0,-0.44531 -0.085937,-0.77343 -0.265625,-0.98437 -0.175781,-0.21485 -0.390625,-0.32813 -0.640625,-0.32813 -0.214844,0 -0.390625,0.0977 -0.515625,0.28125 -0.082031,0.13672 -0.191406,0.46485 -0.328125,0.98438 -0.175781,0.71094 -0.328125,1.20703 -0.453125,1.48437 -0.132812,0.27344 -0.316406,0.48047 -0.546875,0.625 -0.226562,0.13672 -0.484375,0.20313 -0.765625,0.20313 -0.257812,0 -0.492187,-0.0547 -0.703125,-0.17188 -0.214844,-0.11328 -0.398437,-0.27343 -0.546875,-0.48437 -0.113281,-0.14453 -0.207031,-0.34766 -0.28125,-0.60938 -0.070312,-0.25781 -0.109375,-0.53515 -0.109375,-0.82812 0,-0.44531 0.066406,-0.83594 0.1875,-1.17188 0.125,-0.33984 0.304688,-0.59375 0.53125,-0.75 0.21875,-0.16406 0.511719,-0.28125 0.875,-0.34375 l 0.125,0.9375 c -0.289062,0.0547 -0.515625,0.1836 -0.671875,0.39063 -0.164062,0.19922 -0.25,0.48828 -0.25,0.85937 0,0.44922 0.074219,0.76953 0.21875,0.95313 0.148438,0.1875 0.320313,0.28125 0.515625,0.28125 0.125,0 0.238281,-0.0352 0.328125,-0.10938 0.105469,-0.082 0.195313,-0.20703 0.265625,-0.375 0.03125,-0.0898 0.117188,-0.3789 0.25,-0.85937 0.179688,-0.67578 0.324219,-1.14844 0.4375,-1.42188 0.117188,-0.26953 0.289063,-0.48437 0.515625,-0.64062 0.21875,-0.15235 0.496094,-0.23438 0.828125,-0.23438 0.324219,0 0.628906,0.0977 0.90625,0.28125 0.28125,0.1875 0.503906,0.46094 0.65625,0.8125 0.152344,0.35547 0.234375,0.75782 0.234375,1.20313 0,0.74219 -0.148437,1.30859 -0.453125,1.70312 -0.308594,0.38672 -0.769531,0.63282 -1.375,0.73438 z"
     style="fill:#000000;fill-opacity:1;fill-rule:nonzero;stroke:none" />
  <path
     inkscape:connector-curvature="0"
     id="path240"
     d="m 7.1562256,261.67578 0.84375,-0.125 c 0.058594,0.27344 0.09375,0.51172 0.09375,0.71875 0,0.35547 -0.058594,0.63281 -0.171875,0.82813 -0.113281,0.1875 -0.257812,0.32421 -0.4375,0.40625 -0.175781,0.0742 -0.554687,0.10937 -1.140625,0.10937 l -3.28125,0 0,0.71875 -0.75,0 0,-0.71875 -1.40625001,0 -0.59375,-0.95312 2.00000001,0 0,-0.98438 0.75,0 0,0.98438 3.34375,0 c 0.273438,0 0.449219,-0.0156 0.53125,-0.0469 0.074219,-0.0391 0.136719,-0.0977 0.1875,-0.17187 0.042969,-0.082 0.0625,-0.19141 0.0625,-0.32813 0,-0.11328 -0.00781,-0.25781 -0.03125,-0.4375 z"
     style="fill:#000000;fill-opacity:1;fill-rule:nonzero;stroke:none" />
  <path
     inkscape:connector-curvature="0"
     id="path242"
     d="m 5.1562256,261.10156 c -1.050781,0 -1.832031,-0.29687 -2.34375,-0.89062 -0.414062,-0.48828 -0.625,-1.08594 -0.625,-1.79688 0,-0.77734 0.257813,-1.41406 0.765625,-1.90625 0.511719,-0.49609 1.222656,-0.75 2.125,-0.75 0.742188,0 1.324219,0.11328 1.75,0.32813 0.417969,0.21875 0.742188,0.54297 0.96875,0.96875 0.226563,0.41797 0.34375,0.87109 0.34375,1.35937 0,0.80469 -0.253906,1.45703 -0.765625,1.95313 -0.507812,0.49218 -1.25,0.73437 -2.21875,0.73437 z m 0,-1 c 0.742188,0 1.292969,-0.15625 1.65625,-0.46875 0.355469,-0.32031 0.53125,-0.72656 0.53125,-1.21875 0,-0.47656 -0.179687,-0.875 -0.546875,-1.1875 -0.363281,-0.32031 -0.921875,-0.48437 -1.671875,-0.48437 -0.695312,0 -1.226562,0.16406 -1.59375,0.48437 -0.363281,0.32422 -0.546875,0.72266 -0.546875,1.1875 0,0.49219 0.183594,0.89844 0.546875,1.21875 0.355469,0.3125 0.898438,0.46875 1.625,0.46875 z"
     style="fill:#000000;fill-opacity:1;fill-rule:nonzero;stroke:none" />
  <path
     inkscape:connector-curvature="0"
     id="path244"
     d="m 8.0156006,250.67578 0,0.89063 -7.87500001,0 0,-0.96875 2.81250001,0 c -0.507812,-0.40235 -0.765625,-0.92579 -0.765625,-1.5625 0,-0.35157 0.074219,-0.6875 0.21875,-1 0.136719,-0.3086 0.335938,-0.56641 0.59375,-0.76563 0.25,-0.20703 0.558594,-0.36719 0.921875,-0.48437 0.355469,-0.11329 0.742188,-0.17188 1.15625,-0.17188 0.980469,0 1.738281,0.24609 2.265625,0.73438 0.53125,0.48046 0.796875,1.05859 0.796875,1.73437 0,0.67969 -0.28125,1.21094 -0.84375,1.59375 z m -2.890625,0 c 0.679688,0 1.175781,-0.0937 1.484375,-0.28125 0.492188,-0.30078 0.734375,-0.71094 0.734375,-1.23437 0,-0.41407 -0.179687,-0.77344 -0.546875,-1.07813 -0.363281,-0.30859 -0.910156,-0.46875 -1.640625,-0.46875 -0.738281,0 -1.285156,0.14844 -1.640625,0.4375 -0.351562,0.29297 -0.53125,0.65234 -0.53125,1.07813 0,0.41796 0.183594,0.78515 0.546875,1.09375 0.367188,0.30468 0.898438,0.45312 1.59375,0.45312 z"
     style="fill:#000000;fill-opacity:1;fill-rule:nonzero;stroke:none" />
  <path
     inkscape:connector-curvature="0"
     id="path246"
     d="m 6.1718506,241.54687 0.125,-1 c 0.585938,0.15625 1.039063,0.44922 1.359375,0.875 0.324219,0.42969 0.484375,0.97266 0.484375,1.625 0,0.83594 -0.253906,1.4961 -0.765625,1.98438 -0.507812,0.49219 -1.226562,0.73437 -2.15625,0.73437 -0.964844,0 -1.710937,-0.24218 -2.234375,-0.73437 -0.527344,-0.49609 -0.796875,-1.14063 -0.796875,-1.92188 0,-0.76953 0.261719,-1.39453 0.78125,-1.875 0.511719,-0.47656 1.242188,-0.71875 2.1875,-0.71875 l 0.25,0 0,4.25 c 0.625,-0.0273 1.105469,-0.20312 1.4375,-0.51562 0.335938,-0.32031 0.5,-0.72266 0.5,-1.20313 0,-0.35156 -0.085937,-0.65625 -0.265625,-0.90625 -0.183594,-0.24609 -0.488281,-0.44531 -0.90625,-0.59375 z m -1.5625,3.17188 0,-3.1875 c -0.476562,0.043 -0.835937,0.16406 -1.078125,0.35937 -0.363281,0.3125 -0.546875,0.71485 -0.546875,1.20313 0,0.44922 0.152344,0.82422 0.453125,1.125 0.292969,0.30469 0.683594,0.47266 1.171875,0.5 z"
     style="fill:#000000;fill-opacity:1;fill-rule:nonzero;stroke:none" />
  <path
     inkscape:connector-curvature="0"
     id="path248"
     d="m 6.1718506,232.37109 0.125,-1 c 0.585938,0.15625 1.039063,0.44922 1.359375,0.875 0.324219,0.42969 0.484375,0.97266 0.484375,1.625 0,0.83594 -0.253906,1.4961 -0.765625,1.98438 -0.507812,0.49219 -1.226562,0.73437 -2.15625,0.73437 -0.964844,0 -1.710937,-0.24218 -2.234375,-0.73437 -0.527344,-0.4961 -0.796875,-1.14063 -0.796875,-1.92188 0,-0.76953 0.261719,-1.39453 0.78125,-1.875 0.511719,-0.47656 1.242188,-0.71875 2.1875,-0.71875 l 0.25,0 0,4.25 c 0.625,-0.0273 1.105469,-0.20312 1.4375,-0.51562 0.335938,-0.32031 0.5,-0.72266 0.5,-1.20313 0,-0.35156 -0.085937,-0.65625 -0.265625,-0.90625 -0.183594,-0.24609 -0.488281,-0.44531 -0.90625,-0.59375 z m -1.5625,3.17188 0,-3.1875 c -0.476562,0.043 -0.835937,0.16406 -1.078125,0.35937 -0.363281,0.3125 -0.546875,0.71485 -0.546875,1.20313 0,0.44922 0.152344,0.82422 0.453125,1.125 0.292969,0.30469 0.683594,0.47265 1.171875,0.5 z"
     style="fill:#000000;fill-opacity:1;fill-rule:nonzero;stroke:none" />
  <path
     inkscape:connector-curvature="0"
     id="path250"
     d="m 8.0156006,231.13281 -2.96875,-2.09375 -2.734375,1.9375 0,-1.20312 1.34375,-0.89063 c 0.25,-0.15234 0.460938,-0.28515 0.625,-0.39062 -0.226562,-0.15235 -0.4375,-0.30078 -0.625,-0.4375 l -1.34375,-0.95313 0,-1.15625 2.6875,1.96875 3.015625,-2.125 0,1.1875 -1.765625,1.17188 -0.484375,0.3125 2.25,1.5 z"
     style="fill:#000000;fill-opacity:1;fill-rule:nonzero;stroke:none" />
  <path
     inkscape:connector-curvature="0"
     id="path252"
     d="m 6.1718506,221.41406 0.125,-1 c 0.585938,0.15625 1.039063,0.44922 1.359375,0.875 0.324219,0.42969 0.484375,0.97266 0.484375,1.625 0,0.83594 -0.253906,1.4961 -0.765625,1.98438 -0.507812,0.49218 -1.226562,0.73437 -2.15625,0.73437 -0.964844,0 -1.710937,-0.24219 -2.234375,-0.73437 -0.527344,-0.4961 -0.796875,-1.14063 -0.796875,-1.92188 0,-0.76953 0.261719,-1.39453 0.78125,-1.875 0.511719,-0.47656 1.242188,-0.71875 2.1875,-0.71875 l 0.25,0 0,4.25 c 0.625,-0.0273 1.105469,-0.20312 1.4375,-0.51562 0.335938,-0.32032 0.5,-0.72266 0.5,-1.20313 0,-0.35156 -0.085937,-0.65625 -0.265625,-0.90625 -0.183594,-0.24609 -0.488281,-0.44531 -0.90625,-0.59375 z m -1.5625,3.17188 0,-3.1875 c -0.476562,0.043 -0.835937,0.16406 -1.078125,0.35937 -0.363281,0.3125 -0.546875,0.71485 -0.546875,1.20313 0,0.44922 0.152344,0.82422 0.453125,1.125 0.292969,0.30468 0.683594,0.47265 1.171875,0.5 z"
     style="fill:#000000;fill-opacity:1;fill-rule:nonzero;stroke:none" />
  <path
     inkscape:connector-curvature="0"
     id="path254"
     d="m 5.9218506,215.47266 0.125,-0.9375 c 0.65625,0.0937 1.175781,0.36328 1.546875,0.79687 0.367188,0.42969 0.546875,0.94922 0.546875,1.5625 0,0.78125 -0.253906,1.41406 -0.765625,1.89063 -0.507812,0.46875 -1.238281,0.70312 -2.1875,0.70312 -0.613281,0 -1.148437,-0.0977 -1.609375,-0.29687 -0.464844,-0.20704 -0.816406,-0.51954 -1.046875,-0.9375 -0.226562,-0.41407 -0.34375,-0.86719 -0.34375,-1.35938 0,-0.61328 0.160156,-1.11719 0.46875,-1.51562 0.3125,-0.39454 0.757813,-0.64844 1.328125,-0.76563 l 0.140625,0.95313 c -0.371094,0.0859 -0.65625,0.24218 -0.84375,0.46875 -0.195312,0.23046 -0.296875,0.50781 -0.296875,0.82812 0,0.48047 0.179688,0.87891 0.53125,1.1875 0.34375,0.30469 0.894531,0.45313 1.640625,0.45313 0.773438,0 1.332031,-0.14454 1.671875,-0.4375 0.34375,-0.28907 0.515625,-0.67579 0.515625,-1.15625 0,-0.3711 -0.113281,-0.6875 -0.34375,-0.9375 -0.226562,-0.25782 -0.585937,-0.42579 -1.078125,-0.5 z"
     style="fill:#000000;fill-opacity:1;fill-rule:nonzero;stroke:none" />
  <path
     inkscape:connector-curvature="0"
     id="path256"
     d="m 8.0156006,209.95703 -0.84375,0 c 0.648438,0.44922 0.96875,1.05469 0.96875,1.8125 0,0.33594 -0.066406,0.65234 -0.1875,0.95313 -0.132812,0.29296 -0.296875,0.51171 -0.484375,0.65625 -0.195312,0.13671 -0.4375,0.23046 -0.71875,0.28125 -0.183594,0.043 -0.488281,0.0625 -0.90625,0.0625 l -3.53125,0 0,-0.96875 3.15625,0 c 0.511719,0 0.855469,-0.0195 1.03125,-0.0625 0.25,-0.0586 0.449219,-0.1875 0.59375,-0.375 0.148438,-0.19532 0.21875,-0.44141 0.21875,-0.73438 0,-0.28906 -0.070312,-0.5625 -0.21875,-0.8125 -0.152344,-0.25781 -0.359375,-0.44141 -0.609375,-0.54687 -0.257812,-0.10157 -0.628906,-0.15625 -1.109375,-0.15625 l -3.0625,0 0,-0.96875 5.703125,0 z"
     style="fill:#000000;fill-opacity:1;fill-rule:nonzero;stroke:none" />
  <path
     inkscape:connector-curvature="0"
     id="path258"
     d="m 7.1562256,205.46484 0.84375,-0.125 c 0.058594,0.27344 0.09375,0.51172 0.09375,0.71875 0,0.35547 -0.058594,0.63282 -0.171875,0.82813 -0.113281,0.1875 -0.257812,0.32422 -0.4375,0.40625 -0.175781,0.0742 -0.554687,0.10937 -1.140625,0.10937 l -3.28125,0 0,0.71875 -0.75,0 0,-0.71875 -1.40625001,0 -0.59375,-0.95312 2.00000001,0 0,-0.98438 0.75,0 0,0.98438 3.34375,0 c 0.273438,0 0.449219,-0.0156 0.53125,-0.0469 0.074219,-0.0391 0.136719,-0.0977 0.1875,-0.17187 0.042969,-0.082 0.0625,-0.19141 0.0625,-0.32813 0,-0.11328 -0.00781,-0.25781 -0.03125,-0.4375 z"
     style="fill:#000000;fill-opacity:1;fill-rule:nonzero;stroke:none" />
  <path
     inkscape:connector-curvature="0"
     id="path260"
     d="m 6.1718506,200.625 0.125,-1 c 0.585938,0.15625 1.039063,0.44922 1.359375,0.875 0.324219,0.42969 0.484375,0.97266 0.484375,1.625 0,0.83594 -0.253906,1.49609 -0.765625,1.98437 -0.507812,0.49219 -1.226562,0.73438 -2.15625,0.73438 -0.964844,0 -1.710937,-0.24219 -2.234375,-0.73438 -0.527344,-0.49609 -0.796875,-1.14062 -0.796875,-1.92187 0,-0.76953 0.261719,-1.39453 0.78125,-1.875 0.511719,-0.47656 1.242188,-0.71875 2.1875,-0.71875 l 0.25,0 0,4.25 c 0.625,-0.0273 1.105469,-0.20313 1.4375,-0.51563 0.335938,-0.32031 0.5,-0.72265 0.5,-1.20312 0,-0.35156 -0.085937,-0.65625 -0.265625,-0.90625 -0.183594,-0.24609 -0.488281,-0.44531 -0.90625,-0.59375 z m -1.5625,3.17187 0,-3.1875 c -0.476562,0.043 -0.835937,0.16407 -1.078125,0.35938 -0.363281,0.3125 -0.546875,0.71484 -0.546875,1.20312 0,0.44922 0.152344,0.82422 0.453125,1.125 0.292969,0.30469 0.683594,0.47266 1.171875,0.5 z"
     style="fill:#000000;fill-opacity:1;fill-rule:nonzero;stroke:none" />
  <path
     inkscape:connector-curvature="0"
     id="path262"
     d="m 8.0156006,194.71094 -0.71875,0 c 0.5625,0.35547 0.84375,0.88672 0.84375,1.59375 0,0.44922 -0.125,0.86718 -0.375,1.25 -0.246094,0.38672 -0.597656,0.68359 -1.046875,0.89062 -0.445312,0.21094 -0.960937,0.3125 -1.546875,0.3125 -0.570312,0 -1.085937,-0.0937 -1.546875,-0.28125 -0.464844,-0.19531 -0.820312,-0.48437 -1.0625,-0.85937 -0.246094,-0.3711 -0.375,-0.79688 -0.375,-1.26563 0,-0.33984 0.074219,-0.64844 0.21875,-0.92187 0.148438,-0.26953 0.335938,-0.48828 0.5625,-0.65625 l -2.82812501,0 0,-0.96875 7.87500001,0 z m -2.84375,3.04687 c 0.730469,0 1.277344,-0.14844 1.640625,-0.45312 0.355469,-0.3086 0.53125,-0.67578 0.53125,-1.09375 0,-0.42578 -0.171875,-0.78516 -0.515625,-1.07813 -0.339844,-0.28906 -0.867187,-0.4375 -1.578125,-0.4375 -0.777344,0 -1.351562,0.15235 -1.71875,0.45313 -0.363281,0.29297 -0.546875,0.66406 -0.546875,1.10937 0,0.42969 0.179688,0.78906 0.53125,1.07813 0.34375,0.28125 0.898438,0.42187 1.65625,0.42187 z"
     style="fill:#000000;fill-opacity:1;fill-rule:nonzero;stroke:none" />
  <path
     inkscape:connector-curvature="0"
     id="path264"
     d="m 7.1562256,187.11719 0.84375,-0.125 c 0.058594,0.27343 0.09375,0.51172 0.09375,0.71875 0,0.35547 -0.058594,0.63281 -0.171875,0.82812 -0.113281,0.1875 -0.257812,0.32422 -0.4375,0.40625 -0.175781,0.0742 -0.554687,0.10938 -1.140625,0.10938 l -3.28125,0 0,0.71875 -0.75,0 0,-0.71875 -1.40625001,0 -0.59375,-0.95313 2.00000001,0 0,-0.98437 0.75,0 0,0.98437 3.34375,0 c 0.273438,0 0.449219,-0.0156 0.53125,-0.0469 0.074219,-0.0391 0.136719,-0.0977 0.1875,-0.17188 0.042969,-0.082 0.0625,-0.1914 0.0625,-0.32812 0,-0.11328 -0.00781,-0.25782 -0.03125,-0.4375 z"
     style="fill:#000000;fill-opacity:1;fill-rule:nonzero;stroke:none" />
  <path
     inkscape:connector-curvature="0"
     id="path266"
     d="m 5.1562256,186.54297 c -1.050781,0 -1.832031,-0.29688 -2.34375,-0.89063 -0.414062,-0.48828 -0.625,-1.08593 -0.625,-1.79687 0,-0.77735 0.257813,-1.41406 0.765625,-1.90625 0.511719,-0.4961 1.222656,-0.75 2.125,-0.75 0.742188,0 1.324219,0.11328 1.75,0.32812 0.417969,0.21875 0.742188,0.54297 0.96875,0.96875 0.226563,0.41797 0.34375,0.8711 0.34375,1.35938 0,0.80469 -0.253906,1.45703 -0.765625,1.95312 -0.507812,0.49219 -1.25,0.73438 -2.21875,0.73438 z m 0,-1 c 0.742188,0 1.292969,-0.15625 1.65625,-0.46875 0.355469,-0.32031 0.53125,-0.72656 0.53125,-1.21875 0,-0.47656 -0.179687,-0.875 -0.546875,-1.1875 -0.363281,-0.32031 -0.921875,-0.48438 -1.671875,-0.48438 -0.695312,0 -1.226562,0.16407 -1.59375,0.48438 -0.363281,0.32422 -0.546875,0.72265 -0.546875,1.1875 0,0.49219 0.183594,0.89844 0.546875,1.21875 0.355469,0.3125 0.898438,0.46875 1.625,0.46875 z"
     style="fill:#000000;fill-opacity:1;fill-rule:nonzero;stroke:none" />
  <path
     inkscape:connector-curvature="0"
     id="path268"
     d="m 8.0156006,176.77344 -4.953125,0 0,0.84375 -0.75,0 0,-0.84375 -0.609375,0 c -0.382812,0 -0.671875,-0.0352 -0.85937501,-0.10938 -0.246094,-0.0898 -0.453125,-0.2539 -0.609375,-0.48437 -0.1523437,-0.23828 -0.234375004064,-0.56641 -0.234375004064,-0.98438 0,-0.26953 0.03906250406,-0.57031 0.109375004064,-0.90625 l 0.84375,0.14063 c -0.039062,0.21093 -0.0625,0.40234 -0.0625,0.57812 0,0.29297 0.066406,0.50391 0.18750001,0.625 0.125,0.11719 0.363281,0.17188 0.703125,0.17188 l 0.53125,0 0,-1.10938 0.75,0 0,1.10938 4.953125,0 z"
     style="fill:#000000;fill-opacity:1;fill-rule:nonzero;stroke:none" />
  <path
     inkscape:connector-curvature="0"
     id="path270"
     d="m 1.2499756,173.9375 -1.10937501,0 0,-0.96875 1.10937501,0 z m 6.765625,0 -5.703125,0 0,-0.96875 5.703125,0 z"
     style="fill:#000000;fill-opacity:1;fill-rule:nonzero;stroke:none" />
  <path
     inkscape:connector-curvature="0"
     id="path272"
     d="m 8.0156006,171.50781 -5.703125,0 0,-0.875 0.8125,0 c -0.621094,-0.41406 -0.9375,-1.01953 -0.9375,-1.8125 0,-0.33984 0.066406,-0.66015 0.1875,-0.95312 0.117188,-0.28907 0.277344,-0.50391 0.484375,-0.64063 0.199219,-0.14453 0.433594,-0.25 0.703125,-0.3125 0.1875,-0.0273 0.507813,-0.0469 0.953125,-0.0469 l 3.5,0 0,0.96875 -3.46875,0 c -0.394531,0 -0.6875,0.0391 -0.875,0.10937 -0.195312,0.0742 -0.351562,0.21094 -0.46875,0.40625 -0.121094,0.1875 -0.1875,0.41406 -0.1875,0.67188 0,0.40625 0.132813,0.76172 0.390625,1.0625 0.261719,0.30468 0.761719,0.45312 1.5,0.45312 l 3.109375,0 z"
     style="fill:#000000;fill-opacity:1;fill-rule:nonzero;stroke:none" />
  <path
     inkscape:connector-curvature="0"
     id="path274"
     d="m 8.0156006,161.69141 -0.71875,0 c 0.5625,0.35546 0.84375,0.88671 0.84375,1.59375 0,0.44921 -0.125,0.86718 -0.375,1.25 -0.246094,0.38671 -0.597656,0.68359 -1.046875,0.89062 -0.445312,0.21094 -0.960937,0.3125 -1.546875,0.3125 -0.570312,0 -1.085937,-0.0937 -1.546875,-0.28125 -0.464844,-0.19531 -0.820312,-0.48437 -1.0625,-0.85937 -0.246094,-0.3711 -0.375,-0.79688 -0.375,-1.26563 0,-0.33984 0.074219,-0.64844 0.21875,-0.92187 0.148438,-0.26954 0.335938,-0.48829 0.5625,-0.65625 l -2.82812501,0 0,-0.96875 7.87500001,0 z m -2.84375,3.04687 c 0.730469,0 1.277344,-0.14844 1.640625,-0.45312 0.355469,-0.3086 0.53125,-0.67579 0.53125,-1.09375 0,-0.42579 -0.171875,-0.78516 -0.515625,-1.07813 -0.339844,-0.28906 -0.867187,-0.4375 -1.578125,-0.4375 -0.777344,0 -1.351562,0.15234 -1.71875,0.45313 -0.363281,0.29296 -0.546875,0.66406 -0.546875,1.10937 0,0.42969 0.179688,0.78906 0.53125,1.07813 0.34375,0.28125 0.898438,0.42187 1.65625,0.42187 z"
     style="fill:#000000;fill-opacity:1;fill-rule:nonzero;stroke:none" />
  <path
     inkscape:connector-curvature="0"
     id="path276"
     d="m 7.1562256,154.09375 0.84375,-0.125 c 0.058594,0.27344 0.09375,0.51172 0.09375,0.71875 0,0.35547 -0.058594,0.63281 -0.171875,0.82812 -0.113281,0.1875 -0.257812,0.32422 -0.4375,0.40625 -0.175781,0.0742 -0.554687,0.10938 -1.140625,0.10938 l -3.28125,0 0,0.71875 -0.75,0 0,-0.71875 -1.40625001,0 -0.59375,-0.95313 2.00000001,0 0,-0.98437 0.75,0 0,0.98437 3.34375,0 c 0.273438,0 0.449219,-0.0156 0.53125,-0.0469 0.074219,-0.0391 0.136719,-0.0977 0.1875,-0.17188 0.042969,-0.082 0.0625,-0.1914 0.0625,-0.32812 0,-0.11328 -0.00781,-0.25781 -0.03125,-0.4375 z"
     style="fill:#000000;fill-opacity:1;fill-rule:nonzero;stroke:none" />
  <path
     inkscape:connector-curvature="0"
     id="path278"
     d="m 8.0156006,153.16016 -7.87500001,0 0,-0.96875 2.82812501,0 c -0.519531,-0.45704 -0.78125,-1.03125 -0.78125,-1.71875 0,-0.41407 0.085938,-0.78125 0.25,-1.09375 0.167969,-0.3086 0.398438,-0.53516 0.6875,-0.67188 0.292969,-0.13281 0.722656,-0.20312 1.28125,-0.20312 l 3.609375,0 0,0.96875 -3.609375,0 c -0.488281,0 -0.84375,0.10546 -1.0625,0.3125 -0.214844,0.21093 -0.328125,0.50781 -0.328125,0.89062 0,0.29297 0.074219,0.56641 0.21875,0.8125 0.148438,0.25 0.351563,0.43359 0.609375,0.54688 0.25,0.10546 0.601563,0.15625 1.046875,0.15625 l 3.125,0 z"
     style="fill:#000000;fill-opacity:1;fill-rule:nonzero;stroke:none" />
  <path
     inkscape:connector-curvature="0"
     id="path280"
     d="m 6.1718506,143.14062 0.125,-1 c 0.585938,0.15625 1.039063,0.44922 1.359375,0.875 0.324219,0.42969 0.484375,0.97266 0.484375,1.625 0,0.83594 -0.253906,1.4961 -0.765625,1.98438 -0.507812,0.49219 -1.226562,0.73437 -2.15625,0.73437 -0.964844,0 -1.710937,-0.24218 -2.234375,-0.73437 -0.527344,-0.49609 -0.796875,-1.14063 -0.796875,-1.92188 0,-0.76953 0.261719,-1.39453 0.78125,-1.875 0.511719,-0.47656 1.242188,-0.71875 2.1875,-0.71875 l 0.25,0 0,4.25 c 0.625,-0.0273 1.105469,-0.20312 1.4375,-0.51562 0.335938,-0.32031 0.5,-0.72266 0.5,-1.20313 0,-0.35156 -0.085937,-0.65625 -0.265625,-0.90625 -0.183594,-0.24609 -0.488281,-0.44531 -0.90625,-0.59375 z m -1.5625,3.17188 0,-3.1875 c -0.476562,0.043 -0.835937,0.16406 -1.078125,0.35937 -0.363281,0.3125 -0.546875,0.71485 -0.546875,1.20313 0,0.44922 0.152344,0.82422 0.453125,1.125 0.292969,0.30469 0.683594,0.47266 1.171875,0.5 z"
     style="fill:#000000;fill-opacity:1;fill-rule:nonzero;stroke:none" />
  <path
     inkscape:connector-curvature="0"
     id="path282"
     d="m 8.0156006,137.63672 -4.953125,0 0,0.84375 -0.75,0 0,-0.84375 -0.609375,0 c -0.382812,0 -0.671875,-0.0352 -0.85937501,-0.10938 -0.246094,-0.0898 -0.453125,-0.2539 -0.609375,-0.48437 -0.1523437,-0.23828 -0.234375004064,-0.56641 -0.234375004064,-0.98438 0,-0.26953 0.03906250406,-0.57031 0.109375004064,-0.90625 l 0.84375,0.14063 c -0.039062,0.21094 -0.0625,0.40234 -0.0625,0.57812 0,0.29297 0.066406,0.50391 0.18750001,0.625 0.125,0.11719 0.363281,0.17188 0.703125,0.17188 l 0.53125,0 0,-1.10938 0.75,0 0,1.10938 4.953125,0 z"
     style="fill:#000000;fill-opacity:1;fill-rule:nonzero;stroke:none" />
  <path
     inkscape:connector-curvature="0"
     id="path284"
     d="m 1.2499756,134.79687 -1.10937501,0 0,-0.96875 1.10937501,0 z m 6.765625,0 -5.703125,0 0,-0.96875 5.703125,0 z"
     style="fill:#000000;fill-opacity:1;fill-rule:nonzero;stroke:none" />
  <path
     inkscape:connector-curvature="0"
     id="path286"
     d="m 8.0156006,132.37109 -5.703125,0 0,-0.85937 0.859375,0 c -0.402344,-0.22656 -0.671875,-0.4375 -0.796875,-0.625 -0.121094,-0.1836 -0.1875,-0.39063 -0.1875,-0.60938 0,-0.33203 0.105469,-0.66406 0.3125,-1 l 0.890625,0.32813 c -0.132812,0.24219 -0.203125,0.48047 -0.203125,0.71875 0,0.21094 0.066406,0.39844 0.1875,0.5625 0.125,0.16797 0.304688,0.28906 0.53125,0.35937 0.34375,0.10547 0.722656,0.15625 1.125,0.15625 l 2.984375,0 z"
     style="fill:#000000;fill-opacity:1;fill-rule:nonzero;stroke:none" />
  <path
     inkscape:connector-curvature="0"
     id="path288"
     d="m 6.3124756,129.08203 -0.15625,-0.95312 c 0.386719,-0.0508 0.683594,-0.19532 0.890625,-0.4375 0.199219,-0.2461 0.296875,-0.59375 0.296875,-1.03125 0,-0.44532 -0.085937,-0.77344 -0.265625,-0.98438 -0.175781,-0.21484 -0.390625,-0.32812 -0.640625,-0.32812 -0.214844,0 -0.390625,0.0977 -0.515625,0.28125 -0.082031,0.13672 -0.191406,0.46484 -0.328125,0.98437 -0.175781,0.71094 -0.328125,1.20703 -0.453125,1.48438 -0.132812,0.27343 -0.316406,0.48046 -0.546875,0.625 -0.226562,0.13671 -0.484375,0.20312 -0.765625,0.20312 -0.257812,0 -0.492187,-0.0547 -0.703125,-0.17187 -0.214844,-0.11329 -0.398437,-0.27344 -0.546875,-0.48438 -0.113281,-0.14453 -0.207031,-0.34765 -0.28125,-0.60937 -0.070312,-0.25782 -0.109375,-0.53516 -0.109375,-0.82813 0,-0.44531 0.066406,-0.83594 0.1875,-1.17187 0.125,-0.33985 0.304688,-0.59375 0.53125,-0.75 0.21875,-0.16407 0.511719,-0.28125 0.875,-0.34375 l 0.125,0.9375 c -0.289062,0.0547 -0.515625,0.18359 -0.671875,0.39062 -0.164062,0.19922 -0.25,0.48828 -0.25,0.85938 0,0.44922 0.074219,0.76953 0.21875,0.95312 0.148438,0.1875 0.320313,0.28125 0.515625,0.28125 0.125,0 0.238281,-0.0352 0.328125,-0.10937 0.105469,-0.082 0.195313,-0.20703 0.265625,-0.375 0.03125,-0.0898 0.117188,-0.37891 0.25,-0.85938 0.179688,-0.67578 0.324219,-1.14844 0.4375,-1.42187 0.117188,-0.26953 0.289063,-0.48438 0.515625,-0.64063 0.21875,-0.15234 0.496094,-0.23437 0.828125,-0.23437 0.324219,0 0.628906,0.0977 0.90625,0.28125 0.28125,0.1875 0.503906,0.46093 0.65625,0.8125 0.152344,0.35547 0.234375,0.75781 0.234375,1.20312 0,0.74219 -0.148437,1.3086 -0.453125,1.70313 -0.308594,0.38671 -0.769531,0.63281 -1.375,0.73437 z"
     style="fill:#000000;fill-opacity:1;fill-rule:nonzero;stroke:none" />
  <path
     inkscape:connector-curvature="0"
     id="path290"
     d="m 7.1562256,121.08203 0.84375,-0.125 c 0.058594,0.27344 0.09375,0.51172 0.09375,0.71875 0,0.35547 -0.058594,0.63281 -0.171875,0.82813 -0.113281,0.1875 -0.257812,0.32422 -0.4375,0.40625 -0.175781,0.0742 -0.554687,0.10937 -1.140625,0.10937 l -3.28125,0 0,0.71875 -0.75,0 0,-0.71875 -1.40625001,0 -0.59375,-0.95312 2.00000001,0 0,-0.98438 0.75,0 0,0.98438 3.34375,0 c 0.273438,0 0.449219,-0.0156 0.53125,-0.0469 0.074219,-0.0391 0.136719,-0.0977 0.1875,-0.17187 0.042969,-0.082 0.0625,-0.19141 0.0625,-0.32813 0,-0.11328 -0.00781,-0.25781 -0.03125,-0.4375 z"
     style="fill:#000000;fill-opacity:1;fill-rule:nonzero;stroke:none" />
  <path
     inkscape:connector-curvature="0"
     id="path292"
     d="m 8.0156006,116.85938 -4.953125,0 0,0.84375 -0.75,0 0,-0.84375 -0.609375,0 c -0.382812,0 -0.671875,-0.0352 -0.85937501,-0.10938 -0.246094,-0.0898 -0.453125,-0.25391 -0.609375,-0.48437 -0.1523437,-0.23829 -0.234375004064,-0.56641 -0.234375004064,-0.98438 0,-0.26953 0.03906250406,-0.57031 0.109375004064,-0.90625 l 0.84375,0.14063 c -0.039062,0.21093 -0.0625,0.40234 -0.0625,0.57812 0,0.29297 0.066406,0.50391 0.18750001,0.625 0.125,0.11719 0.363281,0.17188 0.703125,0.17188 l 0.53125,0 0,-1.10938 0.75,0 0,1.10938 4.953125,0 z"
     style="fill:#000000;fill-opacity:1;fill-rule:nonzero;stroke:none" />
  <path
     inkscape:connector-curvature="0"
     id="path294"
     d="m 7.3124756,110.62891 c 0.304688,0.36718 0.519531,0.71484 0.640625,1.04687 0.121094,0.32422 0.1875,0.67969 0.1875,1.0625 0,0.625 -0.148437,1.11328 -0.453125,1.45313 -0.308594,0.33593 -0.703125,0.5 -1.171875,0.5 -0.277344,0 -0.535156,-0.0625 -0.765625,-0.1875 -0.226562,-0.13282 -0.410156,-0.30078 -0.546875,-0.5 -0.144531,-0.20703 -0.253906,-0.44141 -0.328125,-0.70313 -0.050781,-0.18359 -0.097656,-0.47265 -0.140625,-0.85937 -0.089844,-0.77735 -0.207031,-1.35157 -0.34375,-1.71875 -0.121094,-0.008 -0.207031,-0.0156 -0.25,-0.0156 -0.394531,0 -0.671875,0.0977 -0.828125,0.28125 -0.214844,0.24219 -0.328125,0.60547 -0.328125,1.09375 0,0.46094 0.082031,0.80078 0.234375,1.01563 0.15625,0.21093 0.441406,0.36718 0.84375,0.46875 l -0.125,0.95312 c -0.402344,-0.082 -0.734375,-0.22265 -0.984375,-0.42187 -0.246094,-0.19532 -0.4375,-0.48438 -0.5625,-0.85938 -0.132812,-0.37109 -0.203125,-0.80469 -0.203125,-1.29687 0,-0.48828 0.058594,-0.88282 0.171875,-1.1875 0.117188,-0.30078 0.261719,-0.51953 0.4375,-0.65625 0.167969,-0.14453 0.382813,-0.25 0.640625,-0.3125 0.167969,-0.0273 0.472656,-0.0469 0.90625,-0.0469 l 1.28125,0 c 0.898438,0 1.464844,-0.0195 1.703125,-0.0625 0.242188,-0.0391 0.472656,-0.125 0.6875,-0.25 l 0,1.01563 c -0.195312,0.10547 -0.429687,0.16797 -0.703125,0.1875 z m -2.15625,0.0937 c 0.148438,0.34375 0.269531,0.87109 0.359375,1.57812 0.0625,0.39844 0.132813,0.67969 0.203125,0.84375 0.0625,0.15625 0.167969,0.28516 0.3125,0.375 0.136719,0.0937 0.289063,0.14063 0.453125,0.14063 0.261719,0 0.480469,-0.0977 0.65625,-0.29688 0.167969,-0.19531 0.25,-0.48437 0.25,-0.85937 0,-0.3711 -0.082031,-0.70313 -0.25,-0.98438 -0.164062,-0.28901 -0.390625,-0.50776 -0.671875,-0.6562 -0.214844,-0.0898 -0.539062,-0.14062 -0.96875,-0.14062 z"
     style="fill:#000000;fill-opacity:1;fill-rule:nonzero;stroke:none" />
  <path
     inkscape:connector-curvature="0"
     id="path296"
     d="m 1.2499756,108.23438 -1.10937501,0 0,-0.96875 1.10937501,0 z m 6.765625,0 -5.703125,0 0,-0.96875 5.703125,0 z"
     style="fill:#000000;fill-opacity:1;fill-rule:nonzero;stroke:none" />
  <path
     inkscape:connector-curvature="0"
     id="path298"
     d="m 0.14060059,104.85156 7.87500001,0 0,0.96875 -7.87500001,0 z"
     style="fill:#000000;fill-opacity:1;fill-rule:nonzero;stroke:none" />
  <path
     inkscape:connector-curvature="0"
     id="path300"
     d="m 1.2499756,103.34766 -1.10937501,0 0,-0.96875 1.10937501,0 z m 6.765625,0 -5.703125,0 0,-0.96875 5.703125,0 z"
     style="fill:#000000;fill-opacity:1;fill-rule:nonzero;stroke:none" />
  <path
     inkscape:connector-curvature="0"
     id="path302"
     d="m 8.0156006,100.92188 -5.703125,0 0,-0.875 0.8125,0 c -0.621094,-0.414067 -0.9375,-1.019536 -0.9375,-1.812505 0,-0.339844 0.066406,-0.660156 0.1875,-0.953125 0.117188,-0.289062 0.277344,-0.503906 0.484375,-0.640625 0.199219,-0.144531 0.433594,-0.25 0.703125,-0.3125 0.1875,-0.02734 0.507813,-0.04687 0.953125,-0.04687 l 3.5,0 0,0.96875 -3.46875,0 c -0.394531,0 -0.6875,0.03906 -0.875,0.109375 -0.195312,0.07422 -0.351562,0.210938 -0.46875,0.40625 -0.121094,0.1875 -0.1875,0.414063 -0.1875,0.671875 0,0.40625 0.132813,0.761719 0.390625,1.0625 0.261719,0.304688 0.761719,0.453125 1.5,0.453125 l 3.109375,0 z"
     style="fill:#000000;fill-opacity:1;fill-rule:nonzero;stroke:none" />
  <path
     inkscape:connector-curvature="0"
     id="path304"
     d="m 8.4843506,94.976563 0.140625,-0.9375 C 8.9140386,94 9.1288816,93.890625 9.2656006,93.710938 c 0.175781,-0.238282 0.265625,-0.566407 0.265625,-0.984375 0,-0.445313 -0.089844,-0.789063 -0.265625,-1.03125 -0.179687,-0.246094 -0.429687,-0.414063 -0.75,-0.5 -0.199219,-0.05078 -0.613281,-0.07813 -1.25,-0.07813 0.5,0.429687 0.75,0.960937 0.75,1.59375 0,0.78125 -0.28125,1.386718 -0.84375,1.8125 -0.570312,0.429687 -1.253906,0.640625 -2.046875,0.640625 -0.539062,0 -1.039062,-0.09766 -1.5,-0.296875 -0.457031,-0.195313 -0.8125,-0.476563 -1.0625,-0.84375 -0.246094,-0.371094 -0.375,-0.816407 -0.375,-1.328125 0,-0.664063 0.273438,-1.21875 0.8125,-1.65625 l -0.6875,0 0,-0.890625 4.921875,0 c 0.894531,0 1.523438,0.08984 1.890625,0.265625 0.371094,0.179687 0.664063,0.464843 0.875,0.859375 0.2148444,0.398437 0.3281254,0.882812 0.3281254,1.453125 0,0.679687 -0.160156,1.226562 -0.4687504,1.640625 -0.304687,0.417968 -0.761719,0.621093 -1.375,0.609375 z m -3.421875,-0.796875 c 0.75,0 1.300781,-0.144532 1.640625,-0.4375 0.34375,-0.300782 0.515625,-0.675782 0.515625,-1.125 0,-0.445313 -0.171875,-0.820313 -0.515625,-1.125 -0.339844,-0.300782 -0.878906,-0.453125 -1.609375,-0.453125 -0.695312,0 -1.222656,0.160156 -1.578125,0.46875 -0.351562,0.3125 -0.53125,0.691406 -0.53125,1.125 0,0.429687 0.179688,0.792968 0.53125,1.09375 0.34375,0.304687 0.863281,0.453125 1.546875,0.453125 z"
     style="fill:#000000;fill-opacity:1;fill-rule:nonzero;stroke:none" />
  <path
     inkscape:connector-curvature="0"
     id="path306"
     d="m 8.0156006,83.492188 -6.9375,0 0,2.59375 -0.93750001,0 0,-6.234375 0.93750001,0 0,2.609375 6.9375,0 z"
     style="fill:#000000;fill-opacity:1;fill-rule:nonzero;stroke:none" />
  <path
     inkscape:connector-curvature="0"
     id="path308"
     d="m 5.2499756,73.160156 0.265625,-1.046875 c 0.855469,0.21875 1.511719,0.617188 1.96875,1.1875 0.449219,0.5625 0.671875,1.257813 0.671875,2.078125 0,0.855469 -0.171875,1.550782 -0.515625,2.078125 -0.351562,0.53125 -0.859375,0.941407 -1.515625,1.21875 -0.652344,0.273438 -1.359375,0.40625 -2.109375,0.40625 -0.808594,0 -1.523437,-0.15625 -2.140625,-0.46875 C 1.2616946,78.304688 0.79685059,77.859375 0.48435059,77.285156 0.16403859,76.703125 -2.4414064e-5,76.0625 -2.4414064e-5,75.363281 c 0,-0.789062 0.207031004064,-1.453125 0.609375004064,-1.984375 0.39843801,-0.539062 0.96093801,-0.914062 1.68750001,-1.125 l 0.25,1.03125 c -0.570312,0.179688 -0.988281,0.445313 -1.25,0.796875 -0.257812,0.34375 -0.39062501,0.777344 -0.39062501,1.296875 0,0.617188 0.14843801,1.128907 0.43750001,1.53125 0.28125,0.40625 0.667969,0.695313 1.15625,0.859375 0.492188,0.15625 0.996094,0.234375 1.515625,0.234375 0.667969,0 1.253906,-0.09375 1.75,-0.28125 0.5,-0.195312 0.878906,-0.5 1.125,-0.90625 0.25,-0.414062 0.375,-0.863281 0.375,-1.34375 0,-0.582031 -0.164062,-1.078125 -0.5,-1.484375 -0.339844,-0.402343 -0.847656,-0.679687 -1.515625,-0.828125 z"
     style="fill:#000000;fill-opacity:1;fill-rule:nonzero;stroke:none" />
  <path
     inkscape:connector-curvature="0"
     id="path310"
     d="m 41.292945,0.375 414.722655,0 0,371.51953 -414.722655,0 z"
     style="fill:none;stroke:#000000;stroke-width:0.75;stroke-linecap:round;stroke-linejoin:round;stroke-miterlimit:10;stroke-opacity:1" />
</svg>
