<?xml version="1.0" encoding="UTF-8" standalone="no"?>
<svg
   xmlns:dc="http://purl.org/dc/elements/1.1/"
   xmlns:cc="http://creativecommons.org/ns#"
   xmlns:rdf="http://www.w3.org/1999/02/22-rdf-syntax-ns#"
   xmlns:svg="http://www.w3.org/2000/svg"
   xmlns="http://www.w3.org/2000/svg"
   xmlns:xlink="http://www.w3.org/1999/xlink"
   xmlns:sodipodi="http://sodipodi.sourceforge.net/DTD/sodipodi-0.dtd"
   xmlns:inkscape="http://www.inkscape.org/namespaces/inkscape"
   width="454.793pt"
   height="391.24182pt"
   viewBox="0 0 454.793 391.24182"
   version="1.1"
   id="svg2"
   inkscape:version="0.91 r13725"
   sodipodi:docname="similarity_time.svg">
  <metadata
     id="metadata318">
    <rdf:RDF>
      <cc:Work
         rdf:about="">
        <dc:format>image/svg+xml</dc:format>
        <dc:type
           rdf:resource="http://purl.org/dc/dcmitype/StillImage" />
        <dc:title></dc:title>
      </cc:Work>
    </rdf:RDF>
  </metadata>
  <sodipodi:namedview
     pagecolor="#ffffff"
     bordercolor="#666666"
     borderopacity="1"
     objecttolerance="10"
     gridtolerance="10"
     guidetolerance="10"
     inkscape:pageopacity="0"
     inkscape:pageshadow="2"
     inkscape:window-width="1280"
     inkscape:window-height="738"
     id="namedview316"
     showgrid="false"
     fit-margin-top="0"
     fit-margin-left="0"
     fit-margin-right="0"
     fit-margin-bottom="0"
     inkscape:zoom="0.87430179"
     inkscape:cx="350.58326"
     inkscape:cy="216.83504"
     inkscape:window-x="-8"
     inkscape:window-y="-8"
     inkscape:window-maximized="1"
     inkscape:current-layer="svg2" />
  <defs
     id="defs4">
    <clipPath
       id="clip1">
      <path
         d="m 39.695313,0.375 414.722657,0 0,371.51953 -414.722657,0 z"
         id="path7"
         inkscape:connector-curvature="0" />
    </clipPath>
    <clipPath
       id="clip3">
      <path
         d="m 0.695313,0.375 414.722657,0 0,371.51953 -414.722657,0 z"
         id="path10"
         inkscape:connector-curvature="0" />
    </clipPath>
    <clipPath
       id="clip4">
      <path
         d="m 0.601563,0 414.999997,0 0,372 -414.999997,0 z"
         id="path13"
         inkscape:connector-curvature="0" />
    </clipPath>
    <clipPath
       id="clip6">
      <path
         d="m 0.695313,0.375 414.722657,0 0,371.51953 -414.722657,0 z"
         id="path16"
         inkscape:connector-curvature="0" />
    </clipPath>
    <clipPath
       id="clip7">
      <path
         d="m 0.601563,0 414.999997,0 0,372 -414.999997,0 z"
         id="path19"
         inkscape:connector-curvature="0" />
    </clipPath>
    <clipPath
       id="clip8">
      <path
         d="m 0.695313,0.375 414.722657,0 0,371.51953 -414.722657,0 z"
         id="path22"
         inkscape:connector-curvature="0" />
    </clipPath>
    <clipPath
       id="clip10">
      <path
         d="m 0.695313,0.375 414.722657,0 0,371.51953 -414.722657,0 z"
         id="path25"
         inkscape:connector-curvature="0" />
    </clipPath>
    <clipPath
       id="clip11">
      <path
         d="m 0.601563,0 414.999997,0 0,372 -414.999997,0 z"
         id="path28"
         inkscape:connector-curvature="0" />
    </clipPath>
    <clipPath
       id="clip12">
      <path
         d="m 0.695313,0.375 414.722657,0 0,371.51953 -414.722657,0 z"
         id="path31"
         inkscape:connector-curvature="0" />
    </clipPath>
    <clipPath
       id="clip9">
      <rect
         width="416"
         height="372"
         id="rect34"
         x="0"
         y="0" />
    </clipPath>
    <g
       id="surface112"
       clip-path="url(#clip9)">
      <g
         clip-path="url(#clip10)"
         id="g37"
         style="clip-rule:nonzero">
        <g
           clip-path="url(#clip11)"
           id="g39"
           style="clip-rule:nonzero">
          <g
             clip-path="url(#clip12)"
             id="g41"
             style="clip-rule:nonzero">
            <path
               style="fill:#ffffff;fill-opacity:1;fill-rule:nonzero;stroke:none"
               d="m 28.855469,162.23437 102.402341,0 0,179.64063 -102.402341,0 z"
               id="path43"
               inkscape:connector-curvature="0" />
            <path
               style="fill:none;stroke:#000000;stroke-width:2.25;stroke-linecap:butt;stroke-linejoin:round;stroke-miterlimit:10;stroke-opacity:1"
               d="m 28.855469,-311.03516 102.402341,0"
               transform="scale(1,-1)"
               id="path45"
               inkscape:connector-curvature="0" />
            <path
               style="fill:none;stroke:#000000;stroke-width:0.75;stroke-linecap:round;stroke-linejoin:round;stroke-miterlimit:10;stroke-dasharray:2.25, 3.75;stroke-opacity:1"
               d="m 80.054688,-358.13672 0,16.26172"
               transform="scale(1,-1)"
               id="path47"
               inkscape:connector-curvature="0" />
            <path
               style="fill:none;stroke:#000000;stroke-width:0.75;stroke-linecap:round;stroke-linejoin:round;stroke-miterlimit:10;stroke-dasharray:2.25, 3.75;stroke-opacity:1"
               d="m 80.054688,-14.136719 0,-148.097651"
               transform="scale(1,-1)"
               id="path49"
               inkscape:connector-curvature="0" />
            <path
               style="fill:none;stroke:#000000;stroke-width:0.75;stroke-linecap:round;stroke-linejoin:round;stroke-miterlimit:10;stroke-opacity:1"
               d="m 54.457031,-358.13672 51.199219,0"
               transform="scale(1,-1)"
               id="path51"
               inkscape:connector-curvature="0" />
            <path
               style="fill:none;stroke:#000000;stroke-width:0.75;stroke-linecap:round;stroke-linejoin:round;stroke-miterlimit:10;stroke-opacity:1"
               d="m 54.457031,-14.136719 51.199219,0"
               transform="scale(1,-1)"
               id="path53"
               inkscape:connector-curvature="0" />
            <path
               style="fill:none;stroke:#000000;stroke-width:0.75;stroke-linecap:round;stroke-linejoin:round;stroke-miterlimit:10;stroke-opacity:1"
               d="m 28.855469,-162.23437 102.402341,0 0,-179.64063 -102.402341,0 z"
               transform="scale(1,-1)"
               id="path55"
               inkscape:connector-curvature="0" />
            <path
               style="fill:#ffffff;fill-opacity:1;fill-rule:nonzero;stroke:none"
               d="m 156.85547,193.36719 102.40234,0 0,147.36718 -102.40234,0 z"
               id="path57"
               inkscape:connector-curvature="0" />
            <path
               style="fill:none;stroke:#000000;stroke-width:2.25;stroke-linecap:butt;stroke-linejoin:round;stroke-miterlimit:10;stroke-opacity:1"
               d="m 156.85547,-297.67578 102.40234,0"
               transform="scale(1,-1)"
               id="path59"
               inkscape:connector-curvature="0" />
            <path
               style="fill:none;stroke:#000000;stroke-width:0.75;stroke-linecap:round;stroke-linejoin:round;stroke-miterlimit:10;stroke-dasharray:2.25, 3.75;stroke-opacity:1"
               d="m 208.05469,-358.13672 0,17.40235"
               transform="scale(1,-1)"
               id="path61"
               inkscape:connector-curvature="0" />
            <path
               style="fill:none;stroke:#000000;stroke-width:0.75;stroke-linecap:round;stroke-linejoin:round;stroke-miterlimit:10;stroke-dasharray:2.25, 3.75;stroke-opacity:1"
               d="m 208.05469,-14.136719 0,-179.230471"
               transform="scale(1,-1)"
               id="path63"
               inkscape:connector-curvature="0" />
            <path
               style="fill:none;stroke:#000000;stroke-width:0.75;stroke-linecap:round;stroke-linejoin:round;stroke-miterlimit:10;stroke-opacity:1"
               d="m 182.45703,-358.13672 51.19922,0"
               transform="scale(1,-1)"
               id="path65"
               inkscape:connector-curvature="0" />
            <path
               style="fill:none;stroke:#000000;stroke-width:0.75;stroke-linecap:round;stroke-linejoin:round;stroke-miterlimit:10;stroke-opacity:1"
               d="m 182.45703,-14.136719 51.19922,0"
               transform="scale(1,-1)"
               id="path67"
               inkscape:connector-curvature="0" />
            <path
               style="fill:none;stroke:#000000;stroke-width:0.75;stroke-linecap:round;stroke-linejoin:round;stroke-miterlimit:10;stroke-opacity:1"
               d="m 156.85547,-193.36719 102.40234,0 0,-147.36718 -102.40234,0 z"
               transform="scale(1,-1)"
               id="path69"
               inkscape:connector-curvature="0" />
            <path
               style="fill:#ffffff;fill-opacity:1;fill-rule:nonzero;stroke:none"
               d="m 284.85547,263.53516 102.40234,0 0,81.5625 -102.40234,0 z"
               id="path71"
               inkscape:connector-curvature="0" />
            <path
               style="fill:none;stroke:#000000;stroke-width:2.25;stroke-linecap:butt;stroke-linejoin:round;stroke-miterlimit:10;stroke-opacity:1"
               d="m 284.85547,-318.46484 102.40234,0"
               transform="scale(1,-1)"
               id="path73"
               inkscape:connector-curvature="0" />
            <path
               style="fill:none;stroke:#000000;stroke-width:0.75;stroke-linecap:round;stroke-linejoin:round;stroke-miterlimit:10;stroke-dasharray:2.25, 3.75;stroke-opacity:1"
               d="m 336.05469,-358.13672 0,13.03906"
               transform="scale(1,-1)"
               id="path75"
               inkscape:connector-curvature="0" />
            <path
               style="fill:none;stroke:#000000;stroke-width:0.75;stroke-linecap:round;stroke-linejoin:round;stroke-miterlimit:10;stroke-dasharray:2.25, 3.75;stroke-opacity:1"
               d="m 336.05469,-166.82422 0,-96.71094"
               transform="scale(1,-1)"
               id="path77"
               inkscape:connector-curvature="0" />
            <path
               style="fill:none;stroke:#000000;stroke-width:0.75;stroke-linecap:round;stroke-linejoin:round;stroke-miterlimit:10;stroke-opacity:1"
               d="m 310.45703,-358.13672 51.19922,0"
               transform="scale(1,-1)"
               id="path79"
               inkscape:connector-curvature="0" />
            <path
               style="fill:none;stroke:#000000;stroke-width:0.75;stroke-linecap:round;stroke-linejoin:round;stroke-miterlimit:10;stroke-opacity:1"
               d="m 310.45703,-166.82422 51.19922,0"
               transform="scale(1,-1)"
               id="path81"
               inkscape:connector-curvature="0" />
            <path
               style="fill:none;stroke:#000000;stroke-width:0.75;stroke-linecap:round;stroke-linejoin:round;stroke-miterlimit:10;stroke-opacity:1"
               d="m 284.85547,-263.53516 102.40234,0 0,-81.5625 -102.40234,0 z"
               transform="scale(1,-1)"
               id="path83"
               inkscape:connector-curvature="0" />
            <path
               style="fill:none;stroke:#000000;stroke-width:0.75;stroke-linecap:round;stroke-linejoin:round;stroke-miterlimit:10;stroke-opacity:1"
               d="m 336.83203,-18.140625 -0.64062,0 0,1.84375 c -0.19922,-0.179687 -0.39844,-0.308594 -0.59375,-0.390625 -0.19922,-0.08203 -0.41407,-0.125 -0.64063,-0.125 -0.46094,0 -0.82422,0.171875 -1.09375,0.515625 -0.26172,0.351563 -0.39062,0.835938 -0.39062,1.453125 0,0.332031 0.0469,0.625 0.14062,0.875 0.0898,0.246094 0.21875,0.460938 0.375,0.640625 0.14453,0.164063 0.31641,0.289063 0.51563,0.375 0.20703,0.08984 0.42578,0.140625 0.65625,0.140625 0.19531,0 0.375,-0.02734 0.53125,-0.07813 0.16406,-0.04297 0.33203,-0.105469 0.5,-0.1875 l 0.0312,0.15625 0.60937,0 z m -0.64062,2.375 0,2.15625 c -0.1875,0.08203 -0.35157,0.140625 -0.48438,0.171875 -0.13672,0.02734 -0.28516,0.04687 -0.4375,0.04687 -0.375,0 -0.66406,-0.128906 -0.85937,-0.375 -0.1875,-0.25 -0.28125,-0.601562 -0.28125,-1.046875 0,-0.4375 0.0781,-0.785156 0.23437,-1.03125 0.15234,-0.242187 0.39844,-0.359375 0.73438,-0.359375 0.18359,0 0.375,0.03906 0.5625,0.125 0.18359,0.08203 0.36328,0.1875 0.53125,0.3125 z"
               transform="scale(1,-1)"
               id="path85"
               inkscape:connector-curvature="0" />
          </g>
        </g>
      </g>
    </g>
    <clipPath
       id="clip5">
      <rect
         width="416"
         height="372"
         id="rect88"
         x="0"
         y="0" />
    </clipPath>
    <g
       id="surface111"
       clip-path="url(#clip5)">
      <g
         clip-path="url(#clip6)"
         id="g91"
         style="clip-rule:nonzero">
        <g
           clip-path="url(#clip7)"
           id="g93"
           style="clip-rule:nonzero">
          <g
             clip-path="url(#clip8)"
             id="g95"
             style="clip-rule:nonzero">
            <use
               xlink:href="#surface112"
               id="use97"
               x="0"
               y="0"
               width="100%"
               height="100%" />
          </g>
        </g>
      </g>
    </g>
    <clipPath
       id="clip2">
      <rect
         width="416"
         height="372"
         id="rect100"
         x="0"
         y="0" />
    </clipPath>
    <g
       id="surface110"
       clip-path="url(#clip2)">
      <g
         clip-path="url(#clip3)"
         id="g103"
         style="clip-rule:nonzero">
        <g
           clip-path="url(#clip4)"
           id="g105"
           style="clip-rule:nonzero">
          <use
             xlink:href="#surface111"
             id="use107"
             x="0"
             y="0"
             width="100%"
             height="100%" />
        </g>
      </g>
    </g>
  </defs>
  <g
     style="clip-rule:nonzero"
     id="g110"
     clip-path="url(#clip1)">
    <use
       height="100%"
       width="100%"
       y="0"
       x="0"
       id="use112"
       transform="translate(39,0)"
       xlink:href="#surface110" />
  </g>
  <path
     inkscape:connector-curvature="0"
     id="path114"
     d="m 119.05469,371.89453 256,0"
     style="fill:none;stroke:#000000;stroke-width:0.75;stroke-linecap:round;stroke-linejoin:round;stroke-miterlimit:10;stroke-opacity:1" />
  <path
     inkscape:connector-curvature="0"
     id="path116"
     d="m 119.05469,371.89453 0,7.20313"
     style="fill:none;stroke:#000000;stroke-width:0.75;stroke-linecap:round;stroke-linejoin:round;stroke-miterlimit:10;stroke-opacity:1" />
  <path
     inkscape:connector-curvature="0"
     id="path118"
     d="m 247.05469,371.89453 0,7.20313"
     style="fill:none;stroke:#000000;stroke-width:0.75;stroke-linecap:round;stroke-linejoin:round;stroke-miterlimit:10;stroke-opacity:1" />
  <path
     inkscape:connector-curvature="0"
     id="path120"
     d="m 375.05469,371.89453 0,7.20313"
     style="fill:none;stroke:#000000;stroke-width:0.75;stroke-linecap:round;stroke-linejoin:round;stroke-miterlimit:10;stroke-opacity:1" />
  <g
     id="g4549"
     transform="matrix(0,1,-0.99999999,0,525.83984,265.7809)">
    <path
       style="fill:#000000;fill-opacity:1;fill-rule:nonzero;stroke:none"
       d="m 123.00781,428.55469 -6.9375,0 0,2.59375 -0.9375,0 0,-6.23438 0.9375,0 0,2.60938 6.9375,0 z"
       id="path122"
       inkscape:connector-curvature="0" />
    <path
       style="fill:#000000;fill-opacity:1;fill-rule:nonzero;stroke:none"
       d="m 123.00781,425.29687 -5.70312,0 0,-0.85937 0.85937,0 c -0.40234,-0.22656 -0.67187,-0.4375 -0.79687,-0.625 -0.1211,-0.18359 -0.1875,-0.39063 -0.1875,-0.60938 0,-0.33203 0.10547,-0.66406 0.3125,-1 l 0.89062,0.32813 c -0.13281,0.24219 -0.20312,0.48047 -0.20312,0.71875 0,0.21094 0.0664,0.39844 0.1875,0.5625 0.125,0.16797 0.30469,0.28906 0.53125,0.35937 0.34375,0.10547 0.72265,0.15625 1.125,0.15625 l 2.98437,0 z"
       id="path124"
       inkscape:connector-curvature="0" />
    <path
       style="fill:#000000;fill-opacity:1;fill-rule:nonzero;stroke:none"
       d="m 122.30469,418.00781 c 0.30469,0.36719 0.51953,0.71485 0.64062,1.04688 0.1211,0.32422 0.1875,0.67968 0.1875,1.0625 0,0.625 -0.14843,1.11328 -0.45312,1.45312 -0.3086,0.33594 -0.70313,0.5 -1.17188,0.5 -0.27734,0 -0.53515,-0.0625 -0.76562,-0.1875 -0.22656,-0.13281 -0.41016,-0.30078 -0.54688,-0.5 -0.14453,-0.20703 -0.2539,-0.4414 -0.32812,-0.70312 -0.0508,-0.1836 -0.0977,-0.47266 -0.14063,-0.85938 -0.0898,-0.77734 -0.20703,-1.35156 -0.34375,-1.71875 -0.12109,-0.008 -0.20703,-0.0156 -0.25,-0.0156 -0.39453,0 -0.67187,0.0976 -0.82812,0.28125 -0.21485,0.24218 -0.32813,0.60547 -0.32813,1.09375 0,0.46093 0.082,0.80078 0.23438,1.01562 0.15625,0.21094 0.4414,0.36719 0.84375,0.46875 l -0.125,0.95313 c -0.40235,-0.082 -0.73438,-0.22266 -0.98438,-0.42188 -0.24609,-0.19531 -0.4375,-0.48437 -0.5625,-0.85937 -0.13281,-0.3711 -0.20312,-0.80469 -0.20312,-1.29688 0,-0.48828 0.0586,-0.88281 0.17187,-1.1875 0.11719,-0.30078 0.26172,-0.51953 0.4375,-0.65625 0.16797,-0.14453 0.38282,-0.25 0.64063,-0.3125 0.16797,-0.0273 0.47265,-0.0469 0.90625,-0.0469 l 1.28125,0 c 0.89844,0 1.46484,-0.0195 1.70312,-0.0625 0.24219,-0.0391 0.47266,-0.125 0.6875,-0.25 l 0,1.01562 c -0.19531,0.10547 -0.42968,0.16797 -0.70312,0.1875 z m -2.15625,0.0937 c 0.14844,0.34375 0.26953,0.8711 0.35937,1.57813 0.0625,0.39843 0.13282,0.67968 0.20313,0.84375 0.0625,0.15625 0.16797,0.28515 0.3125,0.375 0.13672,0.0937 0.28906,0.14062 0.45312,0.14062 0.26172,0 0.48047,-0.0976 0.65625,-0.29687 0.16797,-0.19532 0.25,-0.48438 0.25,-0.85938 0,-0.37109 -0.082,-0.70312 -0.25,-0.98437 -0.16406,-0.28907 -0.39062,-0.50782 -0.67187,-0.65625 -0.21485,-0.0899 -0.53906,-0.14063 -0.96875,-0.14063 z"
       id="path126"
       inkscape:connector-curvature="0" />
    <path
       style="fill:#000000;fill-opacity:1;fill-rule:nonzero;stroke:none"
       d="m 123.00781,411.92187 -0.71875,0 c 0.5625,0.35547 0.84375,0.88672 0.84375,1.59375 0,0.44922 -0.125,0.86719 -0.375,1.25 -0.24609,0.38672 -0.59765,0.6836 -1.04687,0.89063 -0.44531,0.21094 -0.96094,0.3125 -1.54688,0.3125 -0.57031,0 -1.08593,-0.0937 -1.54687,-0.28125 -0.46485,-0.19531 -0.82031,-0.48438 -1.0625,-0.85938 -0.2461,-0.37109 -0.375,-0.79687 -0.375,-1.26562 0,-0.33984 0.0742,-0.64844 0.21875,-0.92188 0.14844,-0.26953 0.33594,-0.48828 0.5625,-0.65625 l -2.82813,0 0,-0.96875 7.875,0 z m -2.84375,3.04688 c 0.73047,0 1.27735,-0.14844 1.64063,-0.45313 0.35547,-0.30859 0.53125,-0.67578 0.53125,-1.09375 0,-0.42578 -0.17188,-0.78515 -0.51563,-1.07812 -0.33984,-0.28906 -0.86718,-0.4375 -1.57812,-0.4375 -0.77735,0 -1.35156,0.15234 -1.71875,0.45312 -0.36328,0.29297 -0.54688,0.66407 -0.54688,1.10938 0,0.42969 0.17969,0.78906 0.53125,1.07812 0.34375,0.28125 0.89844,0.42188 1.65625,0.42188 z"
       id="path128"
       inkscape:connector-curvature="0" />
    <path
       style="fill:#000000;fill-opacity:1;fill-rule:nonzero;stroke:none"
       d="m 116.24219,409.49609 -1.10938,0 0,-0.96875 1.10938,0 z m 6.76562,0 -5.70312,0 0,-0.96875 5.70312,0 z"
       id="path130"
       inkscape:connector-curvature="0" />
    <path
       style="fill:#000000;fill-opacity:1;fill-rule:nonzero;stroke:none"
       d="m 122.14844,404.94531 0.84375,-0.125 c 0.0586,0.27344 0.0937,0.51172 0.0937,0.71875 0,0.35547 -0.0586,0.63281 -0.17188,0.82813 -0.11328,0.1875 -0.25781,0.32422 -0.4375,0.40625 -0.17578,0.0742 -0.55468,0.10937 -1.14062,0.10937 l -3.28125,0 0,0.71875 -0.75,0 0,-0.71875 -1.40625,0 -0.59375,-0.95312 2,0 0,-0.98438 0.75,0 0,0.98438 3.34375,0 c 0.27344,0 0.44922,-0.0156 0.53125,-0.0469 0.0742,-0.0391 0.13672,-0.0976 0.1875,-0.17187 0.043,-0.082 0.0625,-0.19141 0.0625,-0.32813 0,-0.11328 -0.008,-0.25781 -0.0312,-0.4375 z"
       id="path132"
       inkscape:connector-curvature="0" />
    <path
       style="fill:#000000;fill-opacity:1;fill-rule:nonzero;stroke:none"
       d="m 116.24219,403.99609 -1.10938,0 0,-0.96875 1.10938,0 z m 6.76562,0 -5.70312,0 0,-0.96875 5.70312,0 z"
       id="path134"
       inkscape:connector-curvature="0" />
    <path
       style="fill:#000000;fill-opacity:1;fill-rule:nonzero;stroke:none"
       d="m 120.14844,401.92969 c -1.05078,0 -1.83203,-0.29688 -2.34375,-0.89063 -0.41406,-0.48828 -0.625,-1.08594 -0.625,-1.79687 0,-0.77735 0.25781,-1.41407 0.76562,-1.90625 0.51172,-0.4961 1.22266,-0.75 2.125,-0.75 0.74219,0 1.32422,0.11328 1.75,0.32812 0.41797,0.21875 0.74219,0.54297 0.96875,0.96875 0.22657,0.41797 0.34375,0.8711 0.34375,1.35938 0,0.80468 -0.2539,1.45703 -0.76562,1.95312 -0.50781,0.49219 -1.25,0.73438 -2.21875,0.73438 z m 0,-1 c 0.74219,0 1.29297,-0.15625 1.65625,-0.46875 0.35547,-0.32032 0.53125,-0.72657 0.53125,-1.21875 0,-0.47657 -0.17969,-0.875 -0.54688,-1.1875 -0.36328,-0.32032 -0.92187,-0.48438 -1.67187,-0.48438 -0.69531,0 -1.22656,0.16406 -1.59375,0.48438 -0.36328,0.32422 -0.54688,0.72265 -0.54688,1.1875 0,0.49218 0.1836,0.89843 0.54688,1.21875 0.35547,0.3125 0.89844,0.46875 1.625,0.46875 z"
       id="path136"
       inkscape:connector-curvature="0" />
    <path
       style="fill:#000000;fill-opacity:1;fill-rule:nonzero;stroke:none"
       d="m 123.00781,395.45312 -5.70312,0 0,-0.875 0.8125,0 c -0.6211,-0.41406 -0.9375,-1.01953 -0.9375,-1.8125 0,-0.33984 0.0664,-0.66015 0.1875,-0.95312 0.11719,-0.28906 0.27734,-0.50391 0.48437,-0.64063 0.19922,-0.14453 0.4336,-0.25 0.70313,-0.3125 0.1875,-0.0273 0.50781,-0.0469 0.95312,-0.0469 l 3.5,0 0,0.96875 -3.46875,0 c -0.39453,0 -0.6875,0.0391 -0.875,0.10937 -0.19531,0.0742 -0.35156,0.21094 -0.46875,0.40625 -0.12109,0.1875 -0.1875,0.41407 -0.1875,0.67188 0,0.40625 0.13282,0.76172 0.39063,1.0625 0.26172,0.30469 0.76172,0.45312 1.5,0.45312 l 3.10937,0 z"
       id="path138"
       inkscape:connector-curvature="0" />
    <path
       style="fill:#000000;fill-opacity:1;fill-rule:nonzero;stroke:none"
       d="m 122.30469,385.60156 c 0.30469,0.36719 0.51953,0.71485 0.64062,1.04688 0.1211,0.32422 0.1875,0.67968 0.1875,1.0625 0,0.625 -0.14843,1.11328 -0.45312,1.45312 -0.3086,0.33594 -0.70313,0.5 -1.17188,0.5 -0.27734,0 -0.53515,-0.0625 -0.76562,-0.1875 -0.22656,-0.13281 -0.41016,-0.30078 -0.54688,-0.5 -0.14453,-0.20703 -0.2539,-0.4414 -0.32812,-0.70312 -0.0508,-0.1836 -0.0977,-0.47266 -0.14063,-0.85938 -0.0898,-0.77734 -0.20703,-1.35156 -0.34375,-1.71875 -0.12109,-0.008 -0.20703,-0.0156 -0.25,-0.0156 -0.39453,0 -0.67187,0.0976 -0.82812,0.28125 -0.21485,0.24218 -0.32813,0.60547 -0.32813,1.09375 0,0.46093 0.082,0.80078 0.23438,1.01562 0.15625,0.21094 0.4414,0.36719 0.84375,0.46875 l -0.125,0.95313 c -0.40235,-0.082 -0.73438,-0.22266 -0.98438,-0.42188 -0.24609,-0.19531 -0.4375,-0.48437 -0.5625,-0.85937 -0.13281,-0.3711 -0.20312,-0.80469 -0.20312,-1.29688 0,-0.48828 0.0586,-0.88281 0.17187,-1.1875 0.11719,-0.30078 0.26172,-0.51953 0.4375,-0.65625 0.16797,-0.14453 0.38282,-0.25 0.64063,-0.3125 0.16797,-0.0273 0.47265,-0.0469 0.90625,-0.0469 l 1.28125,0 c 0.89844,0 1.46484,-0.0195 1.70312,-0.0625 0.24219,-0.0391 0.47266,-0.125 0.6875,-0.25 l 0,1.01562 c -0.19531,0.10547 -0.42968,0.16797 -0.70312,0.1875 z m -2.15625,0.0937 c 0.14844,0.34375 0.26953,0.8711 0.35937,1.57813 0.0625,0.39843 0.13282,0.67968 0.20313,0.84375 0.0625,0.15625 0.16797,0.28515 0.3125,0.375 0.13672,0.0937 0.28906,0.14062 0.45312,0.14062 0.26172,0 0.48047,-0.0976 0.65625,-0.29687 0.16797,-0.19532 0.25,-0.48438 0.25,-0.85938 0,-0.37109 -0.082,-0.70312 -0.25,-0.98437 -0.16406,-0.28907 -0.39062,-0.50782 -0.67187,-0.65625 -0.21485,-0.0899 -0.53906,-0.14063 -0.96875,-0.14063 z"
       id="path140"
       inkscape:connector-curvature="0" />
    <path
       style="fill:#000000;fill-opacity:1;fill-rule:nonzero;stroke:none"
       d="m 115.13281,382.26562 7.875,0 0,0.96875 -7.875,0 z"
       id="path142"
       inkscape:connector-curvature="0" />
  </g>
  <g
     id="g4562"
     transform="matrix(0,1,-0.99999999,0,651.834,137.9215)">
    <path
       style="fill:#000000;fill-opacity:1;fill-rule:nonzero;stroke:none"
       d="m 248.47656,425.76562 -0.0781,-0.98437 c 0.38672,-0.0391 0.71093,-0.14453 0.96875,-0.3125 0.25,-0.17578 0.45703,-0.44141 0.60937,-0.79688 0.15625,-0.35156 0.23438,-0.7539 0.23438,-1.20312 0,-0.40234 -0.0547,-0.75781 -0.17188,-1.0625 -0.12109,-0.30078 -0.28515,-0.52344 -0.48437,-0.67188 -0.20703,-0.15234 -0.4375,-0.23437 -0.6875,-0.23437 -0.2461,0 -0.46094,0.0742 -0.64063,0.21875 -0.18359,0.14844 -0.34375,0.38672 -0.46875,0.71875 -0.082,0.21094 -0.20703,0.67969 -0.375,1.40625 -0.17578,0.71875 -0.34375,1.22656 -0.5,1.51562 -0.19531,0.375 -0.4414,0.66016 -0.73437,0.84375 -0.28907,0.17969 -0.61719,0.26563 -0.98438,0.26563 -0.39453,0 -0.76562,-0.10938 -1.10937,-0.32813 -0.33985,-0.22656 -0.60157,-0.55468 -0.78125,-0.98437 -0.1836,-0.43359 -0.28125,-0.92188 -0.28125,-1.45313 0,-0.58203 0.10156,-1.09765 0.29687,-1.54687 0.1875,-0.44531 0.46485,-0.78906 0.82813,-1.03125 0.36718,-0.23828 0.77734,-0.36719 1.23437,-0.39063 l 0.0781,1 c -0.4961,0.0547 -0.875,0.23829 -1.125,0.54688 -0.25782,0.3125 -0.39063,0.77344 -0.39063,1.375 0,0.625 0.1211,1.08594 0.35938,1.375 0.23047,0.29297 0.50781,0.4375 0.82812,0.4375 0.28125,0 0.51953,-0.10156 0.70313,-0.3125 0.17968,-0.19531 0.36718,-0.71875 0.5625,-1.5625 0.1875,-0.85156 0.35547,-1.4375 0.5,-1.75 0.21093,-0.45703 0.47656,-0.79688 0.79687,-1.01563 0.32422,-0.21484 0.69922,-0.32812 1.125,-0.32812 0.41797,0 0.81641,0.12109 1.1875,0.35937 0.36719,0.24219 0.65235,0.58985 0.85938,1.04688 0.20703,0.44922 0.3125,0.95703 0.3125,1.51562 0,0.71094 -0.10547,1.30469 -0.3125,1.78125 -0.20703,0.48047 -0.51953,0.86329 -0.9375,1.14063 -0.41407,0.27344 -0.89063,0.41406 -1.42188,0.42187 z"
       id="path144"
       inkscape:connector-curvature="0" />
    <path
       style="fill:#000000;fill-opacity:1;fill-rule:nonzero;stroke:none"
       d="m 244.24219,418.19531 -1.10938,0 0,-0.96875 1.10938,0 z m 6.76562,0 -5.70312,0 0,-0.96875 5.70312,0 z"
       id="path146"
       inkscape:connector-curvature="0" />
    <path
       style="fill:#000000;fill-opacity:1;fill-rule:nonzero;stroke:none"
       d="m 251.00781,415.76562 -5.70312,0 0,-0.875 0.79687,0 c -0.27734,-0.17578 -0.5039,-0.41015 -0.67187,-0.70312 -0.16407,-0.30078 -0.25,-0.64063 -0.25,-1.01563 0,-0.42578 0.0898,-0.77343 0.26562,-1.04687 0.16797,-0.26953 0.41406,-0.46094 0.73438,-0.57813 -0.66407,-0.44531 -1,-1.03125 -1,-1.75 0,-0.57031 0.16015,-1.00781 0.46875,-1.3125 0.3125,-0.30078 0.79297,-0.45312 1.4375,-0.45312 l 3.92187,0 0,0.95312 -3.59375,0 c -0.38281,0 -0.66015,0.0352 -0.82812,0.0937 -0.17578,0.0625 -0.31641,0.17969 -0.42188,0.34375 -0.10156,0.16797 -0.15625,0.36329 -0.15625,0.57813 0,0.40625 0.13672,0.74609 0.40625,1.01562 0.27344,0.26172 0.69922,0.39063 1.28125,0.39063 l 3.3125,0 0,0.96875 -3.70312,0 c -0.42578,0 -0.75,0.082 -0.96875,0.23437 -0.21485,0.15625 -0.32813,0.41407 -0.32813,0.76563 0,0.27344 0.0742,0.52734 0.21875,0.76562 0.14844,0.23047 0.36328,0.39844 0.64063,0.5 0.27343,0.10547 0.66797,0.15625 1.1875,0.15625 l 2.95312,0 z"
       id="path148"
       inkscape:connector-curvature="0" />
    <path
       style="fill:#000000;fill-opacity:1;fill-rule:nonzero;stroke:none"
       d="m 244.24219,406.58984 -1.10938,0 0,-0.96875 1.10938,0 z m 6.76562,0 -5.70312,0 0,-0.96875 5.70312,0 z"
       id="path150"
       inkscape:connector-curvature="0" />
    <path
       style="fill:#000000;fill-opacity:1;fill-rule:nonzero;stroke:none"
       d="m 243.13281,403.21094 7.875,0 0,0.96875 -7.875,0 z"
       id="path152"
       inkscape:connector-curvature="0" />
    <path
       style="fill:#000000;fill-opacity:1;fill-rule:nonzero;stroke:none"
       d="m 250.30469,397.98437 c 0.30468,0.36719 0.51953,0.71485 0.64062,1.04688 0.1211,0.32422 0.1875,0.67969 0.1875,1.0625 0,0.625 -0.14844,1.11328 -0.45312,1.45312 -0.3086,0.33594 -0.70313,0.5 -1.17188,0.5 -0.27734,0 -0.53515,-0.0625 -0.76562,-0.1875 -0.22657,-0.13281 -0.41016,-0.30078 -0.54688,-0.5 -0.14453,-0.20703 -0.2539,-0.4414 -0.32812,-0.70312 -0.0508,-0.18359 -0.0977,-0.47266 -0.14063,-0.85938 -0.0898,-0.77734 -0.20703,-1.35156 -0.34375,-1.71875 -0.12109,-0.008 -0.20703,-0.0156 -0.25,-0.0156 -0.39453,0 -0.67187,0.0977 -0.82812,0.28125 -0.21485,0.24219 -0.32813,0.60547 -0.32813,1.09375 0,0.46094 0.082,0.80078 0.23438,1.01562 0.15625,0.21094 0.4414,0.36719 0.84375,0.46875 l -0.125,0.95313 c -0.40235,-0.082 -0.73438,-0.22266 -0.98438,-0.42188 -0.24609,-0.19531 -0.4375,-0.48437 -0.5625,-0.85937 -0.13281,-0.37109 -0.20312,-0.80469 -0.20312,-1.29688 0,-0.48828 0.0586,-0.88281 0.17187,-1.1875 0.11719,-0.30078 0.26172,-0.51953 0.4375,-0.65625 0.16797,-0.14453 0.38281,-0.25 0.64063,-0.3125 0.16797,-0.0273 0.47265,-0.0469 0.90625,-0.0469 l 1.28125,0 c 0.89843,0 1.46484,-0.0195 1.70312,-0.0625 0.24219,-0.0391 0.47266,-0.125 0.6875,-0.25 l 0,1.01562 c -0.19531,0.10547 -0.42969,0.16797 -0.70312,0.1875 z m -2.15625,0.0937 c 0.14843,0.34375 0.26953,0.8711 0.35937,1.57813 0.0625,0.39844 0.13281,0.67969 0.20313,0.84375 0.0625,0.15625 0.16797,0.28516 0.3125,0.375 0.13672,0.0937 0.28906,0.14062 0.45312,0.14062 0.26172,0 0.48047,-0.0976 0.65625,-0.29687 0.16797,-0.19531 0.25,-0.48438 0.25,-0.85938 0,-0.37109 -0.082,-0.70312 -0.25,-0.98437 -0.16406,-0.28906 -0.39062,-0.50781 -0.67187,-0.65625 -0.21485,-0.0898 -0.53907,-0.14063 -0.96875,-0.14063 z"
       id="path154"
       inkscape:connector-curvature="0" />
    <path
       style="fill:#000000;fill-opacity:1;fill-rule:nonzero;stroke:none"
       d="m 251.00781,395.60547 -5.70312,0 0,-0.85938 0.85937,0 c -0.40234,-0.22656 -0.67187,-0.4375 -0.79687,-0.625 -0.1211,-0.18359 -0.1875,-0.39062 -0.1875,-0.60937 0,-0.33203 0.10547,-0.66406 0.3125,-1 l 0.89062,0.32812 c -0.13281,0.24219 -0.20312,0.48047 -0.20312,0.71875 0,0.21094 0.0664,0.39844 0.1875,0.5625 0.125,0.16797 0.30468,0.28907 0.53125,0.35938 0.34375,0.10547 0.72265,0.15625 1.125,0.15625 l 2.98437,0 z"
       id="path156"
       inkscape:connector-curvature="0" />
    <path
       style="fill:#000000;fill-opacity:1;fill-rule:nonzero;stroke:none"
       d="m 244.24219,391.76172 -1.10938,0 0,-0.96875 1.10938,0 z m 6.76562,0 -5.70312,0 0,-0.96875 5.70312,0 z"
       id="path158"
       inkscape:connector-curvature="0" />
    <path
       style="fill:#000000;fill-opacity:1;fill-rule:nonzero;stroke:none"
       d="m 250.14844,387.21094 0.84375,-0.125 c 0.0586,0.27343 0.0937,0.51172 0.0937,0.71875 0,0.35547 -0.0586,0.63281 -0.17188,0.82812 -0.11328,0.1875 -0.25781,0.32422 -0.4375,0.40625 -0.17578,0.0742 -0.55469,0.10938 -1.14062,0.10938 l -3.28125,0 0,0.71875 -0.75,0 0,-0.71875 -1.40625,0 -0.59375,-0.95313 2,0 0,-0.98437 0.75,0 0,0.98437 3.34375,0 c 0.27343,0 0.44922,-0.0156 0.53125,-0.0469 0.0742,-0.0391 0.13672,-0.0977 0.1875,-0.17188 0.043,-0.082 0.0625,-0.1914 0.0625,-0.32812 0,-0.11328 -0.008,-0.25782 -0.0312,-0.4375 z"
       id="path160"
       inkscape:connector-curvature="0" />
    <path
       style="fill:#000000;fill-opacity:1;fill-rule:nonzero;stroke:none"
       d="m 253.21094,386.30859 -0.90625,0.10938 c 0.0508,-0.20703 0.0781,-0.39063 0.0781,-0.54688 0,-0.21484 -0.0391,-0.39062 -0.10937,-0.51562 -0.0742,-0.13281 -0.17578,-0.23828 -0.29688,-0.3125 -0.0937,-0.0586 -0.33594,-0.16016 -0.71875,-0.29688 -0.0547,-0.0195 -0.13281,-0.0508 -0.23437,-0.0937 l -5.71875,2.17188 0,-1.04688 3.29687,-1.1875 c 0.42969,-0.15234 0.8711,-0.28906 1.32813,-0.40625 -0.44532,-0.11328 -0.87891,-0.25 -1.29688,-0.40625 l -3.32812,-1.21875 0,-0.96875 5.79687,2.17188 c 0.6211,0.23047 1.05469,0.41406 1.29688,0.54687 0.32031,0.16797 0.55468,0.36719 0.70312,0.59375 0.14453,0.21875 0.21875,0.48047 0.21875,0.78125 0,0.1875 -0.0391,0.39844 -0.10937,0.625 z"
       id="path162"
       inkscape:connector-curvature="0" />
  </g>
  <g
     id="g4574"
     transform="matrix(0,1,-0.99999999,0,783.14062,9.9215001)">
    <path
       style="fill:#000000;fill-opacity:1;fill-rule:nonzero;stroke:none"
       d="m 376.47656,431.88672 -0.0781,-0.98438 c 0.38672,-0.0391 0.71093,-0.14453 0.96875,-0.3125 0.25,-0.17578 0.45703,-0.4414 0.60937,-0.79687 0.15625,-0.35156 0.23438,-0.75391 0.23438,-1.20313 0,-0.40234 -0.0547,-0.75781 -0.17188,-1.0625 -0.12109,-0.30078 -0.28515,-0.52343 -0.48437,-0.67187 -0.20703,-0.15235 -0.4375,-0.23438 -0.6875,-0.23438 -0.2461,0 -0.46094,0.0742 -0.64063,0.21875 -0.18359,0.14844 -0.34375,0.38672 -0.46875,0.71875 -0.082,0.21094 -0.20703,0.67969 -0.375,1.40625 -0.17578,0.71875 -0.34375,1.22657 -0.5,1.51563 -0.19531,0.375 -0.4414,0.66015 -0.73437,0.84375 -0.28907,0.17969 -0.61719,0.26562 -0.98438,0.26562 -0.39453,0 -0.76562,-0.10937 -1.10937,-0.32812 -0.33985,-0.22656 -0.60157,-0.55469 -0.78125,-0.98438 -0.1836,-0.43359 -0.28125,-0.92187 -0.28125,-1.45312 0,-0.58203 0.10156,-1.09766 0.29687,-1.54688 0.1875,-0.44531 0.46485,-0.78906 0.82813,-1.03125 0.36718,-0.23828 0.77734,-0.36718 1.23437,-0.39062 l 0.0781,1 c -0.4961,0.0547 -0.875,0.23828 -1.125,0.54687 -0.25782,0.3125 -0.39063,0.77344 -0.39063,1.375 0,0.625 0.1211,1.08594 0.35938,1.375 0.23047,0.29297 0.50781,0.4375 0.82812,0.4375 0.28125,0 0.51953,-0.10156 0.70313,-0.3125 0.17968,-0.19531 0.36718,-0.71875 0.5625,-1.5625 0.1875,-0.85156 0.35547,-1.4375 0.5,-1.75 0.21093,-0.45703 0.47656,-0.79687 0.79687,-1.01562 0.32422,-0.21485 0.69922,-0.32813 1.125,-0.32813 0.41797,0 0.81641,0.1211 1.1875,0.35938 0.36719,0.24219 0.65235,0.58984 0.85938,1.04687 0.20703,0.44922 0.3125,0.95703 0.3125,1.51563 0,0.71094 -0.10547,1.30469 -0.3125,1.78125 -0.20703,0.48047 -0.51953,0.86328 -0.9375,1.14062 -0.41407,0.27344 -0.89063,0.41407 -1.42188,0.42188 z"
       id="path164"
       inkscape:connector-curvature="0" />
    <path
       style="fill:#000000;fill-opacity:1;fill-rule:nonzero;stroke:none"
       d="m 372.24219,424.3125 -1.10938,0 0,-0.96875 1.10938,0 z m 6.76562,0 -5.70312,0 0,-0.96875 5.70312,0 z"
       id="path166"
       inkscape:connector-curvature="0" />
    <path
       style="fill:#000000;fill-opacity:1;fill-rule:nonzero;stroke:none"
       d="m 379.00781,421.88672 -5.70312,0 0,-0.875 0.79687,0 c -0.27734,-0.17578 -0.5039,-0.41016 -0.67187,-0.70313 -0.16407,-0.30078 -0.25,-0.64062 -0.25,-1.01562 0,-0.42578 0.0898,-0.77344 0.26562,-1.04688 0.16797,-0.26953 0.41406,-0.46093 0.73438,-0.57812 -0.66407,-0.44531 -1,-1.03125 -1,-1.75 0,-0.57031 0.16015,-1.00781 0.46875,-1.3125 0.3125,-0.30078 0.79297,-0.45313 1.4375,-0.45313 l 3.92187,0 0,0.95313 -3.59375,0 c -0.38281,0 -0.66015,0.0351 -0.82812,0.0937 -0.17578,0.0625 -0.31641,0.17969 -0.42188,0.34375 -0.10156,0.16797 -0.15625,0.36328 -0.15625,0.57812 0,0.40625 0.13672,0.7461 0.40625,1.01563 0.27344,0.26172 0.69922,0.39062 1.28125,0.39062 l 3.3125,0 0,0.96875 -3.70312,0 c -0.42578,0 -0.75,0.082 -0.96875,0.23438 -0.21485,0.15625 -0.32813,0.41406 -0.32813,0.76562 0,0.27344 0.0742,0.52735 0.21875,0.76563 0.14844,0.23047 0.36328,0.39844 0.64063,0.5 0.27343,0.10547 0.66797,0.15625 1.1875,0.15625 l 2.95312,0 z"
       id="path168"
       inkscape:connector-curvature="0" />
    <path
       style="fill:#000000;fill-opacity:1;fill-rule:nonzero;stroke:none"
       d="m 372.24219,412.70703 -1.10938,0 0,-0.96875 1.10938,0 z m 6.76562,0 -5.70312,0 0,-0.96875 5.70312,0 z"
       id="path170"
       inkscape:connector-curvature="0" />
    <path
       style="fill:#000000;fill-opacity:1;fill-rule:nonzero;stroke:none"
       d="m 371.13281,409.32812 7.875,0 0,0.96875 -7.875,0 z"
       id="path172"
       inkscape:connector-curvature="0" />
    <path
       style="fill:#000000;fill-opacity:1;fill-rule:nonzero;stroke:none"
       d="m 378.30469,404.10547 c 0.30468,0.36719 0.51953,0.71484 0.64062,1.04687 0.1211,0.32422 0.1875,0.67969 0.1875,1.0625 0,0.625 -0.14844,1.11328 -0.45312,1.45313 -0.3086,0.33594 -0.70313,0.5 -1.17188,0.5 -0.27734,0 -0.53515,-0.0625 -0.76562,-0.1875 -0.22657,-0.13281 -0.41016,-0.30078 -0.54688,-0.5 -0.14453,-0.20703 -0.2539,-0.44141 -0.32812,-0.70313 -0.0508,-0.18359 -0.0977,-0.47265 -0.14063,-0.85937 -0.0898,-0.77735 -0.20703,-1.35156 -0.34375,-1.71875 -0.12109,-0.008 -0.20703,-0.0156 -0.25,-0.0156 -0.39453,0 -0.67187,0.0977 -0.82812,0.28125 -0.21485,0.24219 -0.32813,0.60547 -0.32813,1.09375 0,0.46094 0.082,0.80078 0.23438,1.01563 0.15625,0.21094 0.4414,0.36719 0.84375,0.46875 l -0.125,0.95312 c -0.40235,-0.082 -0.73438,-0.22265 -0.98438,-0.42187 -0.24609,-0.19531 -0.4375,-0.48438 -0.5625,-0.85938 -0.13281,-0.37109 -0.20312,-0.80468 -0.20312,-1.29687 0,-0.48828 0.0586,-0.88281 0.17187,-1.1875 0.11719,-0.30078 0.26172,-0.51953 0.4375,-0.65625 0.16797,-0.14453 0.38281,-0.25 0.64063,-0.3125 0.16797,-0.0274 0.47265,-0.0469 0.90625,-0.0469 l 1.28125,0 c 0.89843,0 1.46484,-0.0195 1.70312,-0.0625 0.24219,-0.0391 0.47266,-0.125 0.6875,-0.25 l 0,1.01563 c -0.19531,0.10547 -0.42969,0.16797 -0.70312,0.1875 z m -2.15625,0.0937 c 0.14843,0.34375 0.26953,0.87109 0.35937,1.57812 0.0625,0.39844 0.13281,0.67969 0.20313,0.84375 0.0625,0.15625 0.16797,0.28516 0.3125,0.375 0.13672,0.0937 0.28906,0.14063 0.45312,0.14063 0.26172,0 0.48047,-0.0977 0.65625,-0.29688 0.16797,-0.19531 0.25,-0.48437 0.25,-0.85937 0,-0.3711 -0.082,-0.70313 -0.25,-0.98438 -0.16406,-0.28906 -0.39062,-0.50781 -0.67187,-0.65625 -0.21485,-0.0898 -0.53907,-0.14062 -0.96875,-0.14062 z"
       id="path174"
       inkscape:connector-curvature="0" />
    <path
       style="fill:#000000;fill-opacity:1;fill-rule:nonzero;stroke:none"
       d="m 379.00781,401.72266 -5.70312,0 0,-0.85938 0.85937,0 c -0.40234,-0.22656 -0.67187,-0.4375 -0.79687,-0.625 -0.1211,-0.18359 -0.1875,-0.39062 -0.1875,-0.60937 0,-0.33204 0.10547,-0.66407 0.3125,-1 l 0.89062,0.32812 c -0.13281,0.24219 -0.20312,0.48047 -0.20312,0.71875 0,0.21094 0.0664,0.39844 0.1875,0.5625 0.125,0.16797 0.30468,0.28906 0.53125,0.35938 0.34375,0.10546 0.72265,0.15625 1.125,0.15625 l 2.98437,0 z"
       id="path176"
       inkscape:connector-curvature="0" />
    <path
       style="fill:#000000;fill-opacity:1;fill-rule:nonzero;stroke:none"
       d="m 372.24219,397.87891 -1.10938,0 0,-0.96875 1.10938,0 z m 6.76562,0 -5.70312,0 0,-0.96875 5.70312,0 z"
       id="path178"
       inkscape:connector-curvature="0" />
    <path
       style="fill:#000000;fill-opacity:1;fill-rule:nonzero;stroke:none"
       d="m 378.14844,393.32812 0.84375,-0.125 c 0.0586,0.27344 0.0937,0.51172 0.0937,0.71875 0,0.35547 -0.0586,0.63282 -0.17188,0.82813 -0.11328,0.1875 -0.25781,0.32422 -0.4375,0.40625 -0.17578,0.0742 -0.55469,0.10937 -1.14062,0.10937 l -3.28125,0 0,0.71875 -0.75,0 0,-0.71875 -1.40625,0 -0.59375,-0.95312 2,0 0,-0.98438 0.75,0 0,0.98438 3.34375,0 c 0.27343,0 0.44922,-0.0156 0.53125,-0.0469 0.0742,-0.0391 0.13672,-0.0976 0.1875,-0.17187 0.043,-0.082 0.0625,-0.19141 0.0625,-0.32813 0,-0.11328 -0.008,-0.25781 -0.0312,-0.4375 z"
       id="path180"
       inkscape:connector-curvature="0" />
    <path
       style="fill:#000000;fill-opacity:1;fill-rule:nonzero;stroke:none"
       d="m 381.21094,392.42578 -0.90625,0.10938 c 0.0508,-0.20704 0.0781,-0.39063 0.0781,-0.54688 0,-0.21484 -0.0391,-0.39062 -0.10937,-0.51562 -0.0742,-0.13282 -0.17578,-0.23829 -0.29688,-0.3125 -0.0937,-0.0586 -0.33594,-0.16016 -0.71875,-0.29688 -0.0547,-0.0195 -0.13281,-0.0508 -0.23437,-0.0937 l -5.71875,2.17188 0,-1.04688 3.29687,-1.1875 c 0.42969,-0.15234 0.8711,-0.28906 1.32813,-0.40625 -0.44532,-0.11328 -0.87891,-0.25 -1.29688,-0.40625 l -3.32812,-1.21875 0,-0.96875 5.79687,2.17188 c 0.6211,0.23046 1.05469,0.41406 1.29688,0.54687 0.32031,0.16797 0.55468,0.36719 0.70312,0.59375 0.14453,0.21875 0.21875,0.48047 0.21875,0.78125 0,0.1875 -0.0391,0.39844 -0.10937,0.625 z"
       id="path182"
       inkscape:connector-curvature="0" />
    <path
       style="fill:#000000;fill-opacity:1;fill-rule:nonzero;stroke:none"
       d="m 378.08594,382.08203 0.92187,0 0,5.20313 c -0.22656,0 -0.45312,-0.0391 -0.67187,-0.125 -0.35157,-0.1211 -0.70313,-0.33204 -1.04688,-0.625 -0.33984,-0.28907 -0.73828,-0.71094 -1.1875,-1.26563 -0.70703,-0.85156 -1.26562,-1.42969 -1.67187,-1.73437 -0.40235,-0.30079 -0.78907,-0.45313 -1.15625,-0.45313 -0.38282,0 -0.70703,0.13672 -0.96875,0.40625 -0.26953,0.27344 -0.40625,0.63281 -0.40625,1.07813 0,0.46093 0.14453,0.83203 0.42187,1.10937 0.28125,0.28125 0.66797,0.42188 1.15625,0.42188 l -0.0937,1 c -0.73828,-0.0703 -1.30078,-0.32813 -1.6875,-0.76563 -0.39453,-0.44531 -0.59375,-1.04687 -0.59375,-1.79687 0,-0.7461 0.21094,-1.34375 0.625,-1.78125 0.41797,-0.44532 0.94141,-0.67188 1.5625,-0.67188 0.3125,0 0.62891,0.0703 0.9375,0.20313 0.30469,0.125 0.6211,0.33984 0.95313,0.64062 0.33593,0.29297 0.80078,0.78906 1.39062,1.48438 0.48047,0.58593 0.8086,0.96093 0.98438,1.125 0.17968,0.15625 0.35547,0.29296 0.53125,0.40625 z"
       id="path184"
       inkscape:connector-curvature="0" />
  </g>
  <path
     inkscape:connector-curvature="0"
     id="path186"
     d="m 39.695313,370.42578 0,-356.289061"
     style="fill:none;stroke:#000000;stroke-width:0.75;stroke-linecap:round;stroke-linejoin:round;stroke-miterlimit:10;stroke-opacity:1" />
  <path
     inkscape:connector-curvature="0"
     id="path188"
     d="m 39.695313,370.42578 -7.199219,0"
     style="fill:none;stroke:#000000;stroke-width:0.75;stroke-linecap:round;stroke-linejoin:round;stroke-miterlimit:10;stroke-opacity:1" />
  <path
     inkscape:connector-curvature="0"
     id="path190"
     d="m 39.695313,299.16406 -7.199219,0"
     style="fill:none;stroke:#000000;stroke-width:0.75;stroke-linecap:round;stroke-linejoin:round;stroke-miterlimit:10;stroke-opacity:1" />
  <path
     inkscape:connector-curvature="0"
     id="path192"
     d="m 39.695313,227.90625 -7.199219,0"
     style="fill:none;stroke:#000000;stroke-width:0.75;stroke-linecap:round;stroke-linejoin:round;stroke-miterlimit:10;stroke-opacity:1" />
  <path
     inkscape:connector-curvature="0"
     id="path194"
     d="m 39.695313,156.64453 -7.199219,0"
     style="fill:none;stroke:#000000;stroke-width:0.75;stroke-linecap:round;stroke-linejoin:round;stroke-miterlimit:10;stroke-opacity:1" />
  <path
     inkscape:connector-curvature="0"
     id="path196"
     d="m 39.695313,85.394531 -7.199219,0"
     style="fill:none;stroke:#000000;stroke-width:0.75;stroke-linecap:round;stroke-linejoin:round;stroke-miterlimit:10;stroke-opacity:1" />
  <path
     inkscape:connector-curvature="0"
     id="path198"
     d="m 39.695313,14.136719 -7.199219,0"
     style="fill:none;stroke:#000000;stroke-width:0.75;stroke-linecap:round;stroke-linejoin:round;stroke-miterlimit:10;stroke-opacity:1" />
  <path
     inkscape:connector-curvature="0"
     id="path200"
     d="m 10.460938,370.47656 c 0,-0.92578 0.09375,-1.67187 0.28125,-2.23437 0.195312,-0.57032 0.484375,-1.00782 0.859375,-1.3125 0.382812,-0.3086 0.863281,-0.46875 1.4375,-0.46875 0.414062,0 0.78125,0.0898 1.09375,0.26562 0.320312,0.16797 0.585937,0.41406 0.796875,0.73438 0.207031,0.3125 0.367187,0.70703 0.484375,1.17187 0.121093,0.46094 0.1875,1.07422 0.1875,1.84375 0,0.92969 -0.101563,1.67969 -0.296875,2.25 -0.1875,0.5625 -0.472657,1.00391 -0.84375,1.3125 -0.375,0.3125 -0.851563,0.46875 -1.421875,0.46875 -0.761719,0 -1.363282,-0.27344 -1.796875,-0.82812 -0.523438,-0.65235 -0.78125,-1.72266 -0.78125,-3.20313 z m 1,0 c 0,1.30469 0.148437,2.16797 0.453125,2.59375 0.300781,0.42969 0.675781,0.64063 1.125,0.64063 0.433593,0 0.804687,-0.21094 1.109375,-0.64063 0.300781,-0.43359 0.453125,-1.30078 0.453125,-2.59375 0,-1.28906 -0.152344,-2.14844 -0.453125,-2.57812 -0.304688,-0.42578 -0.679688,-0.64063 -1.125,-0.64063 -0.449219,0 -0.804688,0.19141 -1.0625,0.5625 -0.335938,0.48047 -0.5,1.36719 -0.5,2.65625 z"
     style="fill:#000000;fill-opacity:1;fill-rule:nonzero;stroke:none" />
  <path
     inkscape:connector-curvature="0"
     id="path202"
     d="m 17.125,374.36719 0,-1.09375 1.09375,0 0,1.09375 z"
     style="fill:#000000;fill-opacity:1;fill-rule:nonzero;stroke:none" />
  <path
     inkscape:connector-curvature="0"
     id="path204"
     d="m 19.632813,370.47656 c 0,-0.92578 0.09375,-1.67187 0.28125,-2.23437 0.195312,-0.57032 0.484375,-1.00782 0.859375,-1.3125 0.382812,-0.3086 0.863281,-0.46875 1.4375,-0.46875 0.414062,0 0.78125,0.0898 1.09375,0.26562 0.320312,0.16797 0.585937,0.41406 0.796875,0.73438 0.207031,0.3125 0.367187,0.70703 0.484375,1.17187 0.121093,0.46094 0.1875,1.07422 0.1875,1.84375 0,0.92969 -0.101563,1.67969 -0.296875,2.25 -0.1875,0.5625 -0.472657,1.00391 -0.84375,1.3125 -0.375,0.3125 -0.851563,0.46875 -1.421875,0.46875 -0.761719,0 -1.363282,-0.27344 -1.796875,-0.82812 -0.523438,-0.65235 -0.78125,-1.72266 -0.78125,-3.20313 z m 1,0 c 0,1.30469 0.148437,2.16797 0.453125,2.59375 0.300781,0.42969 0.675781,0.64063 1.125,0.64063 0.433593,0 0.804687,-0.21094 1.109375,-0.64063 0.300781,-0.43359 0.453125,-1.30078 0.453125,-2.59375 0,-1.28906 -0.152344,-2.14844 -0.453125,-2.57812 -0.304688,-0.42578 -0.679688,-0.64063 -1.125,-0.64063 -0.449219,0 -0.804688,0.19141 -1.0625,0.5625 -0.335938,0.48047 -0.5,1.36719 -0.5,2.65625 z"
     style="fill:#000000;fill-opacity:1;fill-rule:nonzero;stroke:none" />
  <path
     inkscape:connector-curvature="0"
     id="path206"
     d="m 10.460938,299.22656 c 0,-0.92578 0.09375,-1.67187 0.28125,-2.23437 0.195312,-0.57032 0.484375,-1.00782 0.859375,-1.3125 0.382812,-0.3086 0.863281,-0.46875 1.4375,-0.46875 0.414062,0 0.78125,0.0898 1.09375,0.26562 0.320312,0.16797 0.585937,0.41406 0.796875,0.73438 0.207031,0.3125 0.367187,0.70703 0.484375,1.17187 0.121093,0.46094 0.1875,1.07422 0.1875,1.84375 0,0.92969 -0.101563,1.67969 -0.296875,2.25 -0.1875,0.5625 -0.472657,1.00391 -0.84375,1.3125 -0.375,0.3125 -0.851563,0.46875 -1.421875,0.46875 -0.761719,0 -1.363282,-0.27344 -1.796875,-0.82812 -0.523438,-0.65235 -0.78125,-1.72266 -0.78125,-3.20313 z m 1,0 c 0,1.30469 0.148437,2.16797 0.453125,2.59375 0.300781,0.42969 0.675781,0.64063 1.125,0.64063 0.433593,0 0.804687,-0.21094 1.109375,-0.64063 0.300781,-0.43359 0.453125,-1.30078 0.453125,-2.59375 0,-1.28906 -0.152344,-2.14844 -0.453125,-2.57812 -0.304688,-0.42578 -0.679688,-0.64063 -1.125,-0.64063 -0.449219,0 -0.804688,0.19141 -1.0625,0.5625 -0.335938,0.48047 -0.5,1.36719 -0.5,2.65625 z"
     style="fill:#000000;fill-opacity:1;fill-rule:nonzero;stroke:none" />
  <path
     inkscape:connector-curvature="0"
     id="path208"
     d="m 17.125,303.11719 0,-1.09375 1.09375,0 0,1.09375 z"
     style="fill:#000000;fill-opacity:1;fill-rule:nonzero;stroke:none" />
  <path
     inkscape:connector-curvature="0"
     id="path210"
     d="m 24.710938,302.19531 0,0.92188 -5.203125,0 c 0,-0.22657 0.03906,-0.45313 0.125,-0.67188 0.121093,-0.35156 0.332031,-0.70312 0.625,-1.04687 0.289062,-0.33985 0.710937,-0.73828 1.265625,-1.1875 0.851562,-0.70703 1.429687,-1.26563 1.734375,-1.67188 0.300781,-0.40234 0.453125,-0.78906 0.453125,-1.15625 0,-0.38281 -0.136719,-0.70703 -0.40625,-0.96875 -0.273438,-0.26953 -0.632813,-0.40625 -1.078125,-0.40625 -0.460938,0 -0.832032,0.14453 -1.109375,0.42188 -0.28125,0.28125 -0.421875,0.66797 -0.421875,1.15625 l -1,-0.0937 c 0.07031,-0.73828 0.328125,-1.30078 0.765625,-1.6875 0.445312,-0.39453 1.046875,-0.59375 1.796875,-0.59375 0.746093,0 1.34375,0.21093 1.78125,0.625 0.445312,0.41797 0.671875,0.9414 0.671875,1.5625 0,0.3125 -0.07031,0.6289 -0.203125,0.9375 -0.125,0.30468 -0.339844,0.62109 -0.640625,0.95312 -0.292969,0.33594 -0.789063,0.80078 -1.484375,1.39063 -0.585938,0.48047 -0.960938,0.80859 -1.125,0.98437 -0.15625,0.17969 -0.292969,0.35547 -0.40625,0.53125 z"
     style="fill:#000000;fill-opacity:1;fill-rule:nonzero;stroke:none" />
  <path
     inkscape:connector-curvature="0"
     id="path212"
     d="m 10.460938,227.96484 c 0,-0.92578 0.09375,-1.67187 0.28125,-2.23437 0.195312,-0.57031 0.484375,-1.00781 0.859375,-1.3125 0.382812,-0.3086 0.863281,-0.46875 1.4375,-0.46875 0.414062,0 0.78125,0.0898 1.09375,0.26562 0.320312,0.16797 0.585937,0.41407 0.796875,0.73438 0.207031,0.3125 0.367187,0.70703 0.484375,1.17187 0.121093,0.46094 0.1875,1.07422 0.1875,1.84375 0,0.92969 -0.101563,1.67969 -0.296875,2.25 -0.1875,0.5625 -0.472657,1.00391 -0.84375,1.3125 -0.375,0.3125 -0.851563,0.46875 -1.421875,0.46875 -0.761719,0 -1.363282,-0.27343 -1.796875,-0.82812 -0.523438,-0.65235 -0.78125,-1.72266 -0.78125,-3.20313 z m 1,0 c 0,1.30469 0.148437,2.16797 0.453125,2.59375 0.300781,0.42969 0.675781,0.64063 1.125,0.64063 0.433593,0 0.804687,-0.21094 1.109375,-0.64063 0.300781,-0.43359 0.453125,-1.30078 0.453125,-2.59375 0,-1.28906 -0.152344,-2.14843 -0.453125,-2.57812 -0.304688,-0.42578 -0.679688,-0.64063 -1.125,-0.64063 -0.449219,0 -0.804688,0.19141 -1.0625,0.5625 -0.335938,0.48047 -0.5,1.36719 -0.5,2.65625 z"
     style="fill:#000000;fill-opacity:1;fill-rule:nonzero;stroke:none" />
  <path
     inkscape:connector-curvature="0"
     id="path214"
     d="m 17.125,231.85547 0,-1.09375 1.09375,0 0,1.09375 z"
     style="fill:#000000;fill-opacity:1;fill-rule:nonzero;stroke:none" />
  <path
     inkscape:connector-curvature="0"
     id="path216"
     d="m 22.742188,231.85547 0,-1.89063 -3.421875,0 0,-0.875 3.59375,-5.10937 0.78125,0 0,5.10937 1.078125,0 0,0.875 -1.078125,0 0,1.89063 z m 0,-2.76563 0,-3.5625 -2.46875,3.5625 z"
     style="fill:#000000;fill-opacity:1;fill-rule:nonzero;stroke:none" />
  <path
     inkscape:connector-curvature="0"
     id="path218"
     d="m 10.460938,156.70703 c 0,-0.92578 0.09375,-1.67187 0.28125,-2.23437 0.195312,-0.57032 0.484375,-1.00782 0.859375,-1.3125 0.382812,-0.3086 0.863281,-0.46875 1.4375,-0.46875 0.414062,0 0.78125,0.0898 1.09375,0.26562 0.320312,0.16797 0.585937,0.41406 0.796875,0.73438 0.207031,0.3125 0.367187,0.70703 0.484375,1.17187 0.121093,0.46094 0.1875,1.07422 0.1875,1.84375 0,0.92969 -0.101563,1.67969 -0.296875,2.25 -0.1875,0.5625 -0.472657,1.00391 -0.84375,1.3125 -0.375,0.3125 -0.851563,0.46875 -1.421875,0.46875 -0.761719,0 -1.363282,-0.27344 -1.796875,-0.82812 -0.523438,-0.65235 -0.78125,-1.72266 -0.78125,-3.20313 z m 1,0 c 0,1.30469 0.148437,2.16797 0.453125,2.59375 0.300781,0.42969 0.675781,0.64063 1.125,0.64063 0.433593,0 0.804687,-0.21094 1.109375,-0.64063 0.300781,-0.43359 0.453125,-1.30078 0.453125,-2.59375 0,-1.28906 -0.152344,-2.14844 -0.453125,-2.57812 -0.304688,-0.42579 -0.679688,-0.64063 -1.125,-0.64063 -0.449219,0 -0.804688,0.19141 -1.0625,0.5625 -0.335938,0.48047 -0.5,1.36719 -0.5,2.65625 z"
     style="fill:#000000;fill-opacity:1;fill-rule:nonzero;stroke:none" />
  <path
     inkscape:connector-curvature="0"
     id="path220"
     d="m 17.125,160.59766 0,-1.09375 1.09375,0 0,1.09375 z"
     style="fill:#000000;fill-opacity:1;fill-rule:nonzero;stroke:none" />
  <path
     inkscape:connector-curvature="0"
     id="path222"
     d="m 24.648438,154.64453 -0.953125,0.0781 c -0.08594,-0.3711 -0.210938,-0.64844 -0.375,-0.82813 -0.261719,-0.26953 -0.582032,-0.40625 -0.953125,-0.40625 -0.3125,0 -0.585938,0.0859 -0.8125,0.25 -0.3125,0.23047 -0.558594,0.55859 -0.734375,0.98438 -0.167969,0.41796 -0.257813,1.02343 -0.265625,1.8125 0.226562,-0.35157 0.507812,-0.61329 0.84375,-0.78125 0.339843,-0.17579 0.695312,-0.26563 1.0625,-0.26563 0.644531,0 1.191406,0.24219 1.640625,0.71875 0.457031,0.46875 0.6875,1.08203 0.6875,1.82813 0,0.5 -0.113282,0.96484 -0.328125,1.39062 -0.210938,0.41797 -0.503907,0.74219 -0.875,0.96875 -0.367188,0.22656 -0.789063,0.34375 -1.265625,0.34375 -0.804688,0 -1.460938,-0.29687 -1.96875,-0.89062 -0.511719,-0.58985 -0.765625,-1.57032 -0.765625,-2.9375 0,-1.51954 0.28125,-2.625 0.84375,-3.3125 0.496093,-0.60157 1.160156,-0.90625 1.984375,-0.90625 0.621093,0 1.132812,0.17968 1.53125,0.53125 0.394531,0.34375 0.628906,0.82031 0.703125,1.42187 z m -3.9375,3.40625 c 0,0.33594 0.06641,0.65234 0.203125,0.95313 0.144531,0.30468 0.34375,0.53906 0.59375,0.70312 0.257812,0.15625 0.523437,0.23438 0.796875,0.23438 0.414062,0 0.769531,-0.16407 1.0625,-0.5 0.289062,-0.33204 0.4375,-0.78125 0.4375,-1.34375 0,-0.53907 -0.148438,-0.96875 -0.4375,-1.28125 -0.292969,-0.3086 -0.660157,-0.46875 -1.09375,-0.46875 -0.4375,0 -0.808594,0.16015 -1.109375,0.46875 -0.304688,0.3125 -0.453125,0.72656 -0.453125,1.23437 z"
     style="fill:#000000;fill-opacity:1;fill-rule:nonzero;stroke:none" />
  <path
     inkscape:connector-curvature="0"
     id="path224"
     d="m 10.460938,85.457031 c 0,-0.925781 0.09375,-1.671875 0.28125,-2.234375 0.195312,-0.570312 0.484375,-1.007812 0.859375,-1.3125 0.382812,-0.308593 0.863281,-0.46875 1.4375,-0.46875 0.414062,0 0.78125,0.08984 1.09375,0.265625 0.320312,0.167969 0.585937,0.414063 0.796875,0.734375 0.207031,0.3125 0.367187,0.707032 0.484375,1.171875 0.121093,0.460938 0.1875,1.074219 0.1875,1.84375 0,0.929688 -0.101563,1.679688 -0.296875,2.25 -0.1875,0.5625 -0.472657,1.003907 -0.84375,1.3125 -0.375,0.3125 -0.851563,0.46875 -1.421875,0.46875 -0.761719,0 -1.363282,-0.273437 -1.796875,-0.828125 -0.523438,-0.652343 -0.78125,-1.722656 -0.78125,-3.203125 z m 1,0 c 0,1.304688 0.148437,2.167969 0.453125,2.59375 0.300781,0.429688 0.675781,0.640625 1.125,0.640625 0.433593,0 0.804687,-0.210937 1.109375,-0.640625 0.300781,-0.433593 0.453125,-1.300781 0.453125,-2.59375 0,-1.289062 -0.152344,-2.148437 -0.453125,-2.578125 -0.304688,-0.425781 -0.679688,-0.640625 -1.125,-0.640625 -0.449219,0 -0.804688,0.191407 -1.0625,0.5625 -0.335938,0.480469 -0.5,1.367188 -0.5,2.65625 z"
     style="fill:#000000;fill-opacity:1;fill-rule:nonzero;stroke:none" />
  <path
     inkscape:connector-curvature="0"
     id="path226"
     d="m 17.125,89.347656 0,-1.09375 1.09375,0 0,1.09375 z"
     style="fill:#000000;fill-opacity:1;fill-rule:nonzero;stroke:none" />
  <path
     inkscape:connector-curvature="0"
     id="path228"
     d="m 21.117188,85.082031 c -0.398438,-0.144531 -0.695313,-0.351562 -0.890625,-0.625 -0.1875,-0.277343 -0.28125,-0.609375 -0.28125,-0.984375 0,-0.570312 0.203125,-1.050781 0.609375,-1.4375 0.414062,-0.394531 0.96875,-0.59375 1.65625,-0.59375 0.683593,0 1.238281,0.207032 1.65625,0.609375 0.414062,0.398438 0.625,0.882813 0.625,1.453125 0,0.367188 -0.101563,0.683594 -0.296875,0.953125 -0.1875,0.273438 -0.476563,0.480469 -0.859375,0.625 0.476562,0.15625 0.84375,0.414063 1.09375,0.765625 0.257812,0.34375 0.390625,0.761719 0.390625,1.25 0,0.679688 -0.242188,1.246094 -0.71875,1.703125 -0.480469,0.460938 -1.105469,0.6875 -1.875,0.6875 -0.78125,0 -1.414063,-0.226562 -1.890625,-0.6875 -0.46875,-0.464843 -0.703125,-1.046875 -0.703125,-1.734375 0,-0.507812 0.125,-0.9375 0.375,-1.28125 0.257812,-0.339843 0.628906,-0.578125 1.109375,-0.703125 z m -0.1875,-1.640625 c 0,0.375 0.117187,0.683594 0.359375,0.921875 0.238281,0.230469 0.550781,0.34375 0.9375,0.34375 0.371093,0 0.675781,-0.113281 0.90625,-0.34375 0.238281,-0.238281 0.359375,-0.53125 0.359375,-0.875 0,-0.351562 -0.128907,-0.648437 -0.375,-0.890625 -0.242188,-0.238281 -0.542969,-0.359375 -0.90625,-0.359375 -0.367188,0 -0.675782,0.121094 -0.921875,0.359375 -0.242188,0.230469 -0.359375,0.511719 -0.359375,0.84375 z m -0.3125,3.640625 c 0,0.273438 0.0625,0.539063 0.1875,0.796875 0.132812,0.261719 0.332031,0.464844 0.59375,0.609375 0.257812,0.136719 0.535156,0.203125 0.828125,0.203125 0.464843,0 0.847656,-0.144531 1.140625,-0.4375 0.300781,-0.300781 0.453125,-0.679687 0.453125,-1.140625 0,-0.464843 -0.160157,-0.851562 -0.46875,-1.15625 -0.304688,-0.300781 -0.691407,-0.453125 -1.15625,-0.453125 -0.449219,0 -0.824219,0.152344 -1.125,0.453125 -0.304688,0.292969 -0.453125,0.667969 -0.453125,1.125 z"
     style="fill:#000000;fill-opacity:1;fill-rule:nonzero;stroke:none" />
  <path
     inkscape:connector-curvature="0"
     id="path230"
     d="m 14.101563,18.085938 -0.96875,0 0,-6.15625 c -0.230469,0.21875 -0.535157,0.445312 -0.90625,0.671875 -0.375,0.21875 -0.714844,0.382812 -1.015625,0.484375 l 0,-0.9375 c 0.539062,-0.246094 1.007812,-0.550782 1.40625,-0.90625 0.402343,-0.363282 0.691406,-0.71875 0.859375,-1.0625 l 0.625,0 z"
     style="fill:#000000;fill-opacity:1;fill-rule:nonzero;stroke:none" />
  <path
     inkscape:connector-curvature="0"
     id="path232"
     d="m 17.125,18.085938 0,-1.09375 1.09375,0 0,1.09375 z"
     style="fill:#000000;fill-opacity:1;fill-rule:nonzero;stroke:none" />
  <path
     inkscape:connector-curvature="0"
     id="path234"
     d="m 19.632813,14.195313 c 0,-0.925782 0.09375,-1.671875 0.28125,-2.234375 0.195312,-0.570313 0.484375,-1.007813 0.859375,-1.3125 0.382812,-0.308594 0.863281,-0.46875 1.4375,-0.46875 0.414062,0 0.78125,0.08984 1.09375,0.265625 0.320312,0.167968 0.585937,0.414062 0.796875,0.734375 0.207031,0.3125 0.367187,0.707031 0.484375,1.171875 0.121093,0.460937 0.1875,1.074218 0.1875,1.84375 0,0.929687 -0.101563,1.679687 -0.296875,2.25 -0.1875,0.5625 -0.472657,1.003906 -0.84375,1.3125 -0.375,0.3125 -0.851563,0.46875 -1.421875,0.46875 -0.761719,0 -1.363282,-0.273438 -1.796875,-0.828125 -0.523438,-0.652344 -0.78125,-1.722657 -0.78125,-3.203125 z m 1,0 c 0,1.304687 0.148437,2.167968 0.453125,2.59375 0.300781,0.429687 0.675781,0.640625 1.125,0.640625 0.433593,0 0.804687,-0.210938 1.109375,-0.640625 0.300781,-0.433594 0.453125,-1.300782 0.453125,-2.59375 0,-1.289063 -0.152344,-2.148438 -0.453125,-2.578125 -0.304688,-0.425782 -0.679688,-0.640625 -1.125,-0.640625 -0.449219,0 -0.804688,0.191406 -1.0625,0.5625 -0.335938,0.480468 -0.5,1.367187 -0.5,2.65625 z"
     style="fill:#000000;fill-opacity:1;fill-rule:nonzero;stroke:none" />
  <path
     inkscape:connector-curvature="0"
     id="path236"
     d="m 2.03125,299.93359 c -0.558594,0 -1.039062,-0.14062 -1.4375,-0.42187 C 0.199219,299.23437 0,298.82031 0,298.27734 c 0,-0.48828 0.179688,-0.89453 0.53125,-1.21875 0.355469,-0.32031 0.878906,-0.48437 1.5625,-0.48437 0.667969,0 1.183594,0.16406 1.546875,0.48437 0.355469,0.32422 0.53125,0.73047 0.53125,1.21875 0,0.46875 -0.175781,0.86719 -0.53125,1.1875 -0.351562,0.3125 -0.890625,0.46875 -1.609375,0.46875 z m -1.359375,-1.6875 c 0,0.25 0.105469,0.45703 0.3125,0.60938 0.210938,0.15625 0.589844,0.23437 1.140625,0.23437 0.511719,0 0.871094,-0.0781 1.078125,-0.23437 C 3.402344,298.69141 3.5,298.48828 3.5,298.24609 c 0,-0.23828 -0.101562,-0.4375 -0.3125,-0.59375 -0.207031,-0.15234 -0.585937,-0.23437 -1.140625,-0.23437 -0.496094,0 -0.851562,0.082 -1.0625,0.23437 -0.207031,0.15625 -0.3125,0.35547 -0.3125,0.59375 z m 7.640625,0 -8.3125,-4.3125 0,-0.78125 8.3125,4.29688 z m -2.140625,-3.40625 c -0.570312,0 -1.050781,-0.14062 -1.4375,-0.42187 -0.394531,-0.27735 -0.59375,-0.69141 -0.59375,-1.23438 0,-0.48828 0.179688,-0.89453 0.53125,-1.21875 0.355469,-0.33203 0.878906,-0.5 1.5625,-0.5 0.65625,0 1.167969,0.16797 1.53125,0.5 0.363281,0.32422 0.546875,0.73047 0.546875,1.21875 0,0.46875 -0.179687,0.86719 -0.53125,1.1875 -0.363281,0.3125 -0.898437,0.46875 -1.609375,0.46875 z M 4.8125,293.15234 c 0,0.25 0.105469,0.45703 0.3125,0.60938 0.210938,0.15625 0.589844,0.23437 1.140625,0.23437 0.5,0 0.855469,-0.0781 1.0625,-0.23437 0.210938,-0.16406 0.3125,-0.36328 0.3125,-0.59375 0,-0.2461 -0.101562,-0.45313 -0.3125,-0.60938 -0.207031,-0.16406 -0.585937,-0.25 -1.140625,-0.25 -0.507812,0 -0.863281,0.0859 -1.0625,0.25 -0.207031,0.15625 -0.3125,0.35547 -0.3125,0.59375 z"
     style="fill:#000000;fill-opacity:1;fill-rule:nonzero;stroke:none" />
  <path
     inkscape:connector-curvature="0"
     id="path238"
     d="m 8.015625,284.87891 -6.9375,0 0,2.59375 -0.9375,0 0,-6.23438 0.9375,0 0,2.60938 6.9375,0 z"
     style="fill:#000000;fill-opacity:1;fill-rule:nonzero;stroke:none" />
  <path
     inkscape:connector-curvature="0"
     id="path240"
     d="m 5.25,274.55078 0.265625,-1.04687 c 0.855469,0.21875 1.511719,0.61718 1.96875,1.1875 0.449219,0.5625 0.671875,1.25781 0.671875,2.07812 0,0.85547 -0.171875,1.55078 -0.515625,2.07813 -0.351562,0.53125 -0.859375,0.9414 -1.515625,1.21875 -0.652344,0.27343 -1.359375,0.40625 -2.109375,0.40625 -0.808594,0 -1.523437,-0.15625 -2.140625,-0.46875 C 1.261719,279.69531 0.796875,279.25 0.484375,278.67578 0.164063,278.09375 0,277.45312 0,276.75391 c 0,-0.78907 0.207031,-1.45313 0.609375,-1.98438 0.398438,-0.53906 0.960938,-0.91406 1.6875,-1.125 l 0.25,1.03125 c -0.570312,0.17969 -0.988281,0.44531 -1.25,0.79688 -0.257812,0.34375 -0.390625,0.77734 -0.390625,1.29687 0,0.61719 0.148438,1.12891 0.4375,1.53125 0.28125,0.40625 0.667969,0.69531 1.15625,0.85938 0.492188,0.15625 0.996094,0.23437 1.515625,0.23437 0.667969,0 1.253906,-0.0937 1.75,-0.28125 0.5,-0.19531 0.878906,-0.5 1.125,-0.90625 0.25,-0.41406 0.375,-0.86328 0.375,-1.34375 0,-0.58203 -0.164062,-1.07812 -0.5,-1.48437 C 6.425781,274.97656 5.917969,274.69922 5.25,274.55078 Z"
     style="fill:#000000;fill-opacity:1;fill-rule:nonzero;stroke:none" />
  <path
     inkscape:connector-curvature="0"
     id="path242"
     d="m 6.3125,272.73047 -0.15625,-0.95313 c 0.386719,-0.0508 0.683594,-0.19531 0.890625,-0.4375 0.199219,-0.24609 0.296875,-0.59375 0.296875,-1.03125 0,-0.44531 -0.085937,-0.77343 -0.265625,-0.98437 -0.175781,-0.21485 -0.390625,-0.32813 -0.640625,-0.32813 -0.214844,0 -0.390625,0.0977 -0.515625,0.28125 -0.082031,0.13672 -0.191406,0.46485 -0.328125,0.98438 -0.175781,0.71094 -0.328125,1.20703 -0.453125,1.48437 -0.132812,0.27344 -0.316406,0.48047 -0.546875,0.625 -0.226562,0.13672 -0.484375,0.20313 -0.765625,0.20313 -0.257812,0 -0.492187,-0.0547 -0.703125,-0.17188 -0.214844,-0.11328 -0.398437,-0.27343 -0.546875,-0.48437 -0.113281,-0.14453 -0.207031,-0.34766 -0.28125,-0.60938 -0.070312,-0.25781 -0.109375,-0.53515 -0.109375,-0.82812 0,-0.44531 0.066406,-0.83594 0.1875,-1.17188 0.125,-0.33984 0.304688,-0.59375 0.53125,-0.75 0.21875,-0.16406 0.511719,-0.28125 0.875,-0.34375 l 0.125,0.9375 c -0.289062,0.0547 -0.515625,0.1836 -0.671875,0.39063 -0.164062,0.19922 -0.25,0.48828 -0.25,0.85937 0,0.44922 0.074219,0.76953 0.21875,0.95313 0.148438,0.1875 0.320313,0.28125 0.515625,0.28125 0.125,0 0.238281,-0.0352 0.328125,-0.10938 0.105469,-0.082 0.195313,-0.20703 0.265625,-0.375 0.03125,-0.0898 0.117188,-0.3789 0.25,-0.85937 0.179688,-0.67578 0.324219,-1.14844 0.4375,-1.42188 0.117188,-0.26953 0.289063,-0.48437 0.515625,-0.64062 0.21875,-0.15235 0.496094,-0.23438 0.828125,-0.23438 0.324219,0 0.628906,0.0977 0.90625,0.28125 0.28125,0.1875 0.503906,0.46094 0.65625,0.8125 0.152344,0.35547 0.234375,0.75782 0.234375,1.20313 0,0.74219 -0.148437,1.30859 -0.453125,1.70312 -0.308594,0.38672 -0.769531,0.63282 -1.375,0.73438 z"
     style="fill:#000000;fill-opacity:1;fill-rule:nonzero;stroke:none" />
  <path
     inkscape:connector-curvature="0"
     id="path244"
     d="M 7.15625,261.67578 8,261.55078 c 0.058594,0.27344 0.09375,0.51172 0.09375,0.71875 0,0.35547 -0.058594,0.63281 -0.171875,0.82813 -0.113281,0.1875 -0.257812,0.32421 -0.4375,0.40625 -0.175781,0.0742 -0.554687,0.10937 -1.140625,0.10937 l -3.28125,0 0,0.71875 -0.75,0 0,-0.71875 -1.40625,0 -0.59375,-0.95312 2,0 0,-0.98438 0.75,0 0,0.98438 3.34375,0 c 0.273438,0 0.449219,-0.0156 0.53125,-0.0469 0.074219,-0.0391 0.136719,-0.0977 0.1875,-0.17187 0.042969,-0.082 0.0625,-0.19141 0.0625,-0.32813 0,-0.11328 -0.00781,-0.25781 -0.03125,-0.4375 z"
     style="fill:#000000;fill-opacity:1;fill-rule:nonzero;stroke:none" />
  <path
     inkscape:connector-curvature="0"
     id="path246"
     d="m 5.15625,261.10156 c -1.050781,0 -1.832031,-0.29687 -2.34375,-0.89062 -0.414062,-0.48828 -0.625,-1.08594 -0.625,-1.79688 0,-0.77734 0.257813,-1.41406 0.765625,-1.90625 0.511719,-0.49609 1.222656,-0.75 2.125,-0.75 0.742188,0 1.324219,0.11328 1.75,0.32813 0.417969,0.21875 0.742188,0.54297 0.96875,0.96875 0.226563,0.41797 0.34375,0.87109 0.34375,1.35937 0,0.80469 -0.253906,1.45703 -0.765625,1.95313 -0.507812,0.49218 -1.25,0.73437 -2.21875,0.73437 z m 0,-1 c 0.742188,0 1.292969,-0.15625 1.65625,-0.46875 0.355469,-0.32031 0.53125,-0.72656 0.53125,-1.21875 0,-0.47656 -0.179687,-0.875 -0.546875,-1.1875 C 6.433594,256.90625 5.875,256.74219 5.125,256.74219 c -0.695312,0 -1.226562,0.16406 -1.59375,0.48437 -0.363281,0.32422 -0.546875,0.72266 -0.546875,1.1875 0,0.49219 0.183594,0.89844 0.546875,1.21875 0.355469,0.3125 0.898438,0.46875 1.625,0.46875 z"
     style="fill:#000000;fill-opacity:1;fill-rule:nonzero;stroke:none" />
  <path
     inkscape:connector-curvature="0"
     id="path248"
     d="m 8.015625,250.67578 0,0.89063 -7.875,0 0,-0.96875 2.8125,0 C 2.445313,250.19531 2.1875,249.67187 2.1875,249.03516 c 0,-0.35157 0.074219,-0.6875 0.21875,-1 0.136719,-0.3086 0.335938,-0.56641 0.59375,-0.76563 0.25,-0.20703 0.558594,-0.36719 0.921875,-0.48437 0.355469,-0.11329 0.742188,-0.17188 1.15625,-0.17188 0.980469,0 1.738281,0.24609 2.265625,0.73438 0.53125,0.48046 0.796875,1.05859 0.796875,1.73437 0,0.67969 -0.28125,1.21094 -0.84375,1.59375 z m -2.890625,0 c 0.679688,0 1.175781,-0.0937 1.484375,-0.28125 0.492188,-0.30078 0.734375,-0.71094 0.734375,-1.23437 0,-0.41407 -0.179687,-0.77344 -0.546875,-1.07813 -0.363281,-0.30859 -0.910156,-0.46875 -1.640625,-0.46875 -0.738281,0 -1.285156,0.14844 -1.640625,0.4375 -0.351562,0.29297 -0.53125,0.65234 -0.53125,1.07813 0,0.41796 0.183594,0.78515 0.546875,1.09375 0.367188,0.30468 0.898438,0.45312 1.59375,0.45312 z"
     style="fill:#000000;fill-opacity:1;fill-rule:nonzero;stroke:none" />
  <path
     inkscape:connector-curvature="0"
     id="path250"
     d="m 6.171875,241.54687 0.125,-1 c 0.585938,0.15625 1.039063,0.44922 1.359375,0.875 0.324219,0.42969 0.484375,0.97266 0.484375,1.625 0,0.83594 -0.253906,1.4961 -0.765625,1.98438 -0.507812,0.49219 -1.226562,0.73437 -2.15625,0.73437 -0.964844,0 -1.710937,-0.24218 -2.234375,-0.73437 -0.527344,-0.49609 -0.796875,-1.14063 -0.796875,-1.92188 0,-0.76953 0.261719,-1.39453 0.78125,-1.875 0.511719,-0.47656 1.242188,-0.71875 2.1875,-0.71875 l 0.25,0 0,4.25 c 0.625,-0.0273 1.105469,-0.20312 1.4375,-0.51562 0.335938,-0.32031 0.5,-0.72266 0.5,-1.20313 0,-0.35156 -0.085937,-0.65625 -0.265625,-0.90625 -0.183594,-0.24609 -0.488281,-0.44531 -0.90625,-0.59375 z m -1.5625,3.17188 0,-3.1875 c -0.476562,0.043 -0.835937,0.16406 -1.078125,0.35937 -0.363281,0.3125 -0.546875,0.71485 -0.546875,1.20313 0,0.44922 0.152344,0.82422 0.453125,1.125 0.292969,0.30469 0.683594,0.47266 1.171875,0.5 z"
     style="fill:#000000;fill-opacity:1;fill-rule:nonzero;stroke:none" />
  <path
     inkscape:connector-curvature="0"
     id="path252"
     d="m 6.171875,232.37109 0.125,-1 c 0.585938,0.15625 1.039063,0.44922 1.359375,0.875 0.324219,0.42969 0.484375,0.97266 0.484375,1.625 0,0.83594 -0.253906,1.4961 -0.765625,1.98438 -0.507812,0.49219 -1.226562,0.73437 -2.15625,0.73437 -0.964844,0 -1.710937,-0.24218 -2.234375,-0.73437 -0.527344,-0.4961 -0.796875,-1.14063 -0.796875,-1.92188 0,-0.76953 0.261719,-1.39453 0.78125,-1.875 0.511719,-0.47656 1.242188,-0.71875 2.1875,-0.71875 l 0.25,0 0,4.25 c 0.625,-0.0273 1.105469,-0.20312 1.4375,-0.51562 0.335938,-0.32031 0.5,-0.72266 0.5,-1.20313 0,-0.35156 -0.085937,-0.65625 -0.265625,-0.90625 -0.183594,-0.24609 -0.488281,-0.44531 -0.90625,-0.59375 z m -1.5625,3.17188 0,-3.1875 c -0.476562,0.043 -0.835937,0.16406 -1.078125,0.35937 -0.363281,0.3125 -0.546875,0.71485 -0.546875,1.20313 0,0.44922 0.152344,0.82422 0.453125,1.125 0.292969,0.30469 0.683594,0.47265 1.171875,0.5 z"
     style="fill:#000000;fill-opacity:1;fill-rule:nonzero;stroke:none" />
  <path
     inkscape:connector-curvature="0"
     id="path254"
     d="m 8.015625,231.13281 -2.96875,-2.09375 -2.734375,1.9375 0,-1.20312 1.34375,-0.89063 c 0.25,-0.15234 0.460938,-0.28515 0.625,-0.39062 -0.226562,-0.15235 -0.4375,-0.30078 -0.625,-0.4375 l -1.34375,-0.95313 0,-1.15625 2.6875,1.96875 3.015625,-2.125 0,1.1875 -1.765625,1.17188 -0.484375,0.3125 2.25,1.5 z"
     style="fill:#000000;fill-opacity:1;fill-rule:nonzero;stroke:none" />
  <path
     inkscape:connector-curvature="0"
     id="path256"
     d="m 6.171875,221.41406 0.125,-1 c 0.585938,0.15625 1.039063,0.44922 1.359375,0.875 0.324219,0.42969 0.484375,0.97266 0.484375,1.625 0,0.83594 -0.253906,1.4961 -0.765625,1.98438 -0.507812,0.49218 -1.226562,0.73437 -2.15625,0.73437 -0.964844,0 -1.710937,-0.24219 -2.234375,-0.73437 -0.527344,-0.4961 -0.796875,-1.14063 -0.796875,-1.92188 0,-0.76953 0.261719,-1.39453 0.78125,-1.875 0.511719,-0.47656 1.242188,-0.71875 2.1875,-0.71875 l 0.25,0 0,4.25 c 0.625,-0.0273 1.105469,-0.20312 1.4375,-0.51562 0.335938,-0.32032 0.5,-0.72266 0.5,-1.20313 0,-0.35156 -0.085937,-0.65625 -0.265625,-0.90625 -0.183594,-0.24609 -0.488281,-0.44531 -0.90625,-0.59375 z m -1.5625,3.17188 0,-3.1875 c -0.476562,0.043 -0.835937,0.16406 -1.078125,0.35937 -0.363281,0.3125 -0.546875,0.71485 -0.546875,1.20313 0,0.44922 0.152344,0.82422 0.453125,1.125 0.292969,0.30468 0.683594,0.47265 1.171875,0.5 z"
     style="fill:#000000;fill-opacity:1;fill-rule:nonzero;stroke:none" />
  <path
     inkscape:connector-curvature="0"
     id="path258"
     d="m 5.921875,215.47266 0.125,-0.9375 c 0.65625,0.0937 1.175781,0.36328 1.546875,0.79687 0.367188,0.42969 0.546875,0.94922 0.546875,1.5625 0,0.78125 -0.253906,1.41406 -0.765625,1.89063 -0.507812,0.46875 -1.238281,0.70312 -2.1875,0.70312 -0.613281,0 -1.148437,-0.0977 -1.609375,-0.29687 -0.464844,-0.20704 -0.816406,-0.51954 -1.046875,-0.9375 -0.226562,-0.41407 -0.34375,-0.86719 -0.34375,-1.35938 0,-0.61328 0.160156,-1.11719 0.46875,-1.51562 0.3125,-0.39454 0.757813,-0.64844 1.328125,-0.76563 L 4.125,215.56641 c -0.371094,0.0859 -0.65625,0.24218 -0.84375,0.46875 -0.195312,0.23046 -0.296875,0.50781 -0.296875,0.82812 0,0.48047 0.179688,0.87891 0.53125,1.1875 0.34375,0.30469 0.894531,0.45313 1.640625,0.45313 0.773438,0 1.332031,-0.14454 1.671875,-0.4375 0.34375,-0.28907 0.515625,-0.67579 0.515625,-1.15625 0,-0.3711 -0.113281,-0.6875 -0.34375,-0.9375 -0.226562,-0.25782 -0.585937,-0.42579 -1.078125,-0.5 z"
     style="fill:#000000;fill-opacity:1;fill-rule:nonzero;stroke:none" />
  <path
     inkscape:connector-curvature="0"
     id="path260"
     d="m 8.015625,209.95703 -0.84375,0 c 0.648438,0.44922 0.96875,1.05469 0.96875,1.8125 0,0.33594 -0.066406,0.65234 -0.1875,0.95313 -0.132812,0.29296 -0.296875,0.51171 -0.484375,0.65625 -0.195312,0.13671 -0.4375,0.23046 -0.71875,0.28125 -0.183594,0.043 -0.488281,0.0625 -0.90625,0.0625 l -3.53125,0 0,-0.96875 3.15625,0 c 0.511719,0 0.855469,-0.0195 1.03125,-0.0625 0.25,-0.0586 0.449219,-0.1875 0.59375,-0.375 0.148438,-0.19532 0.21875,-0.44141 0.21875,-0.73438 0,-0.28906 -0.070312,-0.5625 -0.21875,-0.8125 C 6.941406,210.51172 6.734375,210.32812 6.484375,210.22266 6.226563,210.12109 5.855469,210.06641 5.375,210.06641 l -3.0625,0 0,-0.96875 5.703125,0 z"
     style="fill:#000000;fill-opacity:1;fill-rule:nonzero;stroke:none" />
  <path
     inkscape:connector-curvature="0"
     id="path262"
     d="M 7.15625,205.46484 8,205.33984 c 0.058594,0.27344 0.09375,0.51172 0.09375,0.71875 0,0.35547 -0.058594,0.63282 -0.171875,0.82813 -0.113281,0.1875 -0.257812,0.32422 -0.4375,0.40625 -0.175781,0.0742 -0.554687,0.10937 -1.140625,0.10937 l -3.28125,0 0,0.71875 -0.75,0 0,-0.71875 -1.40625,0 -0.59375,-0.95312 2,0 0,-0.98438 0.75,0 0,0.98438 3.34375,0 c 0.273438,0 0.449219,-0.0156 0.53125,-0.0469 0.074219,-0.0391 0.136719,-0.0977 0.1875,-0.17187 0.042969,-0.082 0.0625,-0.19141 0.0625,-0.32813 0,-0.11328 -0.00781,-0.25781 -0.03125,-0.4375 z"
     style="fill:#000000;fill-opacity:1;fill-rule:nonzero;stroke:none" />
  <path
     inkscape:connector-curvature="0"
     id="path264"
     d="m 6.171875,200.625 0.125,-1 c 0.585938,0.15625 1.039063,0.44922 1.359375,0.875 0.324219,0.42969 0.484375,0.97266 0.484375,1.625 0,0.83594 -0.253906,1.49609 -0.765625,1.98437 -0.507812,0.49219 -1.226562,0.73438 -2.15625,0.73438 -0.964844,0 -1.710937,-0.24219 -2.234375,-0.73438 C 2.457031,203.61328 2.1875,202.96875 2.1875,202.1875 c 0,-0.76953 0.261719,-1.39453 0.78125,-1.875 0.511719,-0.47656 1.242188,-0.71875 2.1875,-0.71875 l 0.25,0 0,4.25 c 0.625,-0.0273 1.105469,-0.20313 1.4375,-0.51563 0.335938,-0.32031 0.5,-0.72265 0.5,-1.20312 0,-0.35156 -0.085937,-0.65625 -0.265625,-0.90625 -0.183594,-0.24609 -0.488281,-0.44531 -0.90625,-0.59375 z m -1.5625,3.17187 0,-3.1875 c -0.476562,0.043 -0.835937,0.16407 -1.078125,0.35938 -0.363281,0.3125 -0.546875,0.71484 -0.546875,1.20312 0,0.44922 0.152344,0.82422 0.453125,1.125 0.292969,0.30469 0.683594,0.47266 1.171875,0.5 z"
     style="fill:#000000;fill-opacity:1;fill-rule:nonzero;stroke:none" />
  <path
     inkscape:connector-curvature="0"
     id="path266"
     d="m 8.015625,194.71094 -0.71875,0 c 0.5625,0.35547 0.84375,0.88672 0.84375,1.59375 0,0.44922 -0.125,0.86718 -0.375,1.25 -0.246094,0.38672 -0.597656,0.68359 -1.046875,0.89062 -0.445312,0.21094 -0.960937,0.3125 -1.546875,0.3125 -0.570312,0 -1.085937,-0.0937 -1.546875,-0.28125 -0.464844,-0.19531 -0.820312,-0.48437 -1.0625,-0.85937 -0.246094,-0.3711 -0.375,-0.79688 -0.375,-1.26563 0,-0.33984 0.074219,-0.64844 0.21875,-0.92187 0.148438,-0.26953 0.335938,-0.48828 0.5625,-0.65625 l -2.828125,0 0,-0.96875 7.875,0 z m -2.84375,3.04687 c 0.730469,0 1.277344,-0.14844 1.640625,-0.45312 0.355469,-0.3086 0.53125,-0.67578 0.53125,-1.09375 0,-0.42578 -0.171875,-0.78516 -0.515625,-1.07813 -0.339844,-0.28906 -0.867187,-0.4375 -1.578125,-0.4375 -0.777344,0 -1.351562,0.15235 -1.71875,0.45313 -0.363281,0.29297 -0.546875,0.66406 -0.546875,1.10937 0,0.42969 0.179688,0.78906 0.53125,1.07813 0.34375,0.28125 0.898438,0.42187 1.65625,0.42187 z"
     style="fill:#000000;fill-opacity:1;fill-rule:nonzero;stroke:none" />
  <path
     inkscape:connector-curvature="0"
     id="path268"
     d="M 7.15625,187.11719 8,186.99219 c 0.058594,0.27343 0.09375,0.51172 0.09375,0.71875 0,0.35547 -0.058594,0.63281 -0.171875,0.82812 -0.113281,0.1875 -0.257812,0.32422 -0.4375,0.40625 -0.175781,0.0742 -0.554687,0.10938 -1.140625,0.10938 l -3.28125,0 0,0.71875 -0.75,0 0,-0.71875 -1.40625,0 -0.59375,-0.95313 2,0 0,-0.98437 0.75,0 0,0.98437 3.34375,0 c 0.273438,0 0.449219,-0.0156 0.53125,-0.0469 0.074219,-0.0391 0.136719,-0.0977 0.1875,-0.17188 0.042969,-0.082 0.0625,-0.1914 0.0625,-0.32812 0,-0.11328 -0.00781,-0.25782 -0.03125,-0.4375 z"
     style="fill:#000000;fill-opacity:1;fill-rule:nonzero;stroke:none" />
  <path
     inkscape:connector-curvature="0"
     id="path270"
     d="m 5.15625,186.54297 c -1.050781,0 -1.832031,-0.29688 -2.34375,-0.89063 -0.414062,-0.48828 -0.625,-1.08593 -0.625,-1.79687 0,-0.77735 0.257813,-1.41406 0.765625,-1.90625 0.511719,-0.4961 1.222656,-0.75 2.125,-0.75 0.742188,0 1.324219,0.11328 1.75,0.32812 0.417969,0.21875 0.742188,0.54297 0.96875,0.96875 0.226563,0.41797 0.34375,0.8711 0.34375,1.35938 0,0.80469 -0.253906,1.45703 -0.765625,1.95312 -0.507812,0.49219 -1.25,0.73438 -2.21875,0.73438 z m 0,-1 c 0.742188,0 1.292969,-0.15625 1.65625,-0.46875 0.355469,-0.32031 0.53125,-0.72656 0.53125,-1.21875 0,-0.47656 -0.179687,-0.875 -0.546875,-1.1875 C 6.433594,182.34766 5.875,182.18359 5.125,182.18359 c -0.695312,0 -1.226562,0.16407 -1.59375,0.48438 -0.363281,0.32422 -0.546875,0.72265 -0.546875,1.1875 0,0.49219 0.183594,0.89844 0.546875,1.21875 0.355469,0.3125 0.898438,0.46875 1.625,0.46875 z"
     style="fill:#000000;fill-opacity:1;fill-rule:nonzero;stroke:none" />
  <path
     inkscape:connector-curvature="0"
     id="path272"
     d="m 8.015625,176.77344 -4.953125,0 0,0.84375 -0.75,0 0,-0.84375 -0.609375,0 c -0.382812,0 -0.671875,-0.0352 -0.859375,-0.10938 -0.246094,-0.0898 -0.453125,-0.2539 -0.609375,-0.48437 C 0.0820313,175.94141 0,175.61328 0,175.19531 0,174.92578 0.0390625,174.625 0.109375,174.28906 l 0.84375,0.14063 c -0.039062,0.21093 -0.0625,0.40234 -0.0625,0.57812 0,0.29297 0.066406,0.50391 0.1875,0.625 0.125,0.11719 0.363281,0.17188 0.703125,0.17188 l 0.53125,0 0,-1.10938 0.75,0 0,1.10938 4.953125,0 z"
     style="fill:#000000;fill-opacity:1;fill-rule:nonzero;stroke:none" />
  <path
     inkscape:connector-curvature="0"
     id="path274"
     d="m 1.25,173.9375 -1.109375,0 0,-0.96875 1.109375,0 z m 6.765625,0 -5.703125,0 0,-0.96875 5.703125,0 z"
     style="fill:#000000;fill-opacity:1;fill-rule:nonzero;stroke:none" />
  <path
     inkscape:connector-curvature="0"
     id="path276"
     d="m 8.015625,171.50781 -5.703125,0 0,-0.875 0.8125,0 c -0.621094,-0.41406 -0.9375,-1.01953 -0.9375,-1.8125 0,-0.33984 0.066406,-0.66015 0.1875,-0.95312 0.117188,-0.28907 0.277344,-0.50391 0.484375,-0.64063 0.199219,-0.14453 0.433594,-0.25 0.703125,-0.3125 0.1875,-0.0273 0.507813,-0.0469 0.953125,-0.0469 l 3.5,0 0,0.96875 -3.46875,0 c -0.394531,0 -0.6875,0.0391 -0.875,0.10937 -0.195312,0.0742 -0.351562,0.21094 -0.46875,0.40625 -0.121094,0.1875 -0.1875,0.41406 -0.1875,0.67188 0,0.40625 0.132813,0.76172 0.390625,1.0625 0.261719,0.30468 0.761719,0.45312 1.5,0.45312 l 3.109375,0 z"
     style="fill:#000000;fill-opacity:1;fill-rule:nonzero;stroke:none" />
  <path
     inkscape:connector-curvature="0"
     id="path278"
     d="m 8.015625,161.69141 -0.71875,0 c 0.5625,0.35546 0.84375,0.88671 0.84375,1.59375 0,0.44921 -0.125,0.86718 -0.375,1.25 -0.246094,0.38671 -0.597656,0.68359 -1.046875,0.89062 -0.445312,0.21094 -0.960937,0.3125 -1.546875,0.3125 -0.570312,0 -1.085937,-0.0937 -1.546875,-0.28125 -0.464844,-0.19531 -0.820312,-0.48437 -1.0625,-0.85937 -0.246094,-0.3711 -0.375,-0.79688 -0.375,-1.26563 0,-0.33984 0.074219,-0.64844 0.21875,-0.92187 0.148438,-0.26954 0.335938,-0.48829 0.5625,-0.65625 l -2.828125,0 0,-0.96875 7.875,0 z m -2.84375,3.04687 c 0.730469,0 1.277344,-0.14844 1.640625,-0.45312 0.355469,-0.3086 0.53125,-0.67579 0.53125,-1.09375 0,-0.42579 -0.171875,-0.78516 -0.515625,-1.07813 -0.339844,-0.28906 -0.867187,-0.4375 -1.578125,-0.4375 -0.777344,0 -1.351562,0.15234 -1.71875,0.45313 -0.363281,0.29296 -0.546875,0.66406 -0.546875,1.10937 0,0.42969 0.179688,0.78906 0.53125,1.07813 0.34375,0.28125 0.898438,0.42187 1.65625,0.42187 z"
     style="fill:#000000;fill-opacity:1;fill-rule:nonzero;stroke:none" />
  <path
     inkscape:connector-curvature="0"
     id="path280"
     d="M 7.15625,154.09375 8,153.96875 c 0.058594,0.27344 0.09375,0.51172 0.09375,0.71875 0,0.35547 -0.058594,0.63281 -0.171875,0.82812 -0.113281,0.1875 -0.257812,0.32422 -0.4375,0.40625 -0.175781,0.0742 -0.554687,0.10938 -1.140625,0.10938 l -3.28125,0 0,0.71875 -0.75,0 0,-0.71875 -1.40625,0 -0.59375,-0.95313 2,0 0,-0.98437 0.75,0 0,0.98437 3.34375,0 c 0.273438,0 0.449219,-0.0156 0.53125,-0.0469 0.074219,-0.0391 0.136719,-0.0977 0.1875,-0.17188 0.042969,-0.082 0.0625,-0.1914 0.0625,-0.32812 0,-0.11328 -0.00781,-0.25781 -0.03125,-0.4375 z"
     style="fill:#000000;fill-opacity:1;fill-rule:nonzero;stroke:none" />
  <path
     inkscape:connector-curvature="0"
     id="path282"
     d="m 8.015625,153.16016 -7.875,0 0,-0.96875 2.828125,0 c -0.519531,-0.45704 -0.78125,-1.03125 -0.78125,-1.71875 0,-0.41407 0.085938,-0.78125 0.25,-1.09375 0.167969,-0.3086 0.398438,-0.53516 0.6875,-0.67188 0.292969,-0.13281 0.722656,-0.20312 1.28125,-0.20312 l 3.609375,0 0,0.96875 -3.609375,0 c -0.488281,0 -0.84375,0.10546 -1.0625,0.3125 -0.214844,0.21093 -0.328125,0.50781 -0.328125,0.89062 0,0.29297 0.074219,0.56641 0.21875,0.8125 0.148438,0.25 0.351563,0.43359 0.609375,0.54688 0.25,0.10546 0.601563,0.15625 1.046875,0.15625 l 3.125,0 z"
     style="fill:#000000;fill-opacity:1;fill-rule:nonzero;stroke:none" />
  <path
     inkscape:connector-curvature="0"
     id="path284"
     d="m 6.171875,143.14062 0.125,-1 c 0.585938,0.15625 1.039063,0.44922 1.359375,0.875 0.324219,0.42969 0.484375,0.97266 0.484375,1.625 0,0.83594 -0.253906,1.4961 -0.765625,1.98438 -0.507812,0.49219 -1.226562,0.73437 -2.15625,0.73437 -0.964844,0 -1.710937,-0.24218 -2.234375,-0.73437 -0.527344,-0.49609 -0.796875,-1.14063 -0.796875,-1.92188 0,-0.76953 0.261719,-1.39453 0.78125,-1.875 0.511719,-0.47656 1.242188,-0.71875 2.1875,-0.71875 l 0.25,0 0,4.25 c 0.625,-0.0273 1.105469,-0.20312 1.4375,-0.51562 0.335938,-0.32031 0.5,-0.72266 0.5,-1.20313 0,-0.35156 -0.085937,-0.65625 -0.265625,-0.90625 -0.183594,-0.24609 -0.488281,-0.44531 -0.90625,-0.59375 z m -1.5625,3.17188 0,-3.1875 c -0.476562,0.043 -0.835937,0.16406 -1.078125,0.35937 -0.363281,0.3125 -0.546875,0.71485 -0.546875,1.20313 0,0.44922 0.152344,0.82422 0.453125,1.125 0.292969,0.30469 0.683594,0.47266 1.171875,0.5 z"
     style="fill:#000000;fill-opacity:1;fill-rule:nonzero;stroke:none" />
  <path
     inkscape:connector-curvature="0"
     id="path286"
     d="m 8.015625,137.63672 -4.953125,0 0,0.84375 -0.75,0 0,-0.84375 -0.609375,0 c -0.382812,0 -0.671875,-0.0352 -0.859375,-0.10938 -0.246094,-0.0898 -0.453125,-0.2539 -0.609375,-0.48437 C 0.0820313,136.80469 0,136.47656 0,136.05859 c 0,-0.26953 0.0390625,-0.57031 0.109375,-0.90625 l 0.84375,0.14063 c -0.039062,0.21094 -0.0625,0.40234 -0.0625,0.57812 0,0.29297 0.066406,0.50391 0.1875,0.625 0.125,0.11719 0.363281,0.17188 0.703125,0.17188 l 0.53125,0 0,-1.10938 0.75,0 0,1.10938 4.953125,0 z"
     style="fill:#000000;fill-opacity:1;fill-rule:nonzero;stroke:none" />
  <path
     inkscape:connector-curvature="0"
     id="path288"
     d="m 1.25,134.79687 -1.109375,0 0,-0.96875 1.109375,0 z m 6.765625,0 -5.703125,0 0,-0.96875 5.703125,0 z"
     style="fill:#000000;fill-opacity:1;fill-rule:nonzero;stroke:none" />
  <path
     inkscape:connector-curvature="0"
     id="path290"
     d="m 8.015625,132.37109 -5.703125,0 0,-0.85937 0.859375,0 C 2.769531,131.28516 2.5,131.07422 2.375,130.88672 c -0.121094,-0.1836 -0.1875,-0.39063 -0.1875,-0.60938 0,-0.33203 0.105469,-0.66406 0.3125,-1 l 0.890625,0.32813 c -0.132812,0.24219 -0.203125,0.48047 -0.203125,0.71875 0,0.21094 0.066406,0.39844 0.1875,0.5625 0.125,0.16797 0.304688,0.28906 0.53125,0.35937 0.34375,0.10547 0.722656,0.15625 1.125,0.15625 l 2.984375,0 z"
     style="fill:#000000;fill-opacity:1;fill-rule:nonzero;stroke:none" />
  <path
     inkscape:connector-curvature="0"
     id="path292"
     d="m 6.3125,129.08203 -0.15625,-0.95312 c 0.386719,-0.0508 0.683594,-0.19532 0.890625,-0.4375 0.199219,-0.2461 0.296875,-0.59375 0.296875,-1.03125 0,-0.44532 -0.085937,-0.77344 -0.265625,-0.98438 -0.175781,-0.21484 -0.390625,-0.32812 -0.640625,-0.32812 -0.214844,0 -0.390625,0.0977 -0.515625,0.28125 -0.082031,0.13672 -0.191406,0.46484 -0.328125,0.98437 -0.175781,0.71094 -0.328125,1.20703 -0.453125,1.48438 -0.132812,0.27343 -0.316406,0.48046 -0.546875,0.625 -0.226562,0.13671 -0.484375,0.20312 -0.765625,0.20312 -0.257812,0 -0.492187,-0.0547 -0.703125,-0.17187 C 2.910156,128.64062 2.726563,128.48047 2.578125,128.26953 2.464844,128.125 2.371094,127.92188 2.296875,127.66016 2.226563,127.40234 2.1875,127.125 2.1875,126.83203 c 0,-0.44531 0.066406,-0.83594 0.1875,-1.17187 0.125,-0.33985 0.304688,-0.59375 0.53125,-0.75 0.21875,-0.16407 0.511719,-0.28125 0.875,-0.34375 l 0.125,0.9375 c -0.289062,0.0547 -0.515625,0.18359 -0.671875,0.39062 -0.164062,0.19922 -0.25,0.48828 -0.25,0.85938 0,0.44922 0.074219,0.76953 0.21875,0.95312 0.148438,0.1875 0.320313,0.28125 0.515625,0.28125 0.125,0 0.238281,-0.0352 0.328125,-0.10937 0.105469,-0.082 0.195313,-0.20703 0.265625,-0.375 0.03125,-0.0898 0.117188,-0.37891 0.25,-0.85938 0.179688,-0.67578 0.324219,-1.14844 0.4375,-1.42187 0.117188,-0.26953 0.289063,-0.48438 0.515625,-0.64063 0.21875,-0.15234 0.496094,-0.23437 0.828125,-0.23437 0.324219,0 0.628906,0.0977 0.90625,0.28125 0.28125,0.1875 0.503906,0.46093 0.65625,0.8125 0.152344,0.35547 0.234375,0.75781 0.234375,1.20312 0,0.74219 -0.148437,1.3086 -0.453125,1.70313 -0.308594,0.38671 -0.769531,0.63281 -1.375,0.73437 z"
     style="fill:#000000;fill-opacity:1;fill-rule:nonzero;stroke:none" />
  <path
     inkscape:connector-curvature="0"
     id="path294"
     d="M 7.15625,121.08203 8,120.95703 c 0.058594,0.27344 0.09375,0.51172 0.09375,0.71875 0,0.35547 -0.058594,0.63281 -0.171875,0.82813 -0.113281,0.1875 -0.257812,0.32422 -0.4375,0.40625 -0.175781,0.0742 -0.554687,0.10937 -1.140625,0.10937 l -3.28125,0 0,0.71875 -0.75,0 0,-0.71875 -1.40625,0 -0.59375,-0.95312 2,0 0,-0.98438 0.75,0 0,0.98438 3.34375,0 c 0.273438,0 0.449219,-0.0156 0.53125,-0.0469 0.074219,-0.0391 0.136719,-0.0977 0.1875,-0.17187 0.042969,-0.082 0.0625,-0.19141 0.0625,-0.32813 0,-0.11328 -0.00781,-0.25781 -0.03125,-0.4375 z"
     style="fill:#000000;fill-opacity:1;fill-rule:nonzero;stroke:none" />
  <path
     inkscape:connector-curvature="0"
     id="path296"
     d="m 8.015625,116.85938 -4.953125,0 0,0.84375 -0.75,0 0,-0.84375 -0.609375,0 c -0.382812,0 -0.671875,-0.0352 -0.859375,-0.10938 C 0.597656,116.6602 0.390625,116.49609 0.234375,116.26563 0.0820313,116.02734 0,115.69922 0,115.28125 0,115.01172 0.0390625,114.71094 0.109375,114.375 l 0.84375,0.14063 c -0.039062,0.21093 -0.0625,0.40234 -0.0625,0.57812 0,0.29297 0.066406,0.50391 0.1875,0.625 0.125,0.11719 0.363281,0.17188 0.703125,0.17188 l 0.53125,0 0,-1.10938 0.75,0 0,1.10938 4.953125,0 z"
     style="fill:#000000;fill-opacity:1;fill-rule:nonzero;stroke:none" />
  <path
     inkscape:connector-curvature="0"
     id="path298"
     d="m 7.3125,110.62891 c 0.304688,0.36718 0.519531,0.71484 0.640625,1.04687 0.121094,0.32422 0.1875,0.67969 0.1875,1.0625 0,0.625 -0.148437,1.11328 -0.453125,1.45313 -0.308594,0.33593 -0.703125,0.5 -1.171875,0.5 -0.277344,0 -0.535156,-0.0625 -0.765625,-0.1875 -0.226562,-0.13282 -0.410156,-0.30078 -0.546875,-0.5 -0.144531,-0.20703 -0.253906,-0.44141 -0.328125,-0.70313 -0.050781,-0.18359 -0.097656,-0.47265 -0.140625,-0.85937 -0.089844,-0.77735 -0.207031,-1.35157 -0.34375,-1.71875 -0.121094,-0.008 -0.207031,-0.0156 -0.25,-0.0156 -0.394531,0 -0.671875,0.0977 -0.828125,0.28125 -0.214844,0.24219 -0.328125,0.60547 -0.328125,1.09375 0,0.46094 0.082031,0.80078 0.234375,1.01563 0.15625,0.21093 0.441406,0.36718 0.84375,0.46875 l -0.125,0.95312 c -0.402344,-0.082 -0.734375,-0.22265 -0.984375,-0.42187 -0.246094,-0.19532 -0.4375,-0.48438 -0.5625,-0.85938 -0.132812,-0.37109 -0.203125,-0.80469 -0.203125,-1.29687 0,-0.48828 0.058594,-0.88282 0.171875,-1.1875 0.117188,-0.30078 0.261719,-0.51953 0.4375,-0.65625 0.167969,-0.14453 0.382813,-0.25 0.640625,-0.3125 0.167969,-0.0273 0.472656,-0.0469 0.90625,-0.0469 l 1.28125,0 c 0.898438,0 1.464844,-0.0195 1.703125,-0.0625 0.242188,-0.0391 0.472656,-0.125 0.6875,-0.25 l 0,1.01563 c -0.195312,0.10547 -0.429687,0.16797 -0.703125,0.1875 z m -2.15625,0.0937 c 0.148438,0.34375 0.269531,0.87109 0.359375,1.57812 0.0625,0.39844 0.132813,0.67969 0.203125,0.84375 0.0625,0.15625 0.167969,0.28516 0.3125,0.375 0.136719,0.0937 0.289063,0.14063 0.453125,0.14063 0.261719,0 0.480469,-0.0977 0.65625,-0.29688 0.167969,-0.19531 0.25,-0.48437 0.25,-0.85937 0,-0.3711 -0.082031,-0.70313 -0.25,-0.98438 C 6.976563,111.23047 6.75,111.01172 6.46875,110.86328 6.253906,110.77344 5.929688,110.72266 5.5,110.72266 Z"
     style="fill:#000000;fill-opacity:1;fill-rule:nonzero;stroke:none" />
  <path
     inkscape:connector-curvature="0"
     id="path300"
     d="m 1.25,108.23438 -1.109375,0 0,-0.96875 1.109375,0 z m 6.765625,0 -5.703125,0 0,-0.96875 5.703125,0 z"
     style="fill:#000000;fill-opacity:1;fill-rule:nonzero;stroke:none" />
  <path
     inkscape:connector-curvature="0"
     id="path302"
     d="m 0.140625,104.85156 7.875,0 0,0.96875 -7.875,0 z"
     style="fill:#000000;fill-opacity:1;fill-rule:nonzero;stroke:none" />
  <path
     inkscape:connector-curvature="0"
     id="path304"
     d="m 1.25,103.34766 -1.109375,0 0,-0.96875 1.109375,0 z m 6.765625,0 -5.703125,0 0,-0.96875 5.703125,0 z"
     style="fill:#000000;fill-opacity:1;fill-rule:nonzero;stroke:none" />
  <path
     inkscape:connector-curvature="0"
     id="path306"
     d="m 8.015625,100.92188 -5.703125,0 0,-0.875 0.8125,0 C 2.503906,99.632813 2.1875,99.027344 2.1875,98.234375 c 0,-0.339844 0.066406,-0.660156 0.1875,-0.953125 0.117188,-0.289062 0.277344,-0.503906 0.484375,-0.640625 0.199219,-0.144531 0.433594,-0.25 0.703125,-0.3125 0.1875,-0.02734 0.507813,-0.04687 0.953125,-0.04687 l 3.5,0 0,0.96875 -3.46875,0 c -0.394531,0 -0.6875,0.03906 -0.875,0.109375 -0.195312,0.07422 -0.351562,0.210938 -0.46875,0.40625 -0.121094,0.1875 -0.1875,0.414063 -0.1875,0.671875 0,0.40625 0.132813,0.761719 0.390625,1.0625 0.261719,0.304688 0.761719,0.453125 1.5,0.453125 l 3.109375,0 z"
     style="fill:#000000;fill-opacity:1;fill-rule:nonzero;stroke:none" />
  <path
     inkscape:connector-curvature="0"
     id="path308"
     d="M 8.484375,94.976563 8.625,94.039063 C 8.914063,94 9.128906,93.890625 9.265625,93.710938 9.441406,93.472656 9.53125,93.144531 9.53125,92.726563 c 0,-0.445313 -0.089844,-0.789063 -0.265625,-1.03125 -0.179687,-0.246094 -0.429687,-0.414063 -0.75,-0.5 -0.199219,-0.05078 -0.613281,-0.07813 -1.25,-0.07813 0.5,0.429687 0.75,0.960937 0.75,1.59375 0,0.78125 -0.28125,1.386718 -0.84375,1.8125 -0.570312,0.429687 -1.253906,0.640625 -2.046875,0.640625 -0.539062,0 -1.039062,-0.09766 -1.5,-0.296875 C 3.167969,94.67187 2.8125,94.39062 2.5625,94.023433 2.316406,93.652339 2.1875,93.207026 2.1875,92.695308 c 0,-0.664063 0.273438,-1.21875 0.8125,-1.65625 l -0.6875,0 0,-0.890625 4.921875,0 c 0.894531,0 1.523438,0.08984 1.890625,0.265625 0.371094,0.179687 0.664063,0.464843 0.875,0.859375 0.214844,0.398437 0.328125,0.882812 0.328125,1.453125 0,0.679687 -0.160156,1.226562 -0.46875,1.640625 -0.304687,0.417968 -0.761719,0.621093 -1.375,0.609375 z M 5.0625,94.179688 c 0.75,0 1.300781,-0.144532 1.640625,-0.4375 0.34375,-0.300782 0.515625,-0.675782 0.515625,-1.125 0,-0.445313 -0.171875,-0.820313 -0.515625,-1.125 -0.339844,-0.300782 -0.878906,-0.453125 -1.609375,-0.453125 -0.695312,0 -1.222656,0.160156 -1.578125,0.46875 -0.351562,0.3125 -0.53125,0.691406 -0.53125,1.125 0,0.429687 0.179688,0.792968 0.53125,1.09375 0.34375,0.304687 0.863281,0.453125 1.546875,0.453125 z"
     style="fill:#000000;fill-opacity:1;fill-rule:nonzero;stroke:none" />
  <path
     inkscape:connector-curvature="0"
     id="path310"
     d="m 8.015625,83.492188 -6.9375,0 0,2.59375 -0.9375,0 0,-6.234375 0.9375,0 0,2.609375 6.9375,0 z"
     style="fill:#000000;fill-opacity:1;fill-rule:nonzero;stroke:none" />
  <path
     inkscape:connector-curvature="0"
     id="path312"
     d="m 5.25,73.160156 0.265625,-1.046875 c 0.855469,0.21875 1.511719,0.617188 1.96875,1.1875 0.449219,0.5625 0.671875,1.257813 0.671875,2.078125 0,0.855469 -0.171875,1.550782 -0.515625,2.078125 -0.351562,0.53125 -0.859375,0.941407 -1.515625,1.21875 -0.652344,0.273438 -1.359375,0.40625 -2.109375,0.40625 -0.808594,0 -1.523437,-0.15625 -2.140625,-0.46875 C 1.261719,78.304688 0.796875,77.859375 0.484375,77.285156 0.164063,76.703125 0,76.0625 0,75.363281 c 0,-0.789062 0.207031,-1.453125 0.609375,-1.984375 0.398438,-0.539062 0.960938,-0.914062 1.6875,-1.125 l 0.25,1.03125 c -0.570312,0.179688 -0.988281,0.445313 -1.25,0.796875 -0.257812,0.34375 -0.390625,0.777344 -0.390625,1.296875 0,0.617188 0.148438,1.128907 0.4375,1.53125 0.28125,0.40625 0.667969,0.695313 1.15625,0.859375 0.492188,0.15625 0.996094,0.234375 1.515625,0.234375 0.667969,0 1.253906,-0.09375 1.75,-0.28125 0.5,-0.195312 0.878906,-0.5 1.125,-0.90625 0.25,-0.414062 0.375,-0.863281 0.375,-1.34375 0,-0.582031 -0.164062,-1.078125 -0.5,-1.484375 C 6.425781,73.585938 5.917969,73.308594 5.25,73.160156 Z"
     style="fill:#000000;fill-opacity:1;fill-rule:nonzero;stroke:none" />
  <path
     inkscape:connector-curvature="0"
     id="path314"
     d="m 39.695313,0.375 414.722657,0 0,371.51953 -414.722657,0 z"
     style="fill:none;stroke:#000000;stroke-width:0.75;stroke-linecap:round;stroke-linejoin:round;stroke-miterlimit:10;stroke-opacity:1" />
</svg>
