<?xml version="1.0" encoding="UTF-8" standalone="no"?>
<svg
   xmlns:dc="http://purl.org/dc/elements/1.1/"
   xmlns:cc="http://creativecommons.org/ns#"
   xmlns:rdf="http://www.w3.org/1999/02/22-rdf-syntax-ns#"
   xmlns:svg="http://www.w3.org/2000/svg"
   xmlns="http://www.w3.org/2000/svg"
   xmlns:xlink="http://www.w3.org/1999/xlink"
   xmlns:sodipodi="http://sodipodi.sourceforge.net/DTD/sodipodi-0.dtd"
   xmlns:inkscape="http://www.inkscape.org/namespaces/inkscape"
   width="456.39139pt"
   height="435.6586pt"
   viewBox="0 0 456.39139 435.6586"
   version="1.1"
   id="svg2"
   inkscape:version="0.91 r13725"
   sodipodi:docname="traditional_time.svg">
  <metadata
     id="metadata317">
    <rdf:RDF>
      <cc:Work
         rdf:about="">
        <dc:format>image/svg+xml</dc:format>
        <dc:type
           rdf:resource="http://purl.org/dc/dcmitype/StillImage" />
        <dc:title></dc:title>
      </cc:Work>
    </rdf:RDF>
  </metadata>
  <sodipodi:namedview
     pagecolor="#ffffff"
     bordercolor="#666666"
     borderopacity="1"
     objecttolerance="10"
     gridtolerance="10"
     guidetolerance="10"
     inkscape:pageopacity="0"
     inkscape:pageshadow="2"
     inkscape:window-width="1280"
     inkscape:window-height="738"
     id="namedview315"
     showgrid="false"
     fit-margin-top="0"
     fit-margin-left="0"
     fit-margin-right="0"
     fit-margin-bottom="0"
     inkscape:zoom="0.8541821"
     inkscape:cx="248.98752"
     inkscape:cy="265.94413"
     inkscape:window-x="-8"
     inkscape:window-y="-8"
     inkscape:window-maximized="1"
     inkscape:current-layer="svg2" />
  <defs
     id="defs4">
    <clipPath
       id="clip1">
      <path
         d="m 54.09375,0.375 414.72266,0 0,371.51953 -414.72266,0 z"
         id="path7"
         inkscape:connector-curvature="0" />
    </clipPath>
    <clipPath
       id="clip3">
      <path
         d="m 0.09375,0.375 414.72266,0 0,371.51953 -414.72266,0 z"
         id="path10"
         inkscape:connector-curvature="0" />
    </clipPath>
    <clipPath
       id="clip2">
      <rect
         width="415"
         height="372"
         id="rect13"
         x="0"
         y="0" />
    </clipPath>
    <g
       id="surface149"
       clip-path="url(#clip2)">
      <g
         clip-path="url(#clip3)"
         id="g16"
         style="clip-rule:nonzero">
        <path
           style="fill:#ffffff;fill-opacity:1;fill-rule:nonzero;stroke:none"
           d="m 21.855469,193.96484 51.199219,0 0,130.89063 -51.199219,0 z"
           id="path18"
           inkscape:connector-curvature="0" />
        <path
           style="fill:none;stroke:#000000;stroke-width:2.25;stroke-linecap:butt;stroke-linejoin:round;stroke-miterlimit:10;stroke-opacity:1"
           d="m 21.855469,-276.16406 51.199219,0"
           transform="scale(1,-1)"
           id="path20"
           inkscape:connector-curvature="0" />
        <path
           style="fill:none;stroke:#000000;stroke-width:0.75;stroke-linecap:round;stroke-linejoin:round;stroke-miterlimit:10;stroke-dasharray:2.25, 3.75;stroke-opacity:1"
           d="m 47.453125,-358.13672 0,33.28125"
           transform="scale(1,-1)"
           id="path22"
           inkscape:connector-curvature="0" />
        <path
           style="fill:none;stroke:#000000;stroke-width:0.75;stroke-linecap:round;stroke-linejoin:round;stroke-miterlimit:10;stroke-dasharray:2.25, 3.75;stroke-opacity:1"
           d="m 47.453125,-99.117188 0,-94.847652"
           transform="scale(1,-1)"
           id="path24"
           inkscape:connector-curvature="0" />
        <path
           style="fill:none;stroke:#000000;stroke-width:0.75;stroke-linecap:round;stroke-linejoin:round;stroke-miterlimit:10;stroke-opacity:1"
           d="m 34.65625,-358.13672 25.597656,0"
           transform="scale(1,-1)"
           id="path26"
           inkscape:connector-curvature="0" />
        <path
           style="fill:none;stroke:#000000;stroke-width:0.75;stroke-linecap:round;stroke-linejoin:round;stroke-miterlimit:10;stroke-opacity:1"
           d="m 34.65625,-99.117188 25.597656,0"
           transform="scale(1,-1)"
           id="path28"
           inkscape:connector-curvature="0" />
        <path
           style="fill:none;stroke:#000000;stroke-width:0.75;stroke-linecap:round;stroke-linejoin:round;stroke-miterlimit:10;stroke-opacity:1"
           d="m 21.855469,-193.96484 51.199219,0 0,-130.89063 -51.199219,0 z"
           transform="scale(1,-1)"
           id="path30"
           inkscape:connector-curvature="0" />
        <path
           style="fill:#ffffff;fill-opacity:1;fill-rule:nonzero;stroke:none"
           d="m 85.855469,132.15625 51.199221,0 0,202.23828 -51.199221,0 z"
           id="path32"
           inkscape:connector-curvature="0" />
        <path
           style="fill:none;stroke:#000000;stroke-width:2.25;stroke-linecap:butt;stroke-linejoin:round;stroke-miterlimit:10;stroke-opacity:1"
           d="m 85.855469,-266.875 51.199221,0"
           transform="scale(1,-1)"
           id="path34"
           inkscape:connector-curvature="0" />
        <path
           style="fill:none;stroke:#000000;stroke-width:0.75;stroke-linecap:round;stroke-linejoin:round;stroke-miterlimit:10;stroke-dasharray:2.25, 3.75;stroke-opacity:1"
           d="m 111.45313,-354.06641 0,19.67188"
           transform="scale(1,-1)"
           id="path36"
           inkscape:connector-curvature="0" />
        <path
           style="fill:none;stroke:#000000;stroke-width:0.75;stroke-linecap:round;stroke-linejoin:round;stroke-miterlimit:10;stroke-dasharray:2.25, 3.75;stroke-opacity:1"
           d="m 111.45313,-14.136719 0,-118.019531"
           transform="scale(1,-1)"
           id="path38"
           inkscape:connector-curvature="0" />
        <path
           style="fill:none;stroke:#000000;stroke-width:0.75;stroke-linecap:round;stroke-linejoin:round;stroke-miterlimit:10;stroke-opacity:1"
           d="m 98.65625,-354.06641 25.59766,0"
           transform="scale(1,-1)"
           id="path40"
           inkscape:connector-curvature="0" />
        <path
           style="fill:none;stroke:#000000;stroke-width:0.75;stroke-linecap:round;stroke-linejoin:round;stroke-miterlimit:10;stroke-opacity:1"
           d="m 98.65625,-14.136719 25.59766,0"
           transform="scale(1,-1)"
           id="path42"
           inkscape:connector-curvature="0" />
        <path
           style="fill:none;stroke:#000000;stroke-width:0.75;stroke-linecap:round;stroke-linejoin:round;stroke-miterlimit:10;stroke-opacity:1"
           d="m 85.855469,-132.15625 51.199221,0 0,-202.23828 -51.199221,0 z"
           transform="scale(1,-1)"
           id="path44"
           inkscape:connector-curvature="0" />
        <path
           style="fill:#ffffff;fill-opacity:1;fill-rule:nonzero;stroke:none"
           d="m 149.85547,70.90625 51.19922,0 0,259.16016 -51.19922,0 z"
           id="path46"
           inkscape:connector-curvature="0" />
        <path
           style="fill:none;stroke:#000000;stroke-width:2.25;stroke-linecap:butt;stroke-linejoin:round;stroke-miterlimit:10;stroke-opacity:1"
           d="m 149.85547,-167.19531 51.19922,0"
           transform="scale(1,-1)"
           id="path48"
           inkscape:connector-curvature="0" />
        <path
           style="fill:none;stroke:#000000;stroke-width:0.75;stroke-linecap:round;stroke-linejoin:round;stroke-miterlimit:10;stroke-dasharray:2.25, 3.75;stroke-opacity:1"
           d="m 175.45312,-344.10547 0,14.03906"
           transform="scale(1,-1)"
           id="path50"
           inkscape:connector-curvature="0" />
        <path
           style="fill:none;stroke:#000000;stroke-width:0.75;stroke-linecap:round;stroke-linejoin:round;stroke-miterlimit:10;stroke-dasharray:2.25, 3.75;stroke-opacity:1"
           d="m 175.45312,-14.136719 0,-56.769531"
           transform="scale(1,-1)"
           id="path52"
           inkscape:connector-curvature="0" />
        <path
           style="fill:none;stroke:#000000;stroke-width:0.75;stroke-linecap:round;stroke-linejoin:round;stroke-miterlimit:10;stroke-opacity:1"
           d="m 162.65625,-344.10547 25.59766,0"
           transform="scale(1,-1)"
           id="path54"
           inkscape:connector-curvature="0" />
        <path
           style="fill:none;stroke:#000000;stroke-width:0.75;stroke-linecap:round;stroke-linejoin:round;stroke-miterlimit:10;stroke-opacity:1"
           d="m 162.65625,-14.136719 25.59766,0"
           transform="scale(1,-1)"
           id="path56"
           inkscape:connector-curvature="0" />
        <path
           style="fill:none;stroke:#000000;stroke-width:0.75;stroke-linecap:round;stroke-linejoin:round;stroke-miterlimit:10;stroke-opacity:1"
           d="m 149.85547,-70.90625 51.19922,0 0,-259.16016 -51.19922,0 z"
           transform="scale(1,-1)"
           id="path58"
           inkscape:connector-curvature="0" />
        <path
           style="fill:#ffffff;fill-opacity:1;fill-rule:nonzero;stroke:none"
           d="m 213.85547,111.21484 51.19922,0 0,184.5 -51.19922,0 z"
           id="path60"
           inkscape:connector-curvature="0" />
        <path
           style="fill:none;stroke:#000000;stroke-width:2.25;stroke-linecap:butt;stroke-linejoin:round;stroke-miterlimit:10;stroke-opacity:1"
           d="m 213.85547,-202.55469 51.19922,0"
           transform="scale(1,-1)"
           id="path62"
           inkscape:connector-curvature="0" />
        <path
           style="fill:none;stroke:#000000;stroke-width:0.75;stroke-linecap:round;stroke-linejoin:round;stroke-miterlimit:10;stroke-dasharray:2.25, 3.75;stroke-opacity:1"
           d="m 239.45312,-342.95703 0,47.24219"
           transform="scale(1,-1)"
           id="path64"
           inkscape:connector-curvature="0" />
        <path
           style="fill:none;stroke:#000000;stroke-width:0.75;stroke-linecap:round;stroke-linejoin:round;stroke-miterlimit:10;stroke-dasharray:2.25, 3.75;stroke-opacity:1"
           d="m 239.45312,-14.136719 0,-97.078121"
           transform="scale(1,-1)"
           id="path66"
           inkscape:connector-curvature="0" />
        <path
           style="fill:none;stroke:#000000;stroke-width:0.75;stroke-linecap:round;stroke-linejoin:round;stroke-miterlimit:10;stroke-opacity:1"
           d="m 226.65625,-342.95703 25.59766,0"
           transform="scale(1,-1)"
           id="path68"
           inkscape:connector-curvature="0" />
        <path
           style="fill:none;stroke:#000000;stroke-width:0.75;stroke-linecap:round;stroke-linejoin:round;stroke-miterlimit:10;stroke-opacity:1"
           d="m 226.65625,-14.136719 25.59766,0"
           transform="scale(1,-1)"
           id="path70"
           inkscape:connector-curvature="0" />
        <path
           style="fill:none;stroke:#000000;stroke-width:0.75;stroke-linecap:round;stroke-linejoin:round;stroke-miterlimit:10;stroke-opacity:1"
           d="m 213.85547,-111.21484 51.19922,0 0,-184.5 -51.19922,0 z"
           transform="scale(1,-1)"
           id="path72"
           inkscape:connector-curvature="0" />
        <path
           style="fill:#ffffff;fill-opacity:1;fill-rule:nonzero;stroke:none"
           d="m 277.85547,159.36719 51.19922,0 0,176.14843 -51.19922,0 z"
           id="path74"
           inkscape:connector-curvature="0" />
        <path
           style="fill:none;stroke:#000000;stroke-width:2.25;stroke-linecap:butt;stroke-linejoin:round;stroke-miterlimit:10;stroke-opacity:1"
           d="m 277.85547,-305.28516 51.19922,0"
           transform="scale(1,-1)"
           id="path76"
           inkscape:connector-curvature="0" />
        <path
           style="fill:none;stroke:#000000;stroke-width:0.75;stroke-linecap:round;stroke-linejoin:round;stroke-miterlimit:10;stroke-dasharray:2.25, 3.75;stroke-opacity:1"
           d="m 303.45312,-351.46484 0,15.94922"
           transform="scale(1,-1)"
           id="path78"
           inkscape:connector-curvature="0" />
        <path
           style="fill:none;stroke:#000000;stroke-width:0.75;stroke-linecap:round;stroke-linejoin:round;stroke-miterlimit:10;stroke-dasharray:2.25, 3.75;stroke-opacity:1"
           d="m 303.45312,-14.136719 0,-145.230471"
           transform="scale(1,-1)"
           id="path80"
           inkscape:connector-curvature="0" />
        <path
           style="fill:none;stroke:#000000;stroke-width:0.75;stroke-linecap:round;stroke-linejoin:round;stroke-miterlimit:10;stroke-opacity:1"
           d="m 290.65625,-351.46484 25.59766,0"
           transform="scale(1,-1)"
           id="path82"
           inkscape:connector-curvature="0" />
        <path
           style="fill:none;stroke:#000000;stroke-width:0.75;stroke-linecap:round;stroke-linejoin:round;stroke-miterlimit:10;stroke-opacity:1"
           d="m 290.65625,-14.136719 25.59766,0"
           transform="scale(1,-1)"
           id="path84"
           inkscape:connector-curvature="0" />
        <path
           style="fill:none;stroke:#000000;stroke-width:0.75;stroke-linecap:round;stroke-linejoin:round;stroke-miterlimit:10;stroke-opacity:1"
           d="m 277.85547,-159.36719 51.19922,0 0,-176.14843 -51.19922,0 z"
           transform="scale(1,-1)"
           id="path86"
           inkscape:connector-curvature="0" />
        <path
           style="fill:#ffffff;fill-opacity:1;fill-rule:nonzero;stroke:none"
           d="m 341.85547,165.91406 51.19922,0 0,168.48047 -51.19922,0 z"
           id="path88"
           inkscape:connector-curvature="0" />
        <path
           style="fill:none;stroke:#000000;stroke-width:2.25;stroke-linecap:butt;stroke-linejoin:round;stroke-miterlimit:10;stroke-opacity:1"
           d="m 341.85547,-299.45703 51.19922,0"
           transform="scale(1,-1)"
           id="path90"
           inkscape:connector-curvature="0" />
        <path
           style="fill:none;stroke:#000000;stroke-width:0.75;stroke-linecap:round;stroke-linejoin:round;stroke-miterlimit:10;stroke-dasharray:2.25, 3.75;stroke-opacity:1"
           d="m 367.45312,-354.06641 0,19.67188"
           transform="scale(1,-1)"
           id="path92"
           inkscape:connector-curvature="0" />
        <path
           style="fill:none;stroke:#000000;stroke-width:0.75;stroke-linecap:round;stroke-linejoin:round;stroke-miterlimit:10;stroke-dasharray:2.25, 3.75;stroke-opacity:1"
           d="m 367.45312,-14.136719 0,-151.777341"
           transform="scale(1,-1)"
           id="path94"
           inkscape:connector-curvature="0" />
        <path
           style="fill:none;stroke:#000000;stroke-width:0.75;stroke-linecap:round;stroke-linejoin:round;stroke-miterlimit:10;stroke-opacity:1"
           d="m 354.65625,-354.06641 25.59766,0"
           transform="scale(1,-1)"
           id="path96"
           inkscape:connector-curvature="0" />
        <path
           style="fill:none;stroke:#000000;stroke-width:0.75;stroke-linecap:round;stroke-linejoin:round;stroke-miterlimit:10;stroke-opacity:1"
           d="m 354.65625,-14.136719 25.59766,0"
           transform="scale(1,-1)"
           id="path98"
           inkscape:connector-curvature="0" />
        <path
           style="fill:none;stroke:#000000;stroke-width:0.75;stroke-linecap:round;stroke-linejoin:round;stroke-miterlimit:10;stroke-opacity:1"
           d="m 341.85547,-165.91406 51.19922,0 0,-168.48047 -51.19922,0 z"
           transform="scale(1,-1)"
           id="path100"
           inkscape:connector-curvature="0" />
      </g>
    </g>
  </defs>
  <g
     style="clip-rule:nonzero"
     id="g103"
     clip-path="url(#clip1)"
     transform="translate(-12.800001,0)">
    <use
       height="100%"
       width="100%"
       y="0"
       x="0"
       id="use105"
       transform="translate(54,0)"
       xlink:href="#surface149" />
  </g>
  <path
     inkscape:connector-curvature="0"
     id="path107"
     d="m 88.653129,371.89453 319.999991,0"
     style="fill:none;stroke:#000000;stroke-width:0.75;stroke-linecap:round;stroke-linejoin:round;stroke-miterlimit:10;stroke-opacity:1" />
  <path
     inkscape:connector-curvature="0"
     id="path109"
     d="m 88.653129,371.89453 0,7.20313"
     style="fill:none;stroke:#000000;stroke-width:0.75;stroke-linecap:round;stroke-linejoin:round;stroke-miterlimit:10;stroke-opacity:1" />
  <path
     inkscape:connector-curvature="0"
     id="path111"
     d="m 152.65312,371.89453 0,7.20313"
     style="fill:none;stroke:#000000;stroke-width:0.75;stroke-linecap:round;stroke-linejoin:round;stroke-miterlimit:10;stroke-opacity:1" />
  <path
     inkscape:connector-curvature="0"
     id="path113"
     d="m 216.65312,371.89453 0,7.20313"
     style="fill:none;stroke:#000000;stroke-width:0.75;stroke-linecap:round;stroke-linejoin:round;stroke-miterlimit:10;stroke-opacity:1" />
  <path
     inkscape:connector-curvature="0"
     id="path115"
     d="m 280.65312,371.89453 0,7.20313"
     style="fill:none;stroke:#000000;stroke-width:0.75;stroke-linecap:round;stroke-linejoin:round;stroke-miterlimit:10;stroke-opacity:1" />
  <path
     inkscape:connector-curvature="0"
     id="path117"
     d="m 344.65312,371.89453 0,7.20313"
     style="fill:none;stroke:#000000;stroke-width:0.75;stroke-linecap:round;stroke-linejoin:round;stroke-miterlimit:10;stroke-opacity:1" />
  <path
     inkscape:connector-curvature="0"
     id="path119"
     d="m 408.65312,371.89453 0,7.20313"
     style="fill:none;stroke:#000000;stroke-width:0.75;stroke-linecap:round;stroke-linejoin:round;stroke-miterlimit:10;stroke-opacity:1" />
  <path
     inkscape:connector-curvature="0"
     id="path121"
     d="m 90.074999,393.45547 -0.0781,-0.98438 c 0.38671,-0.0391 0.71093,-0.14453 0.96875,-0.3125 0.25,-0.17578 0.45703,-0.4414 0.60937,-0.79687 0.15625,-0.35156 0.23438,-0.75391 0.23438,-1.20313 0,-0.40234 -0.0547,-0.75781 -0.17188,-1.0625 -0.12109,-0.30078 -0.28516,-0.52343 -0.48437,-0.67187 -0.20704,-0.15235 -0.4375,-0.23438 -0.6875,-0.23438 -0.2461,0 -0.46094,0.0742 -0.64063,0.21875 -0.18359,0.14844 -0.34375,0.38672 -0.46875,0.71875 -0.082,0.21094 -0.20703,0.67969 -0.375,1.40625 -0.17578,0.71875 -0.34375,1.22657 -0.5,1.51563 -0.19531,0.375 -0.44141,0.66015 -0.73437,0.84375 -0.28907,0.17969 -0.617192,0.26562 -0.98438,0.26562 -0.394531,0 -0.765625,-0.10937 -1.109375,-0.32812 -0.339844,-0.22656 -0.601562,-0.55469 -0.78125,-0.98438 -0.183594,-0.43359 -0.28125,-0.92187 -0.28125,-1.45312 0,-0.58203 0.101563,-1.09766 0.296875,-1.54688 0.1875,-0.44531 0.464844,-0.78906 0.828125,-1.03125 0.367188,-0.23828 0.777344,-0.36718 1.234375,-0.39062 l 0.07813,1 c -0.496094,0.0547 -0.875,0.23828 -1.125,0.54687 -0.257812,0.3125 -0.390625,0.77344 -0.390625,1.375 0,0.625 0.121094,1.08594 0.359375,1.375 0.230469,0.29297 0.507813,0.4375 0.828125,0.4375 0.28125,0 0.519525,-0.10156 0.703125,-0.3125 0.17969,-0.19531 0.36719,-0.71875 0.5625,-1.5625 0.1875,-0.85156 0.35546,-1.4375 0.5,-1.75 0.21094,-0.45703 0.47657,-0.79687 0.79687,-1.01562 0.32422,-0.21485 0.69922,-0.32813 1.125,-0.32813 0.41797,0 0.81642,0.1211 1.1875,0.35938 0.36719,0.24219 0.65234,0.58984 0.85938,1.04687 0.20704,0.44922 0.3125,0.95703 0.3125,1.51563 0,0.71094 -0.10546,1.30469 -0.3125,1.78125 -0.20704,0.48047 -0.51954,0.86328 -0.9375,1.14062 -0.41406,0.27344 -0.89063,0.41407 -1.42188,0.42188 z"
     style="fill:#000000;fill-opacity:1;fill-rule:nonzero;stroke:none" />
  <path
     inkscape:connector-curvature="0"
     id="path123"
     d="m 92.606249,383.76016 -6.9375,0 0,2.59375 -0.9375,0 0,-6.23438 0.9375,0 0,2.60938 6.9375,0 z"
     style="fill:#000000;fill-opacity:1;fill-rule:nonzero;stroke:none" />
  <path
     inkscape:connector-curvature="0"
     id="path125"
     d="m 156.60625,396.19375 -7.875,0 0,-1.57813 5.57812,-1.85937 c 0.52344,-0.16406 0.91016,-0.28906 1.15625,-0.375 -0.27734,-0.0898 -0.69531,-0.23438 -1.25,-0.42188 l -5.48437,-1.875 0,-1.40625 7.875,0 0,1 -6.59375,0 6.59375,2.29688 0,0.9375 -6.70313,2.26562 6.70313,0 z"
     style="fill:#000000;fill-opacity:1;fill-rule:nonzero;stroke:none" />
  <path
     inkscape:connector-curvature="0"
     id="path127"
     d="m 153.84062,381.37344 0.26563,-1.04688 c 0.85547,0.21875 1.51172,0.61719 1.96875,1.1875 0.44922,0.5625 0.67187,1.25781 0.67187,2.07813 0,0.85547 -0.17187,1.55078 -0.51562,2.07812 -0.35156,0.53125 -0.85938,0.94141 -1.51563,1.21875 -0.65234,0.27344 -1.35937,0.40625 -2.10937,0.40625 -0.80859,0 -1.52344,-0.15625 -2.14063,-0.46875 -0.61328,-0.30859 -1.07812,-0.7539 -1.39062,-1.32812 -0.32031,-0.58203 -0.48438,-1.22266 -0.48438,-1.92188 0,-0.78906 0.20704,-1.45312 0.60938,-1.98437 0.39844,-0.53907 0.96094,-0.91407 1.6875,-1.125 l 0.25,1.03125 c -0.57031,0.17968 -0.98828,0.44531 -1.25,0.79687 -0.25781,0.34375 -0.39063,0.77735 -0.39063,1.29688 0,0.61718 0.14844,1.1289 0.4375,1.53125 0.28125,0.40625 0.66797,0.69531 1.15625,0.85937 0.49219,0.15625 0.9961,0.23438 1.51563,0.23438 0.66797,0 1.25391,-0.0937 1.75,-0.28125 0.5,-0.19532 0.87891,-0.5 1.125,-0.90625 0.25,-0.41407 0.375,-0.86328 0.375,-1.34375 0,-0.58203 -0.16406,-1.07813 -0.5,-1.48438 -0.33984,-0.40234 -0.84766,-0.67969 -1.51563,-0.82812 z"
     style="fill:#000000;fill-opacity:1;fill-rule:nonzero;stroke:none" />
  <path
     inkscape:connector-curvature="0"
     id="path129"
     d="m 217.84062,398.47891 0.26563,-1.04688 c 0.85547,0.21875 1.51172,0.61719 1.96875,1.1875 0.44922,0.5625 0.67187,1.25781 0.67187,2.07813 0,0.85546 -0.17187,1.55078 -0.51562,2.07812 -0.35156,0.53125 -0.85938,0.94141 -1.51563,1.21875 -0.65234,0.27344 -1.35937,0.40625 -2.10937,0.40625 -0.80859,0 -1.52344,-0.15625 -2.14063,-0.46875 -0.61328,-0.30859 -1.07812,-0.75391 -1.39062,-1.32812 -0.32031,-0.58204 -0.48438,-1.22266 -0.48438,-1.92188 0,-0.78906 0.20704,-1.45312 0.60938,-1.98437 0.39844,-0.53907 0.96094,-0.91407 1.6875,-1.125 l 0.25,1.03125 c -0.57031,0.17968 -0.98828,0.44531 -1.25,0.79687 -0.25781,0.34375 -0.39063,0.77734 -0.39063,1.29688 0,0.61718 0.14844,1.1289 0.4375,1.53125 0.28125,0.40625 0.66797,0.69531 1.15625,0.85937 0.49219,0.15625 0.9961,0.23438 1.51563,0.23438 0.66797,0 1.25391,-0.0937 1.75,-0.28125 0.5,-0.19532 0.87891,-0.5 1.125,-0.90625 0.25,-0.41407 0.375,-0.86329 0.375,-1.34375 0,-0.58204 -0.16406,-1.07813 -0.5,-1.48438 -0.33984,-0.40234 -0.84766,-0.67969 -1.51563,-0.82812 z"
     style="fill:#000000;fill-opacity:1;fill-rule:nonzero;stroke:none" />
  <path
     inkscape:connector-curvature="0"
     id="path131"
     d="m 220.60625,396.18984 -7.875,0 0,-1.57812 5.57812,-1.85938 c 0.52344,-0.16406 0.91016,-0.28906 1.15625,-0.375 -0.27734,-0.0898 -0.69531,-0.23437 -1.25,-0.42187 l -5.48437,-1.875 0,-1.40625 7.875,0 0,1 -6.59375,0 6.59375,2.29687 0,0.9375 -6.70313,2.26563 6.70313,0 z"
     style="fill:#000000;fill-opacity:1;fill-rule:nonzero;stroke:none" />
  <path
     inkscape:connector-curvature="0"
     id="path133"
     d="m 217.84062,381.37344 0.26563,-1.04688 c 0.85547,0.21875 1.51172,0.61719 1.96875,1.1875 0.44922,0.5625 0.67187,1.25781 0.67187,2.07813 0,0.85547 -0.17187,1.55078 -0.51562,2.07812 -0.35156,0.53125 -0.85938,0.94141 -1.51563,1.21875 -0.65234,0.27344 -1.35937,0.40625 -2.10937,0.40625 -0.80859,0 -1.52344,-0.15625 -2.14063,-0.46875 -0.61328,-0.30859 -1.07812,-0.7539 -1.39062,-1.32812 -0.32031,-0.58203 -0.48438,-1.22266 -0.48438,-1.92188 0,-0.78906 0.20704,-1.45312 0.60938,-1.98437 0.39844,-0.53907 0.96094,-0.91407 1.6875,-1.125 l 0.25,1.03125 c -0.57031,0.17968 -0.98828,0.44531 -1.25,0.79687 -0.25781,0.34375 -0.39063,0.77735 -0.39063,1.29688 0,0.61718 0.14844,1.1289 0.4375,1.53125 0.28125,0.40625 0.66797,0.69531 1.15625,0.85937 0.49219,0.15625 0.9961,0.23438 1.51563,0.23438 0.66797,0 1.25391,-0.0937 1.75,-0.28125 0.5,-0.19532 0.87891,-0.5 1.125,-0.90625 0.25,-0.41407 0.375,-0.86328 0.375,-1.34375 0,-0.58203 -0.16406,-1.07813 -0.5,-1.48438 -0.33984,-0.40234 -0.84766,-0.67969 -1.51563,-0.82812 z"
     style="fill:#000000;fill-opacity:1;fill-rule:nonzero;stroke:none" />
  <path
     inkscape:connector-curvature="0"
     id="path135"
     d="m 284.60625,392.91641 -6.9375,0 0,2.59375 -0.9375,0 0,-6.23438 0.9375,0 0,2.60938 6.9375,0 z"
     style="fill:#000000;fill-opacity:1;fill-rule:nonzero;stroke:none" />
  <path
     inkscape:connector-curvature="0"
     id="path137"
     d="m 284.60625,388.24062 -7.875,0 0,-1.57812 5.57812,-1.85938 c 0.52344,-0.16406 0.91016,-0.28906 1.15625,-0.375 -0.27734,-0.0898 -0.69531,-0.23437 -1.25,-0.42187 l -5.48437,-1.875 0,-1.40625 7.875,0 0,1 -6.59375,0 6.59375,2.29687 0,0.9375 -6.70313,2.26563 6.70313,0 z"
     style="fill:#000000;fill-opacity:1;fill-rule:nonzero;stroke:none" />
  <path
     inkscape:connector-curvature="0"
     id="path139"
     d="m 348.60625,426.95547 -6.9375,0 0,2.59375 -0.9375,0 0,-6.23438 0.9375,0 0,2.60938 6.9375,0 z"
     style="fill:#000000;fill-opacity:1;fill-rule:nonzero;stroke:none" />
  <path
     inkscape:connector-curvature="0"
     id="path141"
     d="m 348.60625,423.69766 -5.70313,0 0,-0.85938 0.85938,0 c -0.40234,-0.22656 -0.67188,-0.4375 -0.79688,-0.625 -0.12109,-0.18359 -0.1875,-0.39062 -0.1875,-0.60937 0,-0.33204 0.10547,-0.66407 0.3125,-1 l 0.89063,0.32812 c -0.13281,0.24219 -0.20313,0.48047 -0.20313,0.71875 0,0.21094 0.0664,0.39844 0.1875,0.5625 0.125,0.16797 0.30469,0.28906 0.53125,0.35938 0.34375,0.10546 0.72266,0.15625 1.125,0.15625 l 2.98438,0 z"
     style="fill:#000000;fill-opacity:1;fill-rule:nonzero;stroke:none" />
  <path
     inkscape:connector-curvature="0"
     id="path143"
     d="m 347.90312,416.40859 c 0.30469,0.36719 0.51954,0.71485 0.64063,1.04688 0.12109,0.32422 0.1875,0.67969 0.1875,1.0625 0,0.625 -0.14844,1.11328 -0.45313,1.45312 -0.30859,0.33594 -0.70312,0.5 -1.17187,0.5 -0.27734,0 -0.53516,-0.0625 -0.76563,-0.1875 -0.22656,-0.13281 -0.41015,-0.30078 -0.54687,-0.5 -0.14453,-0.20703 -0.25391,-0.4414 -0.32813,-0.70312 -0.0508,-0.1836 -0.0976,-0.47266 -0.14062,-0.85938 -0.0898,-0.77734 -0.20703,-1.35156 -0.34375,-1.71875 -0.12109,-0.008 -0.20703,-0.0156 -0.25,-0.0156 -0.39453,0 -0.67188,0.0976 -0.82813,0.28125 -0.21484,0.24219 -0.32812,0.60547 -0.32812,1.09375 0,0.46094 0.082,0.80078 0.23437,1.01562 0.15625,0.21094 0.44141,0.36719 0.84375,0.46875 l -0.125,0.95313 c -0.40234,-0.082 -0.73437,-0.22266 -0.98437,-0.42188 -0.24609,-0.19531 -0.4375,-0.48437 -0.5625,-0.85937 -0.13281,-0.3711 -0.20313,-0.80469 -0.20313,-1.29688 0,-0.48828 0.0586,-0.88281 0.17188,-1.1875 0.11719,-0.30078 0.26172,-0.51953 0.4375,-0.65625 0.16797,-0.14453 0.38281,-0.25 0.64062,-0.3125 0.16797,-0.0273 0.47266,-0.0469 0.90625,-0.0469 l 1.28125,0 c 0.89844,0 1.46485,-0.0195 1.70313,-0.0625 0.24219,-0.0391 0.47266,-0.125 0.6875,-0.25 l 0,1.01562 c -0.19531,0.10547 -0.42969,0.16797 -0.70313,0.1875 z m -2.15625,0.0937 c 0.14844,0.34375 0.26954,0.8711 0.35938,1.57813 0.0625,0.39844 0.13281,0.67969 0.20312,0.84375 0.0625,0.15625 0.16797,0.28515 0.3125,0.375 0.13672,0.0937 0.28907,0.14062 0.45313,0.14062 0.26172,0 0.48047,-0.0976 0.65625,-0.29687 0.16797,-0.19531 0.25,-0.48438 0.25,-0.85938 0,-0.37109 -0.082,-0.70312 -0.25,-0.98437 -0.16406,-0.28906 -0.39063,-0.50781 -0.67188,-0.65625 -0.21484,-0.0899 -0.53906,-0.14063 -0.96875,-0.14063 z"
     style="fill:#000000;fill-opacity:1;fill-rule:nonzero;stroke:none" />
  <path
     inkscape:connector-curvature="0"
     id="path145"
     d="m 348.60625,410.32266 -0.71875,0 c 0.5625,0.35546 0.84375,0.88671 0.84375,1.59375 0,0.44921 -0.125,0.86718 -0.375,1.25 -0.24609,0.38671 -0.59766,0.68359 -1.04688,0.89062 -0.44531,0.21094 -0.96093,0.3125 -1.54687,0.3125 -0.57031,0 -1.08594,-0.0937 -1.54688,-0.28125 -0.46484,-0.19531 -0.82031,-0.48437 -1.0625,-0.85937 -0.24609,-0.3711 -0.375,-0.79688 -0.375,-1.26563 0,-0.33984 0.0742,-0.64844 0.21875,-0.92187 0.14844,-0.26954 0.33594,-0.48829 0.5625,-0.65625 l -2.82812,0 0,-0.96875 7.875,0 z m -2.84375,3.04687 c 0.73047,0 1.27734,-0.14844 1.64062,-0.45312 0.35547,-0.3086 0.53125,-0.67579 0.53125,-1.09375 0,-0.42579 -0.17187,-0.78516 -0.51562,-1.07813 -0.33984,-0.28906 -0.86719,-0.4375 -1.57813,-0.4375 -0.77734,0 -1.35156,0.15234 -1.71875,0.45313 -0.36328,0.29296 -0.54687,0.66406 -0.54687,1.10937 0,0.42969 0.17969,0.78906 0.53125,1.07813 0.34375,0.28125 0.89844,0.42187 1.65625,0.42187 z"
     style="fill:#000000;fill-opacity:1;fill-rule:nonzero;stroke:none" />
  <path
     inkscape:connector-curvature="0"
     id="path147"
     d="m 341.84062,407.89687 -1.10937,0 0,-0.96875 1.10937,0 z m 6.76563,0 -5.70313,0 0,-0.96875 5.70313,0 z"
     style="fill:#000000;fill-opacity:1;fill-rule:nonzero;stroke:none" />
  <path
     inkscape:connector-curvature="0"
     id="path149"
     d="m 347.74687,403.34609 0.84375,-0.125 c 0.0586,0.27344 0.0937,0.51172 0.0937,0.71875 0,0.35547 -0.0586,0.63282 -0.17187,0.82813 -0.11328,0.1875 -0.25781,0.32422 -0.4375,0.40625 -0.17578,0.0742 -0.55469,0.10937 -1.14063,0.10937 l -3.28125,0 0,0.71875 -0.75,0 0,-0.71875 -1.40625,0 -0.59375,-0.95312 2,0 0,-0.98438 0.75,0 0,0.98438 3.34375,0 c 0.27344,0 0.44922,-0.0156 0.53125,-0.0469 0.0742,-0.0391 0.13672,-0.0976 0.1875,-0.17187 0.043,-0.082 0.0625,-0.19141 0.0625,-0.32813 0,-0.11328 -0.008,-0.25781 -0.0312,-0.4375 z"
     style="fill:#000000;fill-opacity:1;fill-rule:nonzero;stroke:none" />
  <path
     inkscape:connector-curvature="0"
     id="path151"
     d="m 341.84062,402.39687 -1.10937,0 0,-0.96875 1.10937,0 z m 6.76563,0 -5.70313,0 0,-0.96875 5.70313,0 z"
     style="fill:#000000;fill-opacity:1;fill-rule:nonzero;stroke:none" />
  <path
     inkscape:connector-curvature="0"
     id="path153"
     d="m 345.74687,400.33047 c -1.05078,0 -1.83203,-0.29688 -2.34375,-0.89063 -0.41406,-0.48828 -0.625,-1.08593 -0.625,-1.79687 0,-0.77735 0.25782,-1.41406 0.76563,-1.90625 0.51172,-0.4961 1.22266,-0.75 2.125,-0.75 0.74219,0 1.32422,0.11328 1.75,0.32812 0.41797,0.21875 0.74219,0.54297 0.96875,0.96875 0.22656,0.41797 0.34375,0.8711 0.34375,1.35938 0,0.80469 -0.25391,1.45703 -0.76563,1.95312 -0.50781,0.49219 -1.25,0.73438 -2.21875,0.73438 z m 0,-1 c 0.74219,0 1.29297,-0.15625 1.65625,-0.46875 0.35547,-0.32031 0.53125,-0.72656 0.53125,-1.21875 0,-0.47656 -0.17968,-0.875 -0.54687,-1.1875 -0.36328,-0.32031 -0.92188,-0.48438 -1.67188,-0.48438 -0.69531,0 -1.22656,0.16407 -1.59375,0.48438 -0.36328,0.32422 -0.54687,0.72265 -0.54687,1.1875 0,0.49219 0.18359,0.89844 0.54687,1.21875 0.35547,0.3125 0.89844,0.46875 1.625,0.46875 z"
     style="fill:#000000;fill-opacity:1;fill-rule:nonzero;stroke:none" />
  <path
     inkscape:connector-curvature="0"
     id="path155"
     d="m 348.60625,393.85391 -5.70313,0 0,-0.875 0.8125,0 c -0.62109,-0.41407 -0.9375,-1.01954 -0.9375,-1.8125 0,-0.33985 0.0664,-0.66016 0.1875,-0.95313 0.11719,-0.28906 0.27735,-0.50391 0.48438,-0.64062 0.19922,-0.14454 0.43359,-0.25 0.70312,-0.3125 0.1875,-0.0274 0.50782,-0.0469 0.95313,-0.0469 l 3.5,0 0,0.96875 -3.46875,0 c -0.39453,0 -0.6875,0.0391 -0.875,0.10938 -0.19531,0.0742 -0.35156,0.21093 -0.46875,0.40625 -0.12109,0.1875 -0.1875,0.41406 -0.1875,0.67187 0,0.40625 0.13281,0.76172 0.39062,1.0625 0.26172,0.30469 0.76172,0.45313 1.5,0.45313 l 3.10938,0 z"
     style="fill:#000000;fill-opacity:1;fill-rule:nonzero;stroke:none" />
  <path
     inkscape:connector-curvature="0"
     id="path157"
     d="m 347.90312,384.00234 c 0.30469,0.36719 0.51954,0.71485 0.64063,1.04688 0.12109,0.32422 0.1875,0.67969 0.1875,1.0625 0,0.625 -0.14844,1.11328 -0.45313,1.45312 -0.30859,0.33594 -0.70312,0.5 -1.17187,0.5 -0.27734,0 -0.53516,-0.0625 -0.76563,-0.1875 -0.22656,-0.13281 -0.41015,-0.30078 -0.54687,-0.5 -0.14453,-0.20703 -0.25391,-0.4414 -0.32813,-0.70312 -0.0508,-0.1836 -0.0976,-0.47266 -0.14062,-0.85938 -0.0898,-0.77734 -0.20703,-1.35156 -0.34375,-1.71875 -0.12109,-0.008 -0.20703,-0.0156 -0.25,-0.0156 -0.39453,0 -0.67188,0.0976 -0.82813,0.28125 -0.21484,0.24219 -0.32812,0.60547 -0.32812,1.09375 0,0.46094 0.082,0.80078 0.23437,1.01562 0.15625,0.21094 0.44141,0.36719 0.84375,0.46875 l -0.125,0.95313 c -0.40234,-0.082 -0.73437,-0.22266 -0.98437,-0.42188 -0.24609,-0.19531 -0.4375,-0.48437 -0.5625,-0.85937 -0.13281,-0.3711 -0.20313,-0.80469 -0.20313,-1.29688 0,-0.48828 0.0586,-0.88281 0.17188,-1.1875 0.11719,-0.30078 0.26172,-0.51953 0.4375,-0.65625 0.16797,-0.14453 0.38281,-0.25 0.64062,-0.3125 0.16797,-0.0273 0.47266,-0.0469 0.90625,-0.0469 l 1.28125,0 c 0.89844,0 1.46485,-0.0195 1.70313,-0.0625 0.24219,-0.0391 0.47266,-0.125 0.6875,-0.25 l 0,1.01562 c -0.19531,0.10547 -0.42969,0.16797 -0.70313,0.1875 z m -2.15625,0.0937 c 0.14844,0.34375 0.26954,0.8711 0.35938,1.57813 0.0625,0.39844 0.13281,0.67969 0.20312,0.84375 0.0625,0.15625 0.16797,0.28515 0.3125,0.375 0.13672,0.0937 0.28907,0.14062 0.45313,0.14062 0.26172,0 0.48047,-0.0976 0.65625,-0.29687 0.16797,-0.19531 0.25,-0.48438 0.25,-0.85938 0,-0.37109 -0.082,-0.70312 -0.25,-0.98437 -0.16406,-0.28906 -0.39063,-0.50781 -0.67188,-0.65625 -0.21484,-0.0899 -0.53906,-0.14063 -0.96875,-0.14063 z"
     style="fill:#000000;fill-opacity:1;fill-rule:nonzero;stroke:none" />
  <path
     inkscape:connector-curvature="0"
     id="path159"
     d="m 340.73125,380.66641 7.875,0 0,0.96875 -7.875,0 z"
     style="fill:#000000;fill-opacity:1;fill-rule:nonzero;stroke:none" />
  <path
     inkscape:connector-curvature="0"
     id="path161"
     d="m 412.60625,433.06484 -6.9375,0 0,2.59375 -0.9375,0 0,-6.23437 0.9375,0 0,2.60937 6.9375,0 z"
     style="fill:#000000;fill-opacity:1;fill-rule:nonzero;stroke:none" />
  <path
     inkscape:connector-curvature="0"
     id="path163"
     d="m 412.60625,429.80703 -5.70313,0 0,-0.85937 0.85938,0 c -0.40234,-0.22657 -0.67188,-0.4375 -0.79688,-0.625 -0.12109,-0.1836 -0.1875,-0.39063 -0.1875,-0.60938 0,-0.33203 0.10547,-0.66406 0.3125,-1 l 0.89063,0.32813 c -0.13281,0.24218 -0.20313,0.48046 -0.20313,0.71875 0,0.21093 0.0664,0.39843 0.1875,0.5625 0.125,0.16796 0.30469,0.28906 0.53125,0.35937 0.34375,0.10547 0.72266,0.15625 1.125,0.15625 l 2.98438,0 z"
     style="fill:#000000;fill-opacity:1;fill-rule:nonzero;stroke:none" />
  <path
     inkscape:connector-curvature="0"
     id="path165"
     d="m 411.90312,422.51797 c 0.30469,0.36719 0.51954,0.71484 0.64063,1.04687 0.12109,0.32422 0.1875,0.67969 0.1875,1.0625 0,0.625 -0.14844,1.11328 -0.45313,1.45313 -0.30859,0.33594 -0.70312,0.5 -1.17187,0.5 -0.27734,0 -0.53516,-0.0625 -0.76563,-0.1875 -0.22656,-0.13281 -0.41015,-0.30078 -0.54687,-0.5 -0.14453,-0.20703 -0.25391,-0.44141 -0.32813,-0.70313 -0.0508,-0.18359 -0.0976,-0.47265 -0.14062,-0.85937 -0.0898,-0.77735 -0.20703,-1.35156 -0.34375,-1.71875 -0.12109,-0.008 -0.20703,-0.0156 -0.25,-0.0156 -0.39453,0 -0.67188,0.0977 -0.82813,0.28125 -0.21484,0.24219 -0.32812,0.60547 -0.32812,1.09375 0,0.46094 0.082,0.80078 0.23437,1.01563 0.15625,0.21094 0.44141,0.36719 0.84375,0.46875 l -0.125,0.95312 c -0.40234,-0.082 -0.73437,-0.22265 -0.98437,-0.42187 -0.24609,-0.19531 -0.4375,-0.48438 -0.5625,-0.85938 -0.13281,-0.37109 -0.20313,-0.80468 -0.20313,-1.29687 0,-0.48828 0.0586,-0.88281 0.17188,-1.1875 0.11719,-0.30078 0.26172,-0.51953 0.4375,-0.65625 0.16797,-0.14453 0.38281,-0.25 0.64062,-0.3125 0.16797,-0.0274 0.47266,-0.0469 0.90625,-0.0469 l 1.28125,0 c 0.89844,0 1.46485,-0.0195 1.70313,-0.0625 0.24219,-0.0391 0.47266,-0.125 0.6875,-0.25 l 0,1.01563 c -0.19531,0.10547 -0.42969,0.16797 -0.70313,0.1875 z m -2.15625,0.0937 c 0.14844,0.34375 0.26954,0.87109 0.35938,1.57812 0.0625,0.39844 0.13281,0.67969 0.20312,0.84375 0.0625,0.15625 0.16797,0.28516 0.3125,0.375 0.13672,0.0937 0.28907,0.14063 0.45313,0.14063 0.26172,0 0.48047,-0.0977 0.65625,-0.29688 0.16797,-0.19531 0.25,-0.48437 0.25,-0.85937 0,-0.3711 -0.082,-0.70313 -0.25,-0.98438 -0.16406,-0.28906 -0.39063,-0.50781 -0.67188,-0.65625 -0.21484,-0.0898 -0.53906,-0.14062 -0.96875,-0.14062 z"
     style="fill:#000000;fill-opacity:1;fill-rule:nonzero;stroke:none" />
  <path
     inkscape:connector-curvature="0"
     id="path167"
     d="m 412.60625,416.43594 -0.71875,0 c 0.5625,0.35547 0.84375,0.88672 0.84375,1.59375 0,0.44922 -0.125,0.86718 -0.375,1.25 -0.24609,0.38672 -0.59766,0.68359 -1.04688,0.89062 -0.44531,0.21094 -0.96093,0.3125 -1.54687,0.3125 -0.57031,0 -1.08594,-0.0937 -1.54688,-0.28125 -0.46484,-0.19531 -0.82031,-0.48437 -1.0625,-0.85937 -0.24609,-0.3711 -0.375,-0.79688 -0.375,-1.26563 0,-0.33984 0.0742,-0.64844 0.21875,-0.92187 0.14844,-0.26953 0.33594,-0.48828 0.5625,-0.65625 l -2.82812,0 0,-0.96875 7.875,0 z m -2.84375,3.04687 c 0.73047,0 1.27734,-0.14844 1.64062,-0.45312 0.35547,-0.3086 0.53125,-0.67578 0.53125,-1.09375 0,-0.42578 -0.17187,-0.78516 -0.51562,-1.07813 -0.33984,-0.28906 -0.86719,-0.4375 -1.57813,-0.4375 -0.77734,0 -1.35156,0.15235 -1.71875,0.45313 -0.36328,0.29297 -0.54687,0.66406 -0.54687,1.10937 0,0.42969 0.17969,0.78906 0.53125,1.07813 0.34375,0.28125 0.89844,0.42187 1.65625,0.42187 z"
     style="fill:#000000;fill-opacity:1;fill-rule:nonzero;stroke:none" />
  <path
     inkscape:connector-curvature="0"
     id="path169"
     d="m 405.84062,414.00625 -1.10937,0 0,-0.96875 1.10937,0 z m 6.76563,0 -5.70313,0 0,-0.96875 5.70313,0 z"
     style="fill:#000000;fill-opacity:1;fill-rule:nonzero;stroke:none" />
  <path
     inkscape:connector-curvature="0"
     id="path171"
     d="m 411.74687,409.45547 0.84375,-0.125 c 0.0586,0.27344 0.0937,0.51172 0.0937,0.71875 0,0.35547 -0.0586,0.63281 -0.17187,0.82812 -0.11328,0.1875 -0.25781,0.32422 -0.4375,0.40625 -0.17578,0.0742 -0.55469,0.10938 -1.14063,0.10938 l -3.28125,0 0,0.71875 -0.75,0 0,-0.71875 -1.40625,0 -0.59375,-0.95313 2,0 0,-0.98437 0.75,0 0,0.98437 3.34375,0 c 0.27344,0 0.44922,-0.0156 0.53125,-0.0469 0.0742,-0.0391 0.13672,-0.0977 0.1875,-0.17188 0.043,-0.082 0.0625,-0.1914 0.0625,-0.32812 0,-0.11328 -0.008,-0.25781 -0.0312,-0.4375 z"
     style="fill:#000000;fill-opacity:1;fill-rule:nonzero;stroke:none" />
  <path
     inkscape:connector-curvature="0"
     id="path173"
     d="m 405.84062,408.50625 -1.10937,0 0,-0.96875 1.10937,0 z m 6.76563,0 -5.70313,0 0,-0.96875 5.70313,0 z"
     style="fill:#000000;fill-opacity:1;fill-rule:nonzero;stroke:none" />
  <path
     inkscape:connector-curvature="0"
     id="path175"
     d="m 409.74687,406.43984 c -1.05078,0 -1.83203,-0.29687 -2.34375,-0.89062 -0.41406,-0.48828 -0.625,-1.08594 -0.625,-1.79688 0,-0.77734 0.25782,-1.41406 0.76563,-1.90625 0.51172,-0.49609 1.22266,-0.75 2.125,-0.75 0.74219,0 1.32422,0.11328 1.75,0.32813 0.41797,0.21875 0.74219,0.54297 0.96875,0.96875 0.22656,0.41797 0.34375,0.87109 0.34375,1.35937 0,0.80469 -0.25391,1.45703 -0.76563,1.95313 -0.50781,0.49219 -1.25,0.73437 -2.21875,0.73437 z m 0,-1 c 0.74219,0 1.29297,-0.15625 1.65625,-0.46875 0.35547,-0.32031 0.53125,-0.72656 0.53125,-1.21875 0,-0.47656 -0.17968,-0.875 -0.54687,-1.1875 -0.36328,-0.32031 -0.92188,-0.48437 -1.67188,-0.48437 -0.69531,0 -1.22656,0.16406 -1.59375,0.48437 -0.36328,0.32422 -0.54687,0.72266 -0.54687,1.1875 0,0.49219 0.18359,0.89844 0.54687,1.21875 0.35547,0.3125 0.89844,0.46875 1.625,0.46875 z"
     style="fill:#000000;fill-opacity:1;fill-rule:nonzero;stroke:none" />
  <path
     inkscape:connector-curvature="0"
     id="path177"
     d="m 412.60625,399.96328 -5.70313,0 0,-0.875 0.8125,0 c -0.62109,-0.41406 -0.9375,-1.01953 -0.9375,-1.8125 0,-0.33984 0.0664,-0.66016 0.1875,-0.95312 0.11719,-0.28907 0.27735,-0.50391 0.48438,-0.64063 0.19922,-0.14453 0.43359,-0.25 0.70312,-0.3125 0.1875,-0.0273 0.50782,-0.0469 0.95313,-0.0469 l 3.5,0 0,0.96875 -3.46875,0 c -0.39453,0 -0.6875,0.0391 -0.875,0.10937 -0.19531,0.0742 -0.35156,0.21094 -0.46875,0.40625 -0.12109,0.1875 -0.1875,0.41406 -0.1875,0.67188 0,0.40625 0.13281,0.76171 0.39062,1.0625 0.26172,0.30468 0.76172,0.45312 1.5,0.45312 l 3.10938,0 z"
     style="fill:#000000;fill-opacity:1;fill-rule:nonzero;stroke:none" />
  <path
     inkscape:connector-curvature="0"
     id="path179"
     d="m 411.90312,390.11172 c 0.30469,0.36719 0.51954,0.71484 0.64063,1.04687 0.12109,0.32422 0.1875,0.67969 0.1875,1.0625 0,0.625 -0.14844,1.11328 -0.45313,1.45313 -0.30859,0.33594 -0.70312,0.5 -1.17187,0.5 -0.27734,0 -0.53516,-0.0625 -0.76563,-0.1875 -0.22656,-0.13281 -0.41015,-0.30078 -0.54687,-0.5 -0.14453,-0.20703 -0.25391,-0.44141 -0.32813,-0.70313 -0.0508,-0.18359 -0.0976,-0.47265 -0.14062,-0.85937 -0.0898,-0.77735 -0.20703,-1.35156 -0.34375,-1.71875 -0.12109,-0.008 -0.20703,-0.0156 -0.25,-0.0156 -0.39453,0 -0.67188,0.0977 -0.82813,0.28125 -0.21484,0.24219 -0.32812,0.60547 -0.32812,1.09375 0,0.46094 0.082,0.80078 0.23437,1.01563 0.15625,0.21094 0.44141,0.36719 0.84375,0.46875 l -0.125,0.95312 c -0.40234,-0.082 -0.73437,-0.22265 -0.98437,-0.42187 -0.24609,-0.19531 -0.4375,-0.48438 -0.5625,-0.85938 -0.13281,-0.37109 -0.20313,-0.80468 -0.20313,-1.29687 0,-0.48828 0.0586,-0.88281 0.17188,-1.1875 0.11719,-0.30078 0.26172,-0.51953 0.4375,-0.65625 0.16797,-0.14453 0.38281,-0.25 0.64062,-0.3125 0.16797,-0.0274 0.47266,-0.0469 0.90625,-0.0469 l 1.28125,0 c 0.89844,0 1.46485,-0.0195 1.70313,-0.0625 0.24219,-0.0391 0.47266,-0.125 0.6875,-0.25 l 0,1.01563 c -0.19531,0.10547 -0.42969,0.16797 -0.70313,0.1875 z m -2.15625,0.0937 c 0.14844,0.34375 0.26954,0.87109 0.35938,1.57812 0.0625,0.39844 0.13281,0.67969 0.20312,0.84375 0.0625,0.15625 0.16797,0.28516 0.3125,0.375 0.13672,0.0937 0.28907,0.14063 0.45313,0.14063 0.26172,0 0.48047,-0.0977 0.65625,-0.29688 0.16797,-0.19531 0.25,-0.48437 0.25,-0.85937 0,-0.3711 -0.082,-0.70313 -0.25,-0.98438 -0.16406,-0.28906 -0.39063,-0.50781 -0.67188,-0.65625 -0.21484,-0.0898 -0.53906,-0.14062 -0.96875,-0.14062 z"
     style="fill:#000000;fill-opacity:1;fill-rule:nonzero;stroke:none" />
  <path
     inkscape:connector-curvature="0"
     id="path181"
     d="m 404.73125,386.77969 7.875,0 0,0.96875 -7.875,0 z"
     style="fill:#000000;fill-opacity:1;fill-rule:nonzero;stroke:none" />
  <path
     inkscape:connector-curvature="0"
     id="path183"
     d="m 411.68437,380.475 0.92188,0 0,5.20312 c -0.22656,0 -0.45313,-0.0391 -0.67188,-0.125 -0.35156,-0.12109 -0.70312,-0.33203 -1.04687,-0.625 -0.33984,-0.28906 -0.73828,-0.71093 -1.1875,-1.26562 -0.70703,-0.85156 -1.26563,-1.42969 -1.67188,-1.73438 -0.40234,-0.30078 -0.78906,-0.45312 -1.15625,-0.45312 -0.38281,0 -0.70703,0.13672 -0.96875,0.40625 -0.26953,0.27344 -0.40625,0.63281 -0.40625,1.07812 0,0.46094 0.14454,0.83204 0.42188,1.10938 0.28125,0.28125 0.66797,0.42187 1.15625,0.42187 l -0.0937,1 c -0.73828,-0.0703 -1.30078,-0.32812 -1.6875,-0.76562 -0.39453,-0.44531 -0.59375,-1.04688 -0.59375,-1.79688 0,-0.74609 0.21094,-1.34375 0.625,-1.78125 0.41797,-0.44531 0.94141,-0.67187 1.5625,-0.67187 0.3125,0 0.62891,0.0703 0.9375,0.20312 0.30469,0.125 0.62109,0.33985 0.95312,0.64063 0.33594,0.29297 0.80079,0.78906 1.39063,1.48437 0.48047,0.58594 0.80859,0.96094 0.98437,1.125 0.17969,0.15625 0.35547,0.29297 0.53125,0.40625 z"
     style="fill:#000000;fill-opacity:1;fill-rule:nonzero;stroke:none" />
  <path
     inkscape:connector-curvature="0"
     id="path185"
     d="m 41.293749,363.51562 0,-349.378901"
     style="fill:none;stroke:#000000;stroke-width:0.75;stroke-linecap:round;stroke-linejoin:round;stroke-miterlimit:10;stroke-opacity:1" />
  <path
     inkscape:connector-curvature="0"
     id="path187"
     d="m 41.293749,363.51562 -7.199219,0"
     style="fill:none;stroke:#000000;stroke-width:0.75;stroke-linecap:round;stroke-linejoin:round;stroke-miterlimit:10;stroke-opacity:1" />
  <path
     inkscape:connector-curvature="0"
     id="path189"
     d="m 41.293749,293.63672 -7.199219,0"
     style="fill:none;stroke:#000000;stroke-width:0.75;stroke-linecap:round;stroke-linejoin:round;stroke-miterlimit:10;stroke-opacity:1" />
  <path
     inkscape:connector-curvature="0"
     id="path191"
     d="m 41.293749,223.75781 -7.199219,0"
     style="fill:none;stroke:#000000;stroke-width:0.75;stroke-linecap:round;stroke-linejoin:round;stroke-miterlimit:10;stroke-opacity:1" />
  <path
     inkscape:connector-curvature="0"
     id="path193"
     d="m 41.293749,153.88672 -7.199219,0"
     style="fill:none;stroke:#000000;stroke-width:0.75;stroke-linecap:round;stroke-linejoin:round;stroke-miterlimit:10;stroke-opacity:1" />
  <path
     inkscape:connector-curvature="0"
     id="path195"
     d="m 41.293749,84.007813 -7.199219,0"
     style="fill:none;stroke:#000000;stroke-width:0.75;stroke-linecap:round;stroke-linejoin:round;stroke-miterlimit:10;stroke-opacity:1" />
  <path
     inkscape:connector-curvature="0"
     id="path197"
     d="m 41.293749,14.136719 -7.199219,0"
     style="fill:none;stroke:#000000;stroke-width:0.75;stroke-linecap:round;stroke-linejoin:round;stroke-miterlimit:10;stroke-opacity:1" />
  <path
     inkscape:connector-curvature="0"
     id="path199"
     d="m 12.059374,363.56641 c 0,-0.92579 0.09375,-1.67188 0.28125,-2.23438 0.195313,-0.57031 0.484375,-1.00781 0.859375,-1.3125 0.382813,-0.30859 0.863281,-0.46875 1.4375,-0.46875 0.414063,0 0.78125,0.0898 1.09375,0.26563 0.320313,0.16796 0.585938,0.41406 0.796875,0.73437 0.207031,0.3125 0.367188,0.70703 0.484375,1.17188 0.121094,0.46093 0.1875,1.07421 0.1875,1.84375 0,0.92968 -0.101562,1.67968 -0.296875,2.25 -0.1875,0.5625 -0.472656,1.0039 -0.84375,1.3125 -0.375,0.3125 -0.851562,0.46875 -1.421875,0.46875 -0.761719,0 -1.363281,-0.27344 -1.796875,-0.82813 -0.523437,-0.65234 -0.78125,-1.72266 -0.78125,-3.20312 z m 1,0 c 0,1.30468 0.148438,2.16796 0.453125,2.59375 0.300781,0.42968 0.675781,0.64062 1.125,0.64062 0.433594,0 0.804688,-0.21094 1.109375,-0.64062 0.300781,-0.4336 0.453125,-1.30079 0.453125,-2.59375 0,-1.28907 -0.152344,-2.14844 -0.453125,-2.57813 -0.304687,-0.42578 -0.679687,-0.64062 -1.125,-0.64062 -0.449219,0 -0.804687,0.1914 -1.0625,0.5625 -0.335937,0.48046 -0.5,1.36718 -0.5,2.65625 z"
     style="fill:#000000;fill-opacity:1;fill-rule:nonzero;stroke:none" />
  <path
     inkscape:connector-curvature="0"
     id="path201"
     d="m 18.723437,367.45703 0,-1.09375 1.09375,0 0,1.09375 z"
     style="fill:#000000;fill-opacity:1;fill-rule:nonzero;stroke:none" />
  <path
     inkscape:connector-curvature="0"
     id="path203"
     d="m 21.231249,363.56641 c 0,-0.92579 0.09375,-1.67188 0.28125,-2.23438 0.195313,-0.57031 0.484375,-1.00781 0.859375,-1.3125 0.382813,-0.30859 0.863281,-0.46875 1.4375,-0.46875 0.414063,0 0.78125,0.0898 1.09375,0.26563 0.320313,0.16796 0.585938,0.41406 0.796875,0.73437 0.207031,0.3125 0.367188,0.70703 0.484375,1.17188 0.121094,0.46093 0.1875,1.07421 0.1875,1.84375 0,0.92968 -0.101562,1.67968 -0.296875,2.25 -0.1875,0.5625 -0.472656,1.0039 -0.84375,1.3125 -0.375,0.3125 -0.851562,0.46875 -1.421875,0.46875 -0.761719,0 -1.363281,-0.27344 -1.796875,-0.82813 -0.523437,-0.65234 -0.78125,-1.72266 -0.78125,-3.20312 z m 1,0 c 0,1.30468 0.148438,2.16796 0.453125,2.59375 0.300781,0.42968 0.675781,0.64062 1.125,0.64062 0.433594,0 0.804688,-0.21094 1.109375,-0.64062 0.300781,-0.4336 0.453125,-1.30079 0.453125,-2.59375 0,-1.28907 -0.152344,-2.14844 -0.453125,-2.57813 -0.304687,-0.42578 -0.679687,-0.64062 -1.125,-0.64062 -0.449219,0 -0.804687,0.1914 -1.0625,0.5625 -0.335937,0.48046 -0.5,1.36718 -0.5,2.65625 z"
     style="fill:#000000;fill-opacity:1;fill-rule:nonzero;stroke:none" />
  <path
     inkscape:connector-curvature="0"
     id="path205"
     d="m 12.059374,293.69531 c 0,-0.92578 0.09375,-1.67187 0.28125,-2.23437 0.195313,-0.57032 0.484375,-1.00782 0.859375,-1.3125 0.382813,-0.3086 0.863281,-0.46875 1.4375,-0.46875 0.414063,0 0.78125,0.0898 1.09375,0.26562 0.320313,0.16797 0.585938,0.41406 0.796875,0.73438 0.207031,0.3125 0.367188,0.70703 0.484375,1.17187 0.121094,0.46094 0.1875,1.07422 0.1875,1.84375 0,0.92969 -0.101562,1.67969 -0.296875,2.25 -0.1875,0.5625 -0.472656,1.00391 -0.84375,1.3125 -0.375,0.3125 -0.851562,0.46875 -1.421875,0.46875 -0.761719,0 -1.363281,-0.27344 -1.796875,-0.82812 -0.523437,-0.65235 -0.78125,-1.72266 -0.78125,-3.20313 z m 1,0 c 0,1.30469 0.148438,2.16797 0.453125,2.59375 0.300781,0.42969 0.675781,0.64063 1.125,0.64063 0.433594,0 0.804688,-0.21094 1.109375,-0.64063 0.300781,-0.43359 0.453125,-1.30078 0.453125,-2.59375 0,-1.28906 -0.152344,-2.14844 -0.453125,-2.57812 -0.304687,-0.42578 -0.679687,-0.64063 -1.125,-0.64063 -0.449219,0 -0.804687,0.19141 -1.0625,0.5625 -0.335937,0.48047 -0.5,1.36719 -0.5,2.65625 z"
     style="fill:#000000;fill-opacity:1;fill-rule:nonzero;stroke:none" />
  <path
     inkscape:connector-curvature="0"
     id="path207"
     d="m 18.723437,297.58594 0,-1.09375 1.09375,0 0,1.09375 z"
     style="fill:#000000;fill-opacity:1;fill-rule:nonzero;stroke:none" />
  <path
     inkscape:connector-curvature="0"
     id="path209"
     d="m 26.309374,296.66406 0,0.92188 -5.203125,0 c 0,-0.22657 0.03906,-0.45313 0.125,-0.67188 0.121094,-0.35156 0.332031,-0.70312 0.625,-1.04687 0.289063,-0.33985 0.710938,-0.73828 1.265625,-1.1875 0.851563,-0.70703 1.429688,-1.26563 1.734375,-1.67188 0.300781,-0.40234 0.453125,-0.78906 0.453125,-1.15625 0,-0.38281 -0.136719,-0.70703 -0.40625,-0.96875 -0.273437,-0.26953 -0.632812,-0.40625 -1.078125,-0.40625 -0.460937,0 -0.832031,0.14453 -1.109375,0.42188 -0.28125,0.28125 -0.421875,0.66797 -0.421875,1.15625 l -1,-0.0937 c 0.07031,-0.73828 0.328125,-1.30078 0.765625,-1.6875 0.445313,-0.39453 1.046875,-0.59375 1.796875,-0.59375 0.746094,0 1.34375,0.21093 1.78125,0.625 0.445313,0.41797 0.671875,0.9414 0.671875,1.5625 0,0.3125 -0.07031,0.6289 -0.203125,0.9375 -0.125,0.30468 -0.339844,0.62109 -0.640625,0.95312 -0.292969,0.33594 -0.789062,0.80078 -1.484375,1.39063 -0.585937,0.48047 -0.960937,0.80859 -1.125,0.98437 -0.15625,0.17969 -0.292969,0.35547 -0.40625,0.53125 z"
     style="fill:#000000;fill-opacity:1;fill-rule:nonzero;stroke:none" />
  <path
     inkscape:connector-curvature="0"
     id="path211"
     d="m 12.059374,223.81641 c 0,-0.92579 0.09375,-1.67188 0.28125,-2.23438 0.195313,-0.57031 0.484375,-1.00781 0.859375,-1.3125 0.382813,-0.30859 0.863281,-0.46875 1.4375,-0.46875 0.414063,0 0.78125,0.0898 1.09375,0.26563 0.320313,0.16796 0.585938,0.41406 0.796875,0.73437 0.207031,0.3125 0.367188,0.70703 0.484375,1.17188 0.121094,0.46093 0.1875,1.07421 0.1875,1.84375 0,0.92968 -0.101562,1.67968 -0.296875,2.25 -0.1875,0.5625 -0.472656,1.0039 -0.84375,1.3125 -0.375,0.3125 -0.851562,0.46875 -1.421875,0.46875 -0.761719,0 -1.363281,-0.27344 -1.796875,-0.82813 -0.523437,-0.65234 -0.78125,-1.72266 -0.78125,-3.20312 z m 1,0 c 0,1.30468 0.148438,2.16796 0.453125,2.59375 0.300781,0.42968 0.675781,0.64062 1.125,0.64062 0.433594,0 0.804688,-0.21094 1.109375,-0.64062 0.300781,-0.4336 0.453125,-1.30079 0.453125,-2.59375 0,-1.28907 -0.152344,-2.14844 -0.453125,-2.57813 -0.304687,-0.42578 -0.679687,-0.64062 -1.125,-0.64062 -0.449219,0 -0.804687,0.1914 -1.0625,0.5625 -0.335937,0.48046 -0.5,1.36718 -0.5,2.65625 z"
     style="fill:#000000;fill-opacity:1;fill-rule:nonzero;stroke:none" />
  <path
     inkscape:connector-curvature="0"
     id="path213"
     d="m 18.723437,227.70703 0,-1.09375 1.09375,0 0,1.09375 z"
     style="fill:#000000;fill-opacity:1;fill-rule:nonzero;stroke:none" />
  <path
     inkscape:connector-curvature="0"
     id="path215"
     d="m 24.340624,227.70703 0,-1.89062 -3.421875,0 0,-0.875 3.59375,-5.10938 0.78125,0 0,5.10938 1.078125,0 0,0.875 -1.078125,0 0,1.89062 z m 0,-2.76562 0,-3.5625 -2.46875,3.5625 z"
     style="fill:#000000;fill-opacity:1;fill-rule:nonzero;stroke:none" />
  <path
     inkscape:connector-curvature="0"
     id="path217"
     d="m 12.059374,153.94531 c 0,-0.92578 0.09375,-1.67187 0.28125,-2.23437 0.195313,-0.57032 0.484375,-1.00782 0.859375,-1.3125 0.382813,-0.3086 0.863281,-0.46875 1.4375,-0.46875 0.414063,0 0.78125,0.0898 1.09375,0.26562 0.320313,0.16797 0.585938,0.41406 0.796875,0.73438 0.207031,0.3125 0.367188,0.70703 0.484375,1.17187 0.121094,0.46094 0.1875,1.07422 0.1875,1.84375 0,0.92969 -0.101562,1.67969 -0.296875,2.25 -0.1875,0.5625 -0.472656,1.00391 -0.84375,1.3125 -0.375,0.3125 -0.851562,0.46875 -1.421875,0.46875 -0.761719,0 -1.363281,-0.27344 -1.796875,-0.82812 -0.523437,-0.65235 -0.78125,-1.72266 -0.78125,-3.20313 z m 1,0 c 0,1.30469 0.148438,2.16797 0.453125,2.59375 0.300781,0.42969 0.675781,0.64063 1.125,0.64063 0.433594,0 0.804688,-0.21094 1.109375,-0.64063 0.300781,-0.43359 0.453125,-1.30078 0.453125,-2.59375 0,-1.28906 -0.152344,-2.14844 -0.453125,-2.57812 -0.304687,-0.42578 -0.679687,-0.64063 -1.125,-0.64063 -0.449219,0 -0.804687,0.19141 -1.0625,0.5625 -0.335937,0.48047 -0.5,1.36719 -0.5,2.65625 z"
     style="fill:#000000;fill-opacity:1;fill-rule:nonzero;stroke:none" />
  <path
     inkscape:connector-curvature="0"
     id="path219"
     d="m 18.723437,157.83594 0,-1.09375 1.09375,0 0,1.09375 z"
     style="fill:#000000;fill-opacity:1;fill-rule:nonzero;stroke:none" />
  <path
     inkscape:connector-curvature="0"
     id="path221"
     d="m 26.246874,151.88281 -0.953125,0.0781 c -0.08594,-0.3711 -0.210937,-0.64844 -0.375,-0.82813 -0.261719,-0.26953 -0.582031,-0.40625 -0.953125,-0.40625 -0.3125,0 -0.585937,0.0859 -0.8125,0.25 -0.3125,0.23047 -0.558594,0.5586 -0.734375,0.98438 -0.167969,0.41797 -0.257812,1.02343 -0.265625,1.8125 0.226563,-0.35157 0.507813,-0.61328 0.84375,-0.78125 0.339844,-0.17578 0.695313,-0.26563 1.0625,-0.26563 0.644531,0 1.191406,0.24219 1.640625,0.71875 0.457031,0.46875 0.6875,1.08203 0.6875,1.82813 0,0.5 -0.113281,0.96484 -0.328125,1.39062 -0.210937,0.41797 -0.503906,0.74219 -0.875,0.96875 -0.367187,0.22656 -0.789062,0.34375 -1.265625,0.34375 -0.804687,0 -1.460937,-0.29687 -1.96875,-0.89062 -0.511719,-0.58985 -0.765625,-1.57032 -0.765625,-2.9375 0,-1.51953 0.28125,-2.625 0.84375,-3.3125 0.496094,-0.60157 1.160156,-0.90625 1.984375,-0.90625 0.621094,0 1.132813,0.17968 1.53125,0.53125 0.394531,0.34375 0.628906,0.82031 0.703125,1.42187 z m -3.9375,3.40625 c 0,0.33594 0.06641,0.65235 0.203125,0.95313 0.144531,0.30468 0.34375,0.53906 0.59375,0.70312 0.257813,0.15625 0.523438,0.23438 0.796875,0.23438 0.414063,0 0.769531,-0.16407 1.0625,-0.5 0.289063,-0.33203 0.4375,-0.78125 0.4375,-1.34375 0,-0.53907 -0.148437,-0.96875 -0.4375,-1.28125 -0.292969,-0.3086 -0.660156,-0.46875 -1.09375,-0.46875 -0.4375,0 -0.808594,0.16015 -1.109375,0.46875 -0.304687,0.3125 -0.453125,0.72656 -0.453125,1.23437 z"
     style="fill:#000000;fill-opacity:1;fill-rule:nonzero;stroke:none" />
  <path
     inkscape:connector-curvature="0"
     id="path223"
     d="m 12.059374,84.066406 c 0,-0.925781 0.09375,-1.671875 0.28125,-2.234375 0.195313,-0.570312 0.484375,-1.007812 0.859375,-1.3125 0.382813,-0.308593 0.863281,-0.46875 1.4375,-0.46875 0.414063,0 0.78125,0.08984 1.09375,0.265625 0.320313,0.167969 0.585938,0.414063 0.796875,0.734375 0.207031,0.3125 0.367188,0.707032 0.484375,1.171875 0.121094,0.460938 0.1875,1.074219 0.1875,1.84375 0,0.929688 -0.101562,1.679688 -0.296875,2.25 -0.1875,0.5625 -0.472656,1.003907 -0.84375,1.3125 -0.375,0.3125 -0.851562,0.46875 -1.421875,0.46875 -0.761719,0 -1.363281,-0.273437 -1.796875,-0.828125 -0.523437,-0.652343 -0.78125,-1.722656 -0.78125,-3.203125 z m 1,0 c 0,1.304688 0.148438,2.167969 0.453125,2.59375 0.300781,0.429688 0.675781,0.640625 1.125,0.640625 0.433594,0 0.804688,-0.210937 1.109375,-0.640625 0.300781,-0.433593 0.453125,-1.300781 0.453125,-2.59375 0,-1.289062 -0.152344,-2.148437 -0.453125,-2.578125 -0.304687,-0.425781 -0.679687,-0.640625 -1.125,-0.640625 -0.449219,0 -0.804687,0.191407 -1.0625,0.5625 -0.335937,0.480469 -0.5,1.367188 -0.5,2.65625 z"
     style="fill:#000000;fill-opacity:1;fill-rule:nonzero;stroke:none" />
  <path
     inkscape:connector-curvature="0"
     id="path225"
     d="m 18.723437,87.957031 0,-1.09375 1.09375,0 0,1.09375 z"
     style="fill:#000000;fill-opacity:1;fill-rule:nonzero;stroke:none" />
  <path
     inkscape:connector-curvature="0"
     id="path227"
     d="m 22.715624,83.691406 c -0.398437,-0.144531 -0.695312,-0.351562 -0.890625,-0.625 -0.1875,-0.277343 -0.28125,-0.609375 -0.28125,-0.984375 0,-0.570312 0.203125,-1.050781 0.609375,-1.4375 0.414063,-0.394531 0.96875,-0.59375 1.65625,-0.59375 0.683594,0 1.238281,0.207032 1.65625,0.609375 0.414063,0.398438 0.625,0.882813 0.625,1.453125 0,0.367188 -0.101562,0.683594 -0.296875,0.953125 -0.1875,0.273438 -0.476562,0.480469 -0.859375,0.625 0.476563,0.15625 0.84375,0.414063 1.09375,0.765625 0.257813,0.34375 0.390625,0.761719 0.390625,1.25 0,0.679688 -0.242187,1.246094 -0.71875,1.703125 -0.480469,0.460938 -1.105469,0.6875 -1.875,0.6875 -0.78125,0 -1.414062,-0.226562 -1.890625,-0.6875 -0.46875,-0.464843 -0.703125,-1.046875 -0.703125,-1.734375 0,-0.507812 0.125,-0.9375 0.375,-1.28125 0.257813,-0.339843 0.628906,-0.578125 1.109375,-0.703125 z m -0.1875,-1.640625 c 0,0.375 0.117188,0.683594 0.359375,0.921875 0.238281,0.230469 0.550781,0.34375 0.9375,0.34375 0.371094,0 0.675781,-0.113281 0.90625,-0.34375 0.238281,-0.238281 0.359375,-0.53125 0.359375,-0.875 0,-0.351562 -0.128906,-0.648437 -0.375,-0.890625 -0.242187,-0.238281 -0.542969,-0.359375 -0.90625,-0.359375 -0.367187,0 -0.675781,0.121094 -0.921875,0.359375 -0.242187,0.230469 -0.359375,0.511719 -0.359375,0.84375 z m -0.3125,3.640625 c 0,0.273438 0.0625,0.539063 0.1875,0.796875 0.132813,0.261719 0.332031,0.464844 0.59375,0.609375 0.257813,0.136719 0.535156,0.203125 0.828125,0.203125 0.464844,0 0.847656,-0.144531 1.140625,-0.4375 0.300781,-0.300781 0.453125,-0.679687 0.453125,-1.140625 0,-0.464843 -0.160156,-0.851562 -0.46875,-1.15625 -0.304687,-0.300781 -0.691406,-0.453125 -1.15625,-0.453125 -0.449219,0 -0.824219,0.152344 -1.125,0.453125 -0.304687,0.292969 -0.453125,0.667969 -0.453125,1.125 z"
     style="fill:#000000;fill-opacity:1;fill-rule:nonzero;stroke:none" />
  <path
     inkscape:connector-curvature="0"
     id="path229"
     d="m 15.699999,18.085938 -0.96875,0 0,-6.15625 c -0.230469,0.21875 -0.535156,0.445312 -0.90625,0.671875 -0.375,0.21875 -0.714844,0.382812 -1.015625,0.484375 l 0,-0.9375 c 0.539063,-0.246094 1.007813,-0.550782 1.40625,-0.90625 0.402344,-0.363282 0.691406,-0.71875 0.859375,-1.0625 l 0.625,0 z"
     style="fill:#000000;fill-opacity:1;fill-rule:nonzero;stroke:none" />
  <path
     inkscape:connector-curvature="0"
     id="path231"
     d="m 18.723437,18.085938 0,-1.09375 1.09375,0 0,1.09375 z"
     style="fill:#000000;fill-opacity:1;fill-rule:nonzero;stroke:none" />
  <path
     inkscape:connector-curvature="0"
     id="path233"
     d="m 21.231249,14.195313 c 0,-0.925782 0.09375,-1.671875 0.28125,-2.234375 0.195313,-0.570313 0.484375,-1.007813 0.859375,-1.3125 0.382813,-0.308594 0.863281,-0.46875 1.4375,-0.46875 0.414063,0 0.78125,0.08984 1.09375,0.265625 0.320313,0.167968 0.585938,0.414062 0.796875,0.734375 0.207031,0.3125 0.367188,0.707031 0.484375,1.171875 0.121094,0.460937 0.1875,1.074218 0.1875,1.84375 0,0.929687 -0.101562,1.679687 -0.296875,2.25 -0.1875,0.5625 -0.472656,1.003906 -0.84375,1.3125 -0.375,0.3125 -0.851562,0.46875 -1.421875,0.46875 -0.761719,0 -1.363281,-0.273438 -1.796875,-0.828125 -0.523437,-0.652344 -0.78125,-1.722657 -0.78125,-3.203125 z m 1,0 c 0,1.304687 0.148438,2.167968 0.453125,2.59375 0.300781,0.429687 0.675781,0.640625 1.125,0.640625 0.433594,0 0.804688,-0.210938 1.109375,-0.640625 0.300781,-0.433594 0.453125,-1.300782 0.453125,-2.59375 0,-1.289063 -0.152344,-2.148438 -0.453125,-2.578125 -0.304687,-0.425782 -0.679687,-0.640625 -1.125,-0.640625 -0.449219,0 -0.804687,0.191406 -1.0625,0.5625 -0.335937,0.480468 -0.5,1.367187 -0.5,2.65625 z"
     style="fill:#000000;fill-opacity:1;fill-rule:nonzero;stroke:none" />
  <path
     inkscape:connector-curvature="0"
     id="path235"
     d="m 2.031249,299.93359 c -0.558593,0 -1.039061,-0.14062 -1.437499,-0.42187 C 0.199219,299.23437 0,298.82031 0,298.27734 c 0,-0.48828 0.179688,-0.89453 0.53125,-1.21875 0.355469,-0.32031 0.878906,-0.48437 1.562499,-0.48437 0.667969,0 1.183594,0.16406 1.546875,0.48437 0.355469,0.32422 0.53125,0.73047 0.53125,1.21875 0,0.46875 -0.175781,0.86719 -0.53125,1.1875 -0.351562,0.3125 -0.890625,0.46875 -1.609375,0.46875 z m -1.359374,-1.6875 c 0,0.25 0.105469,0.45703 0.3125,0.60938 0.210938,0.15625 0.589844,0.23437 1.140624,0.23437 0.511719,0 0.871094,-0.0781 1.078125,-0.23437 0.199219,-0.16406 0.296875,-0.36719 0.296875,-0.60938 0,-0.23828 -0.101562,-0.4375 -0.3125,-0.59375 -0.207031,-0.15234 -0.585937,-0.23437 -1.140625,-0.23437 -0.496093,0 -0.851561,0.082 -1.062499,0.23437 -0.207031,0.15625 -0.3125,0.35547 -0.3125,0.59375 z m 7.640624,0 L 0,293.93359 l 0,-0.78125 8.312499,4.29688 z m -2.140625,-3.40625 c -0.570312,0 -1.050781,-0.14062 -1.4375,-0.42187 -0.394531,-0.27735 -0.59375,-0.69141 -0.59375,-1.23438 0,-0.48828 0.179688,-0.89453 0.53125,-1.21875 0.355469,-0.33203 0.878906,-0.5 1.5625,-0.5 0.65625,0 1.167969,0.16797 1.53125,0.5 0.363281,0.32422 0.546875,0.73047 0.546875,1.21875 0,0.46875 -0.179687,0.86719 -0.53125,1.1875 -0.363281,0.3125 -0.898437,0.46875 -1.609375,0.46875 z m -1.359375,-1.6875 c 0,0.25 0.105469,0.45703 0.3125,0.60938 0.210938,0.15625 0.589844,0.23437 1.140625,0.23437 0.5,0 0.855469,-0.0781 1.0625,-0.23437 0.210938,-0.16406 0.3125,-0.36328 0.3125,-0.59375 0,-0.2461 -0.101562,-0.45313 -0.3125,-0.60938 -0.207031,-0.16406 -0.585937,-0.25 -1.140625,-0.25 -0.507812,0 -0.863281,0.0859 -1.0625,0.25 -0.207031,0.15625 -0.3125,0.35547 -0.3125,0.59375 z"
     style="fill:#000000;fill-opacity:1;fill-rule:nonzero;stroke:none" />
  <path
     inkscape:connector-curvature="0"
     id="path237"
     d="m 8.015624,284.87891 -6.937499,0 0,2.59375 -0.9375,0 0,-6.23438 0.9375,0 0,2.60938 6.937499,0 z"
     style="fill:#000000;fill-opacity:1;fill-rule:nonzero;stroke:none" />
  <path
     inkscape:connector-curvature="0"
     id="path239"
     d="m 5.249999,274.55078 0.265625,-1.04687 c 0.855469,0.21875 1.511719,0.61718 1.96875,1.1875 0.449219,0.5625 0.671875,1.25781 0.671875,2.07812 0,0.85547 -0.171875,1.55078 -0.515625,2.07813 -0.351562,0.53125 -0.859375,0.9414 -1.515625,1.21875 -0.652344,0.27343 -1.359375,0.40625 -2.109375,0.40625 -0.808594,0 -1.523437,-0.15625 -2.140624,-0.46875 C 1.261719,279.69531 0.796875,279.25 0.484375,278.67578 0.164063,278.09375 0,277.45312 0,276.75391 c 0,-0.78907 0.207031,-1.45313 0.609375,-1.98438 0.398438,-0.53906 0.960938,-0.91406 1.687499,-1.125 l 0.25,1.03125 c -0.570311,0.17969 -0.98828,0.44531 -1.249999,0.79688 -0.257812,0.34375 -0.390625,0.77734 -0.390625,1.29687 0,0.61719 0.148438,1.12891 0.4375,1.53125 0.28125,0.40625 0.667968,0.69531 1.156249,0.85938 0.492188,0.15625 0.996094,0.23437 1.515625,0.23437 0.667969,0 1.253906,-0.0937 1.75,-0.28125 0.5,-0.19531 0.878906,-0.5 1.125,-0.90625 0.25,-0.41406 0.375,-0.86328 0.375,-1.34375 0,-0.58203 -0.164062,-1.07812 -0.5,-1.48437 -0.339844,-0.40235 -0.847656,-0.67969 -1.515625,-0.82813 z"
     style="fill:#000000;fill-opacity:1;fill-rule:nonzero;stroke:none" />
  <path
     inkscape:connector-curvature="0"
     id="path241"
     d="m 6.312499,272.73047 -0.15625,-0.95313 c 0.386719,-0.0508 0.683594,-0.19531 0.890625,-0.4375 0.199219,-0.24609 0.296875,-0.59375 0.296875,-1.03125 0,-0.44531 -0.08594,-0.77343 -0.265625,-0.98437 -0.175781,-0.21485 -0.390625,-0.32813 -0.640625,-0.32813 -0.214844,0 -0.390625,0.0977 -0.515625,0.28125 -0.08203,0.13672 -0.191406,0.46485 -0.328125,0.98438 -0.175781,0.71094 -0.328125,1.20703 -0.453125,1.48437 -0.132812,0.27344 -0.316406,0.48047 -0.546875,0.625 -0.226562,0.13672 -0.484375,0.20313 -0.765625,0.20313 -0.257812,0 -0.492187,-0.0547 -0.703125,-0.17188 -0.214844,-0.11328 -0.398437,-0.27343 -0.546875,-0.48437 -0.113281,-0.14453 -0.207031,-0.34766 -0.28125,-0.60938 -0.07031,-0.25781 -0.109375,-0.53515 -0.109375,-0.82812 0,-0.44531 0.06641,-0.83594 0.1875,-1.17188 0.125,-0.33984 0.304688,-0.59375 0.53125,-0.75 0.21875,-0.16406 0.511719,-0.28125 0.875,-0.34375 l 0.125,0.9375 c -0.289062,0.0547 -0.515625,0.1836 -0.671875,0.39063 -0.164062,0.19922 -0.25,0.48828 -0.25,0.85937 0,0.44922 0.07422,0.76953 0.21875,0.95313 0.148438,0.1875 0.320313,0.28125 0.515625,0.28125 0.125,0 0.238281,-0.0352 0.328125,-0.10938 0.105469,-0.082 0.195313,-0.20703 0.265625,-0.375 0.03125,-0.0898 0.117188,-0.3789 0.25,-0.85937 0.179688,-0.67578 0.324219,-1.14844 0.4375,-1.42188 0.117188,-0.26953 0.289063,-0.48437 0.515625,-0.64062 0.21875,-0.15235 0.496094,-0.23438 0.828125,-0.23438 0.324219,0 0.628906,0.0977 0.90625,0.28125 0.28125,0.1875 0.503906,0.46094 0.65625,0.8125 0.152344,0.35547 0.234375,0.75782 0.234375,1.20313 0,0.74219 -0.148437,1.30859 -0.453125,1.70312 -0.308594,0.38672 -0.769531,0.63282 -1.375,0.73438 z"
     style="fill:#000000;fill-opacity:1;fill-rule:nonzero;stroke:none" />
  <path
     inkscape:connector-curvature="0"
     id="path243"
     d="m 7.156249,261.67578 0.84375,-0.125 c 0.05859,0.27344 0.09375,0.51172 0.09375,0.71875 0,0.35547 -0.05859,0.63281 -0.171875,0.82813 -0.113281,0.1875 -0.257812,0.32421 -0.4375,0.40625 -0.175781,0.0742 -0.554687,0.10937 -1.140625,0.10937 l -3.28125,0 0,0.71875 -0.75,0 0,-0.71875 -1.406249,0 -0.59375,-0.95312 1.999999,0 0,-0.98438 0.75,0 0,0.98438 3.34375,0 c 0.273438,0 0.449219,-0.0156 0.53125,-0.0469 0.07422,-0.0391 0.136719,-0.0977 0.1875,-0.17187 0.04297,-0.082 0.0625,-0.19141 0.0625,-0.32813 0,-0.11328 -0.0078,-0.25781 -0.03125,-0.4375 z"
     style="fill:#000000;fill-opacity:1;fill-rule:nonzero;stroke:none" />
  <path
     inkscape:connector-curvature="0"
     id="path245"
     d="m 5.156249,261.10156 c -1.050781,0 -1.832031,-0.29687 -2.34375,-0.89062 -0.414062,-0.48828 -0.625,-1.08594 -0.625,-1.79688 0,-0.77734 0.257813,-1.41406 0.765625,-1.90625 0.511719,-0.49609 1.222656,-0.75 2.125,-0.75 0.742188,0 1.324219,0.11328 1.75,0.32813 0.417969,0.21875 0.742188,0.54297 0.96875,0.96875 0.226563,0.41797 0.34375,0.87109 0.34375,1.35937 0,0.80469 -0.253906,1.45703 -0.765625,1.95313 -0.507812,0.49218 -1.25,0.73437 -2.21875,0.73437 z m 0,-1 c 0.742188,0 1.292969,-0.15625 1.65625,-0.46875 0.355469,-0.32031 0.53125,-0.72656 0.53125,-1.21875 0,-0.47656 -0.179687,-0.875 -0.546875,-1.1875 -0.363281,-0.32031 -0.921875,-0.48437 -1.671875,-0.48437 -0.695312,0 -1.226562,0.16406 -1.59375,0.48437 -0.363281,0.32422 -0.546875,0.72266 -0.546875,1.1875 0,0.49219 0.183594,0.89844 0.546875,1.21875 0.355469,0.3125 0.898438,0.46875 1.625,0.46875 z"
     style="fill:#000000;fill-opacity:1;fill-rule:nonzero;stroke:none" />
  <path
     inkscape:connector-curvature="0"
     id="path247"
     d="m 8.015624,250.67578 0,0.89063 -7.874999,0 0,-0.96875 2.812499,0 c -0.507812,-0.40235 -0.765625,-0.92579 -0.765625,-1.5625 0,-0.35157 0.07422,-0.6875 0.21875,-1 0.136719,-0.3086 0.335938,-0.56641 0.59375,-0.76563 0.25,-0.20703 0.558594,-0.36719 0.921875,-0.48437 0.355469,-0.11329 0.742188,-0.17188 1.15625,-0.17188 0.980469,0 1.738281,0.24609 2.265625,0.73438 0.53125,0.48046 0.796875,1.05859 0.796875,1.73437 0,0.67969 -0.28125,1.21094 -0.84375,1.59375 z m -2.890625,0 c 0.679688,0 1.175781,-0.0937 1.484375,-0.28125 0.492188,-0.30078 0.734375,-0.71094 0.734375,-1.23437 0,-0.41407 -0.179687,-0.77344 -0.546875,-1.07813 -0.363281,-0.30859 -0.910156,-0.46875 -1.640625,-0.46875 -0.738281,0 -1.285156,0.14844 -1.640625,0.4375 -0.351562,0.29297 -0.53125,0.65234 -0.53125,1.07813 0,0.41796 0.183594,0.78515 0.546875,1.09375 0.367188,0.30468 0.898438,0.45312 1.59375,0.45312 z"
     style="fill:#000000;fill-opacity:1;fill-rule:nonzero;stroke:none" />
  <path
     inkscape:connector-curvature="0"
     id="path249"
     d="m 6.171874,241.54687 0.125,-1 c 0.585938,0.15625 1.039063,0.44922 1.359375,0.875 0.324219,0.42969 0.484375,0.97266 0.484375,1.625 0,0.83594 -0.253906,1.4961 -0.765625,1.98438 -0.507812,0.49219 -1.226562,0.73437 -2.15625,0.73437 -0.964844,0 -1.710937,-0.24218 -2.234375,-0.73437 -0.527344,-0.49609 -0.796875,-1.14063 -0.796875,-1.92188 0,-0.76953 0.261719,-1.39453 0.78125,-1.875 0.511719,-0.47656 1.242188,-0.71875 2.1875,-0.71875 l 0.25,0 0,4.25 c 0.625,-0.0273 1.105469,-0.20312 1.4375,-0.51562 0.335938,-0.32031 0.5,-0.72266 0.5,-1.20313 0,-0.35156 -0.08594,-0.65625 -0.265625,-0.90625 -0.183594,-0.24609 -0.488281,-0.44531 -0.90625,-0.59375 z m -1.5625,3.17188 0,-3.1875 c -0.476562,0.043 -0.835937,0.16406 -1.078125,0.35937 -0.363281,0.3125 -0.546875,0.71485 -0.546875,1.20313 0,0.44922 0.152344,0.82422 0.453125,1.125 0.292969,0.30469 0.683594,0.47266 1.171875,0.5 z"
     style="fill:#000000;fill-opacity:1;fill-rule:nonzero;stroke:none" />
  <path
     inkscape:connector-curvature="0"
     id="path251"
     d="m 6.171874,232.37109 0.125,-1 c 0.585938,0.15625 1.039063,0.44922 1.359375,0.875 0.324219,0.42969 0.484375,0.97266 0.484375,1.625 0,0.83594 -0.253906,1.4961 -0.765625,1.98438 -0.507812,0.49219 -1.226562,0.73437 -2.15625,0.73437 -0.964844,0 -1.710937,-0.24218 -2.234375,-0.73437 -0.527344,-0.4961 -0.796875,-1.14063 -0.796875,-1.92188 0,-0.76953 0.261719,-1.39453 0.78125,-1.875 0.511719,-0.47656 1.242188,-0.71875 2.1875,-0.71875 l 0.25,0 0,4.25 c 0.625,-0.0273 1.105469,-0.20312 1.4375,-0.51562 0.335938,-0.32031 0.5,-0.72266 0.5,-1.20313 0,-0.35156 -0.08594,-0.65625 -0.265625,-0.90625 -0.183594,-0.24609 -0.488281,-0.44531 -0.90625,-0.59375 z m -1.5625,3.17188 0,-3.1875 c -0.476562,0.043 -0.835937,0.16406 -1.078125,0.35937 -0.363281,0.3125 -0.546875,0.71485 -0.546875,1.20313 0,0.44922 0.152344,0.82422 0.453125,1.125 0.292969,0.30469 0.683594,0.47265 1.171875,0.5 z"
     style="fill:#000000;fill-opacity:1;fill-rule:nonzero;stroke:none" />
  <path
     inkscape:connector-curvature="0"
     id="path253"
     d="m 8.015624,231.13281 -2.96875,-2.09375 -2.734375,1.9375 0,-1.20312 1.34375,-0.89063 c 0.25,-0.15234 0.460938,-0.28515 0.625,-0.39062 -0.226562,-0.15235 -0.4375,-0.30078 -0.625,-0.4375 l -1.34375,-0.95313 0,-1.15625 2.6875,1.96875 3.015625,-2.125 0,1.1875 -1.765625,1.17188 -0.484375,0.3125 2.25,1.5 z"
     style="fill:#000000;fill-opacity:1;fill-rule:nonzero;stroke:none" />
  <path
     inkscape:connector-curvature="0"
     id="path255"
     d="m 6.171874,221.41406 0.125,-1 c 0.585938,0.15625 1.039063,0.44922 1.359375,0.875 0.324219,0.42969 0.484375,0.97266 0.484375,1.625 0,0.83594 -0.253906,1.4961 -0.765625,1.98438 -0.507812,0.49218 -1.226562,0.73437 -2.15625,0.73437 -0.964844,0 -1.710937,-0.24219 -2.234375,-0.73437 -0.527344,-0.4961 -0.796875,-1.14063 -0.796875,-1.92188 0,-0.76953 0.261719,-1.39453 0.78125,-1.875 0.511719,-0.47656 1.242188,-0.71875 2.1875,-0.71875 l 0.25,0 0,4.25 c 0.625,-0.0273 1.105469,-0.20312 1.4375,-0.51562 0.335938,-0.32032 0.5,-0.72266 0.5,-1.20313 0,-0.35156 -0.08594,-0.65625 -0.265625,-0.90625 -0.183594,-0.24609 -0.488281,-0.44531 -0.90625,-0.59375 z m -1.5625,3.17188 0,-3.1875 c -0.476562,0.043 -0.835937,0.16406 -1.078125,0.35937 -0.363281,0.3125 -0.546875,0.71485 -0.546875,1.20313 0,0.44922 0.152344,0.82422 0.453125,1.125 0.292969,0.30468 0.683594,0.47265 1.171875,0.5 z"
     style="fill:#000000;fill-opacity:1;fill-rule:nonzero;stroke:none" />
  <path
     inkscape:connector-curvature="0"
     id="path257"
     d="m 5.921874,215.47266 0.125,-0.9375 c 0.65625,0.0937 1.175781,0.36328 1.546875,0.79687 0.367188,0.42969 0.546875,0.94922 0.546875,1.5625 0,0.78125 -0.253906,1.41406 -0.765625,1.89063 -0.507812,0.46875 -1.238281,0.70312 -2.1875,0.70312 -0.613281,0 -1.148437,-0.0977 -1.609375,-0.29687 -0.464844,-0.20704 -0.816406,-0.51954 -1.046875,-0.9375 -0.226562,-0.41407 -0.34375,-0.86719 -0.34375,-1.35938 0,-0.61328 0.160156,-1.11719 0.46875,-1.51562 0.3125,-0.39454 0.757813,-0.64844 1.328125,-0.76563 l 0.140625,0.95313 c -0.371094,0.0859 -0.65625,0.24218 -0.84375,0.46875 -0.195312,0.23046 -0.296875,0.50781 -0.296875,0.82812 0,0.48047 0.179688,0.87891 0.53125,1.1875 0.34375,0.30469 0.894531,0.45313 1.640625,0.45313 0.773438,0 1.332031,-0.14454 1.671875,-0.4375 0.34375,-0.28907 0.515625,-0.67579 0.515625,-1.15625 0,-0.3711 -0.113281,-0.6875 -0.34375,-0.9375 -0.226562,-0.25782 -0.585937,-0.42579 -1.078125,-0.5 z"
     style="fill:#000000;fill-opacity:1;fill-rule:nonzero;stroke:none" />
  <path
     inkscape:connector-curvature="0"
     id="path259"
     d="m 8.015624,209.95703 -0.84375,0 c 0.648438,0.44922 0.96875,1.05469 0.96875,1.8125 0,0.33594 -0.06641,0.65234 -0.1875,0.95313 -0.132812,0.29296 -0.296875,0.51171 -0.484375,0.65625 -0.195312,0.13671 -0.4375,0.23046 -0.71875,0.28125 -0.183594,0.043 -0.488281,0.0625 -0.90625,0.0625 l -3.53125,0 0,-0.96875 3.15625,0 c 0.511719,0 0.855469,-0.0195 1.03125,-0.0625 0.25,-0.0586 0.449219,-0.1875 0.59375,-0.375 0.148438,-0.19532 0.21875,-0.44141 0.21875,-0.73438 0,-0.28906 -0.07031,-0.5625 -0.21875,-0.8125 -0.152344,-0.25781 -0.359375,-0.44141 -0.609375,-0.54687 -0.257812,-0.10157 -0.628906,-0.15625 -1.109375,-0.15625 l -3.0625,0 0,-0.96875 5.703125,0 z"
     style="fill:#000000;fill-opacity:1;fill-rule:nonzero;stroke:none" />
  <path
     inkscape:connector-curvature="0"
     id="path261"
     d="m 7.156249,205.46484 0.84375,-0.125 c 0.05859,0.27344 0.09375,0.51172 0.09375,0.71875 0,0.35547 -0.05859,0.63282 -0.171875,0.82813 -0.113281,0.1875 -0.257812,0.32422 -0.4375,0.40625 -0.175781,0.0742 -0.554687,0.10937 -1.140625,0.10937 l -3.28125,0 0,0.71875 -0.75,0 0,-0.71875 -1.406249,0 -0.59375,-0.95312 1.999999,0 0,-0.98438 0.75,0 0,0.98438 3.34375,0 c 0.273438,0 0.449219,-0.0156 0.53125,-0.0469 0.07422,-0.0391 0.136719,-0.0977 0.1875,-0.17187 0.04297,-0.082 0.0625,-0.19141 0.0625,-0.32813 0,-0.11328 -0.0078,-0.25781 -0.03125,-0.4375 z"
     style="fill:#000000;fill-opacity:1;fill-rule:nonzero;stroke:none" />
  <path
     inkscape:connector-curvature="0"
     id="path263"
     d="m 6.171874,200.625 0.125,-1 c 0.585938,0.15625 1.039063,0.44922 1.359375,0.875 0.324219,0.42969 0.484375,0.97266 0.484375,1.625 0,0.83594 -0.253906,1.49609 -0.765625,1.98437 -0.507812,0.49219 -1.226562,0.73438 -2.15625,0.73438 -0.964844,0 -1.710937,-0.24219 -2.234375,-0.73438 -0.527344,-0.49609 -0.796875,-1.14062 -0.796875,-1.92187 0,-0.76953 0.261719,-1.39453 0.78125,-1.875 0.511719,-0.47656 1.242188,-0.71875 2.1875,-0.71875 l 0.25,0 0,4.25 c 0.625,-0.0273 1.105469,-0.20313 1.4375,-0.51563 0.335938,-0.32031 0.5,-0.72265 0.5,-1.20312 0,-0.35156 -0.08594,-0.65625 -0.265625,-0.90625 -0.183594,-0.24609 -0.488281,-0.44531 -0.90625,-0.59375 z m -1.5625,3.17187 0,-3.1875 c -0.476562,0.043 -0.835937,0.16407 -1.078125,0.35938 -0.363281,0.3125 -0.546875,0.71484 -0.546875,1.20312 0,0.44922 0.152344,0.82422 0.453125,1.125 0.292969,0.30469 0.683594,0.47266 1.171875,0.5 z"
     style="fill:#000000;fill-opacity:1;fill-rule:nonzero;stroke:none" />
  <path
     inkscape:connector-curvature="0"
     id="path265"
     d="m 8.015624,194.71094 -0.71875,0 c 0.5625,0.35547 0.84375,0.88672 0.84375,1.59375 0,0.44922 -0.125,0.86718 -0.375,1.25 -0.246094,0.38672 -0.597656,0.68359 -1.046875,0.89062 -0.445312,0.21094 -0.960937,0.3125 -1.546875,0.3125 -0.570312,0 -1.085937,-0.0937 -1.546875,-0.28125 -0.464844,-0.19531 -0.820312,-0.48437 -1.0625,-0.85937 -0.246094,-0.3711 -0.375,-0.79688 -0.375,-1.26563 0,-0.33984 0.07422,-0.64844 0.21875,-0.92187 0.148438,-0.26953 0.335938,-0.48828 0.5625,-0.65625 l -2.828124,0 0,-0.96875 7.874999,0 z m -2.84375,3.04687 c 0.730469,0 1.277344,-0.14844 1.640625,-0.45312 0.355469,-0.3086 0.53125,-0.67578 0.53125,-1.09375 0,-0.42578 -0.171875,-0.78516 -0.515625,-1.07813 -0.339844,-0.28906 -0.867187,-0.4375 -1.578125,-0.4375 -0.777344,0 -1.351562,0.15235 -1.71875,0.45313 -0.363281,0.29297 -0.546875,0.66406 -0.546875,1.10937 0,0.42969 0.179688,0.78906 0.53125,1.07813 0.34375,0.28125 0.898438,0.42187 1.65625,0.42187 z"
     style="fill:#000000;fill-opacity:1;fill-rule:nonzero;stroke:none" />
  <path
     inkscape:connector-curvature="0"
     id="path267"
     d="m 7.156249,187.11719 0.84375,-0.125 c 0.05859,0.27343 0.09375,0.51172 0.09375,0.71875 0,0.35547 -0.05859,0.63281 -0.171875,0.82812 -0.113281,0.1875 -0.257812,0.32422 -0.4375,0.40625 -0.175781,0.0742 -0.554687,0.10938 -1.140625,0.10938 l -3.28125,0 0,0.71875 -0.75,0 0,-0.71875 -1.406249,0 -0.59375,-0.95313 1.999999,0 0,-0.98437 0.75,0 0,0.98437 3.34375,0 c 0.273438,0 0.449219,-0.0156 0.53125,-0.0469 0.07422,-0.0391 0.136719,-0.0977 0.1875,-0.17188 0.04297,-0.082 0.0625,-0.1914 0.0625,-0.32812 0,-0.11328 -0.0078,-0.25782 -0.03125,-0.4375 z"
     style="fill:#000000;fill-opacity:1;fill-rule:nonzero;stroke:none" />
  <path
     inkscape:connector-curvature="0"
     id="path269"
     d="m 5.156249,186.54297 c -1.050781,0 -1.832031,-0.29688 -2.34375,-0.89063 -0.414062,-0.48828 -0.625,-1.08593 -0.625,-1.79687 0,-0.77735 0.257813,-1.41406 0.765625,-1.90625 0.511719,-0.4961 1.222656,-0.75 2.125,-0.75 0.742188,0 1.324219,0.11328 1.75,0.32812 0.417969,0.21875 0.742188,0.54297 0.96875,0.96875 0.226563,0.41797 0.34375,0.8711 0.34375,1.35938 0,0.80469 -0.253906,1.45703 -0.765625,1.95312 -0.507812,0.49219 -1.25,0.73438 -2.21875,0.73438 z m 0,-1 c 0.742188,0 1.292969,-0.15625 1.65625,-0.46875 0.355469,-0.32031 0.53125,-0.72656 0.53125,-1.21875 0,-0.47656 -0.179687,-0.875 -0.546875,-1.1875 -0.363281,-0.32031 -0.921875,-0.48438 -1.671875,-0.48438 -0.695312,0 -1.226562,0.16407 -1.59375,0.48438 -0.363281,0.32422 -0.546875,0.72265 -0.546875,1.1875 0,0.49219 0.183594,0.89844 0.546875,1.21875 0.355469,0.3125 0.898438,0.46875 1.625,0.46875 z"
     style="fill:#000000;fill-opacity:1;fill-rule:nonzero;stroke:none" />
  <path
     inkscape:connector-curvature="0"
     id="path271"
     d="m 8.015624,176.77344 -4.953125,0 0,0.84375 -0.75,0 0,-0.84375 -0.609374,0 c -0.382812,0 -0.671875,-0.0352 -0.859375,-0.10938 -0.246094,-0.0898 -0.453125,-0.2539 -0.609375,-0.48437 C 0.082031,175.94141 0,175.61328 0,175.19531 0,174.92578 0.03906,174.625 0.109375,174.28906 l 0.84375,0.14063 c -0.03906,0.21093 -0.0625,0.40234 -0.0625,0.57812 0,0.29297 0.06641,0.50391 0.1875,0.625 0.125,0.11719 0.363281,0.17188 0.703125,0.17188 l 0.531249,0 0,-1.10938 0.75,0 0,1.10938 4.953125,0 z"
     style="fill:#000000;fill-opacity:1;fill-rule:nonzero;stroke:none" />
  <path
     inkscape:connector-curvature="0"
     id="path273"
     d="m 1.25,173.9375 -1.109375,0 0,-0.96875 1.109375,0 z m 6.765624,0 -5.703125,0 0,-0.96875 5.703125,0 z"
     style="fill:#000000;fill-opacity:1;fill-rule:nonzero;stroke:none" />
  <path
     inkscape:connector-curvature="0"
     id="path275"
     d="m 8.015624,171.50781 -5.703125,0 0,-0.875 0.8125,0 c -0.621094,-0.41406 -0.9375,-1.01953 -0.9375,-1.8125 0,-0.33984 0.06641,-0.66015 0.1875,-0.95312 0.117188,-0.28907 0.277344,-0.50391 0.484375,-0.64063 0.199219,-0.14453 0.433594,-0.25 0.703125,-0.3125 0.1875,-0.0273 0.507813,-0.0469 0.953125,-0.0469 l 3.5,0 0,0.96875 -3.46875,0 c -0.394531,0 -0.6875,0.0391 -0.875,0.10937 -0.195312,0.0742 -0.351562,0.21094 -0.46875,0.40625 -0.121094,0.1875 -0.1875,0.41406 -0.1875,0.67188 0,0.40625 0.132813,0.76172 0.390625,1.0625 0.261719,0.30468 0.761719,0.45312 1.5,0.45312 l 3.109375,0 z"
     style="fill:#000000;fill-opacity:1;fill-rule:nonzero;stroke:none" />
  <path
     inkscape:connector-curvature="0"
     id="path277"
     d="m 8.015624,161.69141 -0.71875,0 c 0.5625,0.35546 0.84375,0.88671 0.84375,1.59375 0,0.44921 -0.125,0.86718 -0.375,1.25 -0.246094,0.38671 -0.597656,0.68359 -1.046875,0.89062 -0.445312,0.21094 -0.960937,0.3125 -1.546875,0.3125 -0.570312,0 -1.085937,-0.0937 -1.546875,-0.28125 -0.464844,-0.19531 -0.820312,-0.48437 -1.0625,-0.85937 -0.246094,-0.3711 -0.375,-0.79688 -0.375,-1.26563 0,-0.33984 0.07422,-0.64844 0.21875,-0.92187 0.148438,-0.26954 0.335938,-0.48829 0.5625,-0.65625 l -2.828124,0 0,-0.96875 7.874999,0 z m -2.84375,3.04687 c 0.730469,0 1.277344,-0.14844 1.640625,-0.45312 0.355469,-0.3086 0.53125,-0.67579 0.53125,-1.09375 0,-0.42579 -0.171875,-0.78516 -0.515625,-1.07813 -0.339844,-0.28906 -0.867187,-0.4375 -1.578125,-0.4375 -0.777344,0 -1.351562,0.15234 -1.71875,0.45313 -0.363281,0.29296 -0.546875,0.66406 -0.546875,1.10937 0,0.42969 0.179688,0.78906 0.53125,1.07813 0.34375,0.28125 0.898438,0.42187 1.65625,0.42187 z"
     style="fill:#000000;fill-opacity:1;fill-rule:nonzero;stroke:none" />
  <path
     inkscape:connector-curvature="0"
     id="path279"
     d="m 7.156249,154.09375 0.84375,-0.125 c 0.05859,0.27344 0.09375,0.51172 0.09375,0.71875 0,0.35547 -0.05859,0.63281 -0.171875,0.82812 -0.113281,0.1875 -0.257812,0.32422 -0.4375,0.40625 -0.175781,0.0742 -0.554687,0.10938 -1.140625,0.10938 l -3.28125,0 0,0.71875 -0.75,0 0,-0.71875 -1.406249,0 -0.59375,-0.95313 1.999999,0 0,-0.98437 0.75,0 0,0.98437 3.34375,0 c 0.273438,0 0.449219,-0.0156 0.53125,-0.0469 0.07422,-0.0391 0.136719,-0.0977 0.1875,-0.17188 0.04297,-0.082 0.0625,-0.1914 0.0625,-0.32812 0,-0.11328 -0.0078,-0.25781 -0.03125,-0.4375 z"
     style="fill:#000000;fill-opacity:1;fill-rule:nonzero;stroke:none" />
  <path
     inkscape:connector-curvature="0"
     id="path281"
     d="m 8.015624,153.16016 -7.874999,0 0,-0.96875 2.828124,0 c -0.519531,-0.45704 -0.78125,-1.03125 -0.78125,-1.71875 0,-0.41407 0.08594,-0.78125 0.25,-1.09375 0.167969,-0.3086 0.398438,-0.53516 0.6875,-0.67188 0.292969,-0.13281 0.722656,-0.20312 1.28125,-0.20312 l 3.609375,0 0,0.96875 -3.609375,0 c -0.488281,0 -0.84375,0.10546 -1.0625,0.3125 -0.214844,0.21093 -0.328125,0.50781 -0.328125,0.89062 0,0.29297 0.07422,0.56641 0.21875,0.8125 0.148438,0.25 0.351563,0.43359 0.609375,0.54688 0.25,0.10546 0.601563,0.15625 1.046875,0.15625 l 3.125,0 z"
     style="fill:#000000;fill-opacity:1;fill-rule:nonzero;stroke:none" />
  <path
     inkscape:connector-curvature="0"
     id="path283"
     d="m 6.171874,143.14062 0.125,-1 c 0.585938,0.15625 1.039063,0.44922 1.359375,0.875 0.324219,0.42969 0.484375,0.97266 0.484375,1.625 0,0.83594 -0.253906,1.4961 -0.765625,1.98438 -0.507812,0.49219 -1.226562,0.73437 -2.15625,0.73437 -0.964844,0 -1.710937,-0.24218 -2.234375,-0.73437 -0.527344,-0.49609 -0.796875,-1.14063 -0.796875,-1.92188 0,-0.76953 0.261719,-1.39453 0.78125,-1.875 0.511719,-0.47656 1.242188,-0.71875 2.1875,-0.71875 l 0.25,0 0,4.25 c 0.625,-0.0273 1.105469,-0.20312 1.4375,-0.51562 0.335938,-0.32031 0.5,-0.72266 0.5,-1.20313 0,-0.35156 -0.08594,-0.65625 -0.265625,-0.90625 -0.183594,-0.24609 -0.488281,-0.44531 -0.90625,-0.59375 z m -1.5625,3.17188 0,-3.1875 c -0.476562,0.043 -0.835937,0.16406 -1.078125,0.35937 -0.363281,0.3125 -0.546875,0.71485 -0.546875,1.20313 0,0.44922 0.152344,0.82422 0.453125,1.125 0.292969,0.30469 0.683594,0.47266 1.171875,0.5 z"
     style="fill:#000000;fill-opacity:1;fill-rule:nonzero;stroke:none" />
  <path
     inkscape:connector-curvature="0"
     id="path285"
     d="m 8.015624,137.63672 -4.953125,0 0,0.84375 -0.75,0 0,-0.84375 -0.609374,0 c -0.382812,0 -0.671875,-0.0352 -0.859375,-0.10938 -0.246094,-0.0898 -0.453125,-0.2539 -0.609375,-0.48437 C 0.082031,136.80469 0,136.47656 0,136.05859 c 0,-0.26953 0.03906,-0.57031 0.109375,-0.90625 l 0.84375,0.14063 c -0.03906,0.21094 -0.0625,0.40234 -0.0625,0.57812 0,0.29297 0.06641,0.50391 0.1875,0.625 0.125,0.11719 0.363281,0.17188 0.703125,0.17188 l 0.531249,0 0,-1.10938 0.75,0 0,1.10938 4.953125,0 z"
     style="fill:#000000;fill-opacity:1;fill-rule:nonzero;stroke:none" />
  <path
     inkscape:connector-curvature="0"
     id="path287"
     d="m 1.25,134.79687 -1.109375,0 0,-0.96875 1.109375,0 z m 6.765624,0 -5.703125,0 0,-0.96875 5.703125,0 z"
     style="fill:#000000;fill-opacity:1;fill-rule:nonzero;stroke:none" />
  <path
     inkscape:connector-curvature="0"
     id="path289"
     d="m 8.015624,132.37109 -5.703125,0 0,-0.85937 0.859375,0 c -0.402344,-0.22656 -0.671875,-0.4375 -0.796875,-0.625 -0.121094,-0.1836 -0.1875,-0.39063 -0.1875,-0.60938 0,-0.33203 0.105469,-0.66406 0.3125,-1 l 0.890625,0.32813 c -0.132812,0.24219 -0.203125,0.48047 -0.203125,0.71875 0,0.21094 0.06641,0.39844 0.1875,0.5625 0.125,0.16797 0.304688,0.28906 0.53125,0.35937 0.34375,0.10547 0.722656,0.15625 1.125,0.15625 l 2.984375,0 z"
     style="fill:#000000;fill-opacity:1;fill-rule:nonzero;stroke:none" />
  <path
     inkscape:connector-curvature="0"
     id="path291"
     d="m 6.312499,129.08203 -0.15625,-0.95312 c 0.386719,-0.0508 0.683594,-0.19532 0.890625,-0.4375 0.199219,-0.2461 0.296875,-0.59375 0.296875,-1.03125 0,-0.44532 -0.08594,-0.77344 -0.265625,-0.98438 -0.175781,-0.21484 -0.390625,-0.32812 -0.640625,-0.32812 -0.214844,0 -0.390625,0.0977 -0.515625,0.28125 -0.08203,0.13672 -0.191406,0.46484 -0.328125,0.98437 -0.175781,0.71094 -0.328125,1.20703 -0.453125,1.48438 -0.132812,0.27343 -0.316406,0.48046 -0.546875,0.625 -0.226562,0.13671 -0.484375,0.20312 -0.765625,0.20312 -0.257812,0 -0.492187,-0.0547 -0.703125,-0.17187 -0.214844,-0.11329 -0.398437,-0.27344 -0.546875,-0.48438 -0.113281,-0.14453 -0.207031,-0.34765 -0.28125,-0.60937 -0.07031,-0.25782 -0.109375,-0.53516 -0.109375,-0.82813 0,-0.44531 0.06641,-0.83594 0.1875,-1.17187 0.125,-0.33985 0.304688,-0.59375 0.53125,-0.75 0.21875,-0.16407 0.511719,-0.28125 0.875,-0.34375 l 0.125,0.9375 c -0.289062,0.0547 -0.515625,0.18359 -0.671875,0.39062 -0.164062,0.19922 -0.25,0.48828 -0.25,0.85938 0,0.44922 0.07422,0.76953 0.21875,0.95312 0.148438,0.1875 0.320313,0.28125 0.515625,0.28125 0.125,0 0.238281,-0.0352 0.328125,-0.10937 0.105469,-0.082 0.195313,-0.20703 0.265625,-0.375 0.03125,-0.0898 0.117188,-0.37891 0.25,-0.85938 0.179688,-0.67578 0.324219,-1.14844 0.4375,-1.42187 0.117188,-0.26953 0.289063,-0.48438 0.515625,-0.64063 0.21875,-0.15234 0.496094,-0.23437 0.828125,-0.23437 0.324219,0 0.628906,0.0977 0.90625,0.28125 0.28125,0.1875 0.503906,0.46093 0.65625,0.8125 0.152344,0.35547 0.234375,0.75781 0.234375,1.20312 0,0.74219 -0.148437,1.3086 -0.453125,1.70313 -0.308594,0.38671 -0.769531,0.63281 -1.375,0.73437 z"
     style="fill:#000000;fill-opacity:1;fill-rule:nonzero;stroke:none" />
  <path
     inkscape:connector-curvature="0"
     id="path293"
     d="m 7.156249,121.08203 0.84375,-0.125 c 0.05859,0.27344 0.09375,0.51172 0.09375,0.71875 0,0.35547 -0.05859,0.63281 -0.171875,0.82813 -0.113281,0.1875 -0.257812,0.32422 -0.4375,0.40625 -0.175781,0.0742 -0.554687,0.10937 -1.140625,0.10937 l -3.28125,0 0,0.71875 -0.75,0 0,-0.71875 -1.406249,0 -0.59375,-0.95312 1.999999,0 0,-0.98438 0.75,0 0,0.98438 3.34375,0 c 0.273438,0 0.449219,-0.0156 0.53125,-0.0469 0.07422,-0.0391 0.136719,-0.0977 0.1875,-0.17187 0.04297,-0.082 0.0625,-0.19141 0.0625,-0.32813 0,-0.11328 -0.0078,-0.25781 -0.03125,-0.4375 z"
     style="fill:#000000;fill-opacity:1;fill-rule:nonzero;stroke:none" />
  <path
     inkscape:connector-curvature="0"
     id="path295"
     d="m 8.015624,116.85938 -4.953125,0 0,0.84375 -0.75,0 0,-0.84375 -0.609374,0 c -0.382812,0 -0.671875,-0.0352 -0.859375,-0.10938 C 0.597656,116.6602 0.390625,116.49609 0.234375,116.26563 0.082031,116.02734 0,115.69922 0,115.28125 0,115.01172 0.03906,114.71094 0.109375,114.375 l 0.84375,0.14063 c -0.03906,0.21093 -0.0625,0.40234 -0.0625,0.57812 0,0.29297 0.06641,0.50391 0.1875,0.625 0.125,0.11719 0.363281,0.17188 0.703125,0.17188 l 0.531249,0 0,-1.10938 0.75,0 0,1.10938 4.953125,0 z"
     style="fill:#000000;fill-opacity:1;fill-rule:nonzero;stroke:none" />
  <path
     inkscape:connector-curvature="0"
     id="path297"
     d="m 7.312499,110.62891 c 0.304688,0.36718 0.519531,0.71484 0.640625,1.04687 0.121094,0.32422 0.1875,0.67969 0.1875,1.0625 0,0.625 -0.148437,1.11328 -0.453125,1.45313 -0.308594,0.33593 -0.703125,0.5 -1.171875,0.5 -0.277344,0 -0.535156,-0.0625 -0.765625,-0.1875 -0.226562,-0.13282 -0.410156,-0.30078 -0.546875,-0.5 -0.144531,-0.20703 -0.253906,-0.44141 -0.328125,-0.70313 -0.05078,-0.18359 -0.09766,-0.47265 -0.140625,-0.85937 -0.08984,-0.77735 -0.207031,-1.35157 -0.34375,-1.71875 -0.121094,-0.008 -0.207031,-0.0156 -0.25,-0.0156 -0.394531,0 -0.671875,0.0977 -0.828125,0.28125 -0.214844,0.24219 -0.328125,0.60547 -0.328125,1.09375 0,0.46094 0.08203,0.80078 0.234375,1.01563 0.15625,0.21093 0.441406,0.36718 0.84375,0.46875 l -0.125,0.95312 c -0.402344,-0.082 -0.734375,-0.22265 -0.984375,-0.42187 -0.246094,-0.19532 -0.4375,-0.48438 -0.5625,-0.85938 -0.132812,-0.37109 -0.203125,-0.80469 -0.203125,-1.29687 0,-0.48828 0.05859,-0.88282 0.171875,-1.1875 0.117188,-0.30078 0.261719,-0.51953 0.4375,-0.65625 0.167969,-0.14453 0.382813,-0.25 0.640625,-0.3125 0.167969,-0.0273 0.472656,-0.0469 0.90625,-0.0469 l 1.28125,0 c 0.898438,0 1.464844,-0.0195 1.703125,-0.0625 0.242188,-0.0391 0.472656,-0.125 0.6875,-0.25 l 0,1.01563 c -0.195312,0.10547 -0.429687,0.16797 -0.703125,0.1875 z m -2.15625,0.0937 c 0.148438,0.34375 0.269531,0.87109 0.359375,1.57812 0.0625,0.39844 0.132813,0.67969 0.203125,0.84375 0.0625,0.15625 0.167969,0.28516 0.3125,0.375 0.136719,0.0937 0.289063,0.14063 0.453125,0.14063 0.261719,0 0.480469,-0.0977 0.65625,-0.29688 0.167969,-0.19531 0.25,-0.48437 0.25,-0.85937 0,-0.3711 -0.08203,-0.70313 -0.25,-0.98438 -0.164062,-0.28901 -0.390625,-0.50776 -0.671875,-0.6562 -0.214844,-0.0898 -0.539062,-0.14062 -0.96875,-0.14062 z"
     style="fill:#000000;fill-opacity:1;fill-rule:nonzero;stroke:none" />
  <path
     inkscape:connector-curvature="0"
     id="path299"
     d="m 1.25,108.23438 -1.109375,0 0,-0.96875 1.109375,0 z m 6.765624,0 -5.703125,0 0,-0.96875 5.703125,0 z"
     style="fill:#000000;fill-opacity:1;fill-rule:nonzero;stroke:none" />
  <path
     inkscape:connector-curvature="0"
     id="path301"
     d="m 0.140625,104.85156 7.874999,0 0,0.96875 -7.874999,0 z"
     style="fill:#000000;fill-opacity:1;fill-rule:nonzero;stroke:none" />
  <path
     inkscape:connector-curvature="0"
     id="path303"
     d="m 1.25,103.34766 -1.109375,0 0,-0.96875 1.109375,0 z m 6.765624,0 -5.703125,0 0,-0.96875 5.703125,0 z"
     style="fill:#000000;fill-opacity:1;fill-rule:nonzero;stroke:none" />
  <path
     inkscape:connector-curvature="0"
     id="path305"
     d="m 8.015624,100.92188 -5.703125,0 0,-0.875 0.8125,0 c -0.621094,-0.414067 -0.9375,-1.019536 -0.9375,-1.812505 0,-0.339844 0.06641,-0.660156 0.1875,-0.953125 0.117188,-0.289062 0.277344,-0.503906 0.484375,-0.640625 0.199219,-0.144531 0.433594,-0.25 0.703125,-0.3125 0.1875,-0.02734 0.507813,-0.04687 0.953125,-0.04687 l 3.5,0 0,0.96875 -3.46875,0 c -0.394531,0 -0.6875,0.03906 -0.875,0.109375 -0.195312,0.07422 -0.351562,0.210938 -0.46875,0.40625 -0.121094,0.1875 -0.1875,0.414063 -0.1875,0.671875 0,0.40625 0.132813,0.761719 0.390625,1.0625 0.261719,0.304688 0.761719,0.453125 1.5,0.453125 l 3.109375,0 z"
     style="fill:#000000;fill-opacity:1;fill-rule:nonzero;stroke:none" />
  <path
     inkscape:connector-curvature="0"
     id="path307"
     d="m 8.484374,94.976563 0.140625,-0.9375 C 8.914062,94 9.128905,93.890625 9.265624,93.710938 c 0.175781,-0.238282 0.265625,-0.566407 0.265625,-0.984375 0,-0.445313 -0.08984,-0.789063 -0.265625,-1.03125 -0.179687,-0.246094 -0.429687,-0.414063 -0.75,-0.5 -0.199219,-0.05078 -0.613281,-0.07813 -1.25,-0.07813 0.5,0.429687 0.75,0.960937 0.75,1.59375 0,0.78125 -0.28125,1.386718 -0.84375,1.8125 -0.570312,0.429687 -1.253906,0.640625 -2.046875,0.640625 -0.539062,0 -1.039062,-0.09766 -1.5,-0.296875 -0.457031,-0.195313 -0.8125,-0.476563 -1.0625,-0.84375 -0.246094,-0.371094 -0.375,-0.816407 -0.375,-1.328125 0,-0.664063 0.273438,-1.21875 0.8125,-1.65625 l -0.6875,0 0,-0.890625 4.921875,0 c 0.894531,0 1.523438,0.08984 1.890625,0.265625 0.371094,0.179687 0.664063,0.464843 0.875,0.859375 0.214844,0.398437 0.328125,0.882812 0.328125,1.453125 0,0.679687 -0.160156,1.226562 -0.46875,1.640625 -0.304687,0.417968 -0.761719,0.621093 -1.375,0.609375 z M 5.062499,94.179688 c 0.75,0 1.300781,-0.144532 1.640625,-0.4375 0.34375,-0.300782 0.515625,-0.675782 0.515625,-1.125 0,-0.445313 -0.171875,-0.820313 -0.515625,-1.125 -0.339844,-0.300782 -0.878906,-0.453125 -1.609375,-0.453125 -0.695312,0 -1.222656,0.160156 -1.578125,0.46875 -0.351562,0.3125 -0.53125,0.691406 -0.53125,1.125 0,0.429687 0.179688,0.792968 0.53125,1.09375 0.34375,0.304687 0.863281,0.453125 1.546875,0.453125 z"
     style="fill:#000000;fill-opacity:1;fill-rule:nonzero;stroke:none" />
  <path
     inkscape:connector-curvature="0"
     id="path309"
     d="m 8.015624,83.492188 -6.937499,0 0,2.59375 -0.9375,0 0,-6.234375 0.9375,0 0,2.609375 6.937499,0 z"
     style="fill:#000000;fill-opacity:1;fill-rule:nonzero;stroke:none" />
  <path
     inkscape:connector-curvature="0"
     id="path311"
     d="m 5.249999,73.160156 0.265625,-1.046875 c 0.855469,0.21875 1.511719,0.617188 1.96875,1.1875 0.449219,0.5625 0.671875,1.257813 0.671875,2.078125 0,0.855469 -0.171875,1.550782 -0.515625,2.078125 -0.351562,0.53125 -0.859375,0.941407 -1.515625,1.21875 -0.652344,0.273438 -1.359375,0.40625 -2.109375,0.40625 -0.808594,0 -1.523437,-0.15625 -2.140624,-0.46875 C 1.261719,78.304688 0.796875,77.859375 0.484375,77.285156 0.164063,76.703125 0,76.0625 0,75.363281 c 0,-0.789062 0.207031,-1.453125 0.609375,-1.984375 0.398438,-0.539062 0.960938,-0.914062 1.687499,-1.125 l 0.25,1.03125 c -0.570311,0.179688 -0.98828,0.445313 -1.249999,0.796875 -0.257812,0.34375 -0.390625,0.777344 -0.390625,1.296875 0,0.617188 0.148438,1.128907 0.4375,1.53125 0.28125,0.40625 0.667968,0.695313 1.156249,0.859375 0.492188,0.15625 0.996094,0.234375 1.515625,0.234375 0.667969,0 1.253906,-0.09375 1.75,-0.28125 0.5,-0.195312 0.878906,-0.5 1.125,-0.90625 0.25,-0.414062 0.375,-0.863281 0.375,-1.34375 0,-0.582031 -0.164062,-1.078125 -0.5,-1.484375 C 6.42578,73.585938 5.917968,73.308594 5.249999,73.160156 Z"
     style="fill:#000000;fill-opacity:1;fill-rule:nonzero;stroke:none" />
  <path
     inkscape:connector-curvature="0"
     id="path313"
     d="m 41.293749,0.375 414.722661,0 0,371.51953 -414.722661,0 z"
     style="fill:none;stroke:#000000;stroke-width:0.75;stroke-linecap:round;stroke-linejoin:round;stroke-miterlimit:10;stroke-opacity:1" />
</svg>
